<?xml version="1.0" encoding="utf-8"?>
<!-- Generator: Adobe Illustrator 25.0.0, SVG Export Plug-In . SVG Version: 6.00 Build 0)  -->
<svg version="1.1" id="Laag_1" xmlns="http://www.w3.org/2000/svg" xmlns:xlink="http://www.w3.org/1999/xlink" x="0px" y="0px"
	 viewBox="0 0 95.2 95.2" style="enable-background:new 0 0 95.2 95.2;" xml:space="preserve">
<g>
	<path d="M8,95.2c-2,0-4.1-0.8-5.7-2.3c-3.1-3.1-3.1-8.2,0-11.3L81.5,2.3c3.1-3.1,8.2-3.1,11.3,0c3.1,3.1,3.1,8.2,0,11.3L13.7,92.9
		C12.1,94.4,10,95.2,8,95.2z"/>
</g>
<g>
	<path d="M87.2,95.2c-2,0-4.1-0.8-5.7-2.3L2.3,13.7c-3.1-3.1-3.1-8.2,0-11.3c3.1-3.1,8.2-3.1,11.3,0l79.2,79.2
		c3.1,3.1,3.1,8.2,0,11.3C91.3,94.4,89.2,95.2,87.2,95.2z"/>
</g>
</svg>
