<?xml version="1.0" encoding="utf-8"?>
<!-- Generator: Adobe Illustrator 25.0.0, SVG Export Plug-In . SVG Version: 6.00 Build 0)  -->
<svg version="1.1" id="Laag_1" xmlns="http://www.w3.org/2000/svg" xmlns:xlink="http://www.w3.org/1999/xlink" x="0px" y="0px"
	 viewBox="0 0 242.5 713.4" style="enable-background:new 0 0 242.5 713.4;" xml:space="preserve">
<style type="text/css">
	.st0{display:none;}
	.st1{display:inline;fill:#FFFFFF;}
	.st2{fill:#FCE1D6;}
	.st3{display:inline;fill:#D8A08F;}
	.st4{display:inline;fill:#6D473D;}
	.st5{display:inline;fill:#E5D09C;}
</style>
<g id="Laag_2_1_" class="st0">
	<path class="st1" d="M218.6,399.1c3.1-3.2,6-6.9,6.4-11.5c3.2-0.3,6.2-2.6,6.3-6.8c0.3-14.7-1.5-29.3-5-43.5c0-0.3,0-0.6,0-0.9
		c-0.6-6.5-1.2-13-2-19.5c-0.3-2.7-0.6-5.4-0.8-8.1c-0.1-0.8-0.3-1.5-0.5-2.1c-0.4-2.7-0.8-5.4-1.2-8.1c0-0.3-0.1-0.6-0.2-0.9
		c1.3-1.5,1.8-3.6,0.8-5.9c-6.4-16-10.6-32.7-15.2-49.3c-2.2-8-4.4-15.9-6-24.1c-1.5-7.6-1.9-15.2-2.4-22.9
		c-0.4-6.8-1.3-13.8-4.9-19.7c-2-3.3-4.9-5.3-7.9-5.5c-0.7-1.8-2.2-3.3-4.5-3.8c-6.3-1.4-13.2-2.2-19.2-4.4c-3.4-1.3-6-3.8-7.9-6.8
		c0.7-10.6,0.1-21-1.6-31.5c-0.1-0.7-0.4-1.3-0.7-1.9c12.5-14,20.9-31.2,21.7-50.7c0.6-13.5-2.7-29.6-12.6-39.6
		c-11-11.1-30-8.9-44.3-8.7c-8.2,0.1-17.6-0.6-24.8,4c-6.1,3.9-11.2,9.9-16.2,15.4c-2.6,1.3-4.7,3.6-5.1,6.6
		c-0.4,3.2,1.1,6.2,3.5,7.8c-2.5,15.3-2.2,30.6,1.2,45.7c0.4,1.9,1.6,3.2,3,4c-0.3,5.2,0.5,10.5,2.5,15.5c0.8,1.9,1.9,3.2,3.3,4
		c3.7,5.2,7.9,10.2,12.4,14.7c1.1,6.1,6.6,10.1,13.4,10.6c1.7,0.1,3.4,0.1,5.1-0.1c0,0.1,0,0.2,0,0.3c-0.4,2.9-0.5,5.7-0.5,8.5
		c-0.1,0.5-0.1,1.1-0.2,1.6c-9.3,2-18.7,3.9-28,5.9c-7.9,1.7-14.6,5-18.2,12.7c-1.5,3.3-2.4,6.8-4.1,10c-1.8,3.4-4.2,6.6-6.4,9.7
		c-4-3.6-9.3-6.1-13.8-5.8c-8.7,0.6-15.5,13.1-19,19.9c-1.6,3.2-0.9,6.1,0.9,8c-1.4,5.6-3.1,11.1-5.1,16.6
		c-2.9,7.7-7.6,14.9-10.1,22.6c-2.3,7-0.5,15.3,6.6,18.7c5.6,2.7,10.5,0.1,14.8-3.5c7.2-1.7,15.2-9.6,19.4-13.4
		c4.9-4.3,9.3-9.1,13.3-14.2c0.1,0,0.2,0,0.3,0.1c0.7,1.5,1.4,3,2.2,4.4c0.8,14,2,27.9,3.8,41.8c0.9,7.3,2,14.6,3.1,21.9
		c0.1,0.8,0.3,1.7,0.4,2.5c-1.3,7.4-2.6,14.8-3.9,22.2c-0.2,1.3-0.2,2.4,0.1,3.4c-1.2,3.4-1.9,6.9-2.2,10.6c-0.8,1-1.3,2.3-1.3,3.9
		c0,12.7,0.1,25.5,0.1,38.2c-0.6,8.7-1,17.4-1,26.1c-0.6,0.9-0.9,2-1,3.3c-1.3,17.4-2.2,34.6,1.8,51.2c0.2,2.3,0.4,4.6,0.6,6.9
		c-1.4,5-0.6,10,1.9,14.5c0.5,1,1.3,1.7,2.1,2.3c0.7,4.1,1.7,8.1,2.6,12.2c2,8.8,3.9,17.5,5.6,26.3c2.9,14.7,5.4,29.4,7.5,44.2
		c-0.1,0.3-0.2,0.5-0.2,0.8c-1.7,8.9-2.8,18-3.3,27c-0.5,2.7-0.8,5.5-0.9,8.2c-1.1,1.6-2.2,3.2-3.2,4.8c-1.2,1.8-1.4,3.6-1,5.1
		c-0.3,0.1-0.6,0.3-0.9,0.4c-7.1,3.9-14.5,8.8-22.3,12.6c-7.6,2.9-15.6,4.9-23.8,6.1c-2.7,0.4-4.2,2-4.8,4.1
		c-1.8,0.1-3.7,0.2-5.5,0.3c-7.5,0.4-10,12.1-1.9,13.7c18.5,3.9,36.8,1,55.1-2.2c8.6-1.5,17.2-3,26-3.6c7.8-0.6,15.5-2.5,16.3-11.7
		c0.5-6.6-1.6-18.2-7.5-22.3c1-4.4,1.4-8.8,1.2-13.4c-0.1-1.6-0.6-2.9-1.4-4c-0.1-1.8-0.1-3.7-0.2-5.5c0.9-1.1,1.6-2.5,1.8-4.2
		c0.4-4,0.6-8,0.5-12c0.9-0.9,1.7-2,2.2-3.3c3.3-7.7,4.5-16,5.1-24.3c0.5-8.1,0.9-16.6-0.1-24.7c-0.8-6-3-11.3-5.5-16.7
		c-2.3-9-4.9-17.9-7.9-26.7c0.8-13.8,3.9-27.9,6.1-41.5c2.4-14.3,5.7-28.4,8.7-42.6c1-4.7,1.8-9.4,2-14.1
		c5.8,20.6,12,41.1,18.7,61.4c0,0.1,0,0.1,0.1,0.2c0,0.1,0.1,0.3,0.1,0.4c2.7,11.6,4.9,24,12,33.9c-1.1,1.8-1.3,4.2,0.4,6.6
		c2.4,3.5,4.8,7,7.2,10.5c0.4,0.5,0.8,1,1.3,1.4c2.8,5,5.7,9.9,8.9,14.7c4.9,10.3,9.1,20.9,12.5,31.8c0.6,2.2,1.3,4.4,2,6.7
		c0.2,0.5,0.4,1,0.6,1.5c2.2,10.8,4.3,21.6,6.5,32.4c0,0.1,0,0.1,0.1,0.2c0.9,8.9,2.1,17.8,3.6,26.7c-1.3,1.3-2.3,3-2.4,4.9
		c-0.1,1.7-0.2,3.4-0.3,5.1c-1.1,0.8-2,2-2.5,3.4c-3.8,11.1-8.9,21.5-15,31.5c-0.1,0.2-0.2,0.4-0.3,0.6c-2.1,0.2-4.1,1.2-5.7,3
		c-4.3,5-2,12.3,3.1,15.6c5.4,3.5,11.4,2.5,17.4,1.6c7.6-1.1,15.3-2.2,22.9-3.3c6-0.9,12.5-2,14.5-8.8c1.7-5.9-1.7-12.7-3.6-18.3
		c-0.6-1.7-1.2-3.3-1.8-5c-0.3-0.9-0.7-1.8-1.1-2.7c0.8-1.4,1.2-3.1,0.8-5c-1.7-8.6-3.7-17.1-5.9-25.6c-0.1-0.5-0.3-0.9-0.5-1.3
		c0.5-1.2,0.7-2.6,0.4-4.1c-1-5.9-2.1-11.8-3.1-17.6c9.9-29.8-2.1-58.4-13.2-86.4c-0.8-2.6-1.7-5.2-2.6-7.9c0-0.6,0-1.3-0.2-2
		c-7.2-29.3-12.6-59.1-16-89.1c-0.2-1.7-0.8-3.3-1.8-4.6c-1.3-18.4-2.7-36.8-6.6-54.8c0.1-0.8,0.2-1.7,0.3-2.5
		c1.7-1.1,2.9-3,2.6-5.6c-0.2-2.8-0.6-5.3-1.6-8c-0.4-1.1-1-2-1.7-2.8c-1.9-5.3-4-10.5-6.2-15.6c-3.3-7.5-7.6-14.6-11.1-22
		c-7.4-15.7,0.8-30.9,8.7-44.5c0.3-0.2,0.6-0.5,0.8-0.8c5.1-6.5,8.9-13.6,10.8-21.5c0.1,0.2,0.1,0.4,0.2,0.6
		c3.1,8.7,6.6,17.2,10.5,25.5c1,3.6,2.1,7.2,3.3,10.7c-1.1,2.7-2.6,5.2-2.1,8.7c0.8,4.9,4.1,10,6.6,14.2c2.8,4.6,6.3,8.6,9.1,13.2
		c0.2,0.3,0.3,0.5,0.4,0.8c-0.4,1.2-0.4,2.5-0.1,4c1.8,6.8,3.6,13.7,5.5,20.5c0.1,0.2,0.1,0.5,0.2,0.7c0.1,2.6,0.2,5.3,0.3,7.9
		c0,0.4,0.1,0.8,0.1,1.2c-6.3,11.5-9.4,24.4-8.4,37.6c0.1,1.1,0.3,2,0.7,2.8c-2.1,4.1-0.1,10.5,5.9,10.5c0.6,0,1.2-0.1,1.7-0.2
		c-0.5,0.9-0.9,1.9-1.4,2.8C204.2,397.5,212.8,405.2,218.6,399.1z M82.1,390.5C82.2,390.6,82.2,390.6,82.1,390.5
		c-0.1,4.4-0.4,8.7-0.6,13c0-0.7,0-1.4,0-2.1c0-1.2,0-2.3,0-3.5C81.7,395.5,81.9,393,82.1,390.5z M110.8,302.9c0,0.2,0,0.5,0.1,0.7
		c-0.1-0.4-0.2-0.8-0.4-1.1c0.1-0.6,0.1-1.1,0.2-1.7C110.7,301.5,110.7,302.2,110.8,302.9z M81.5,414.1c0.1,0.3,0.2,0.5,0.4,0.8
		c-0.1,0.3-0.2,0.5-0.4,0.8C81.5,415.1,81.5,414.6,81.5,414.1z M170.7,215.5c0,0.2,0.1,0.3,0.1,0.5c-0.1,0-0.2,0-0.3-0.1
		C170.6,215.8,170.7,215.6,170.7,215.5z M159.7,363.3c-0.2-1.1-0.4-2.3-0.6-3.4c0.1,0.1,0.2,0.2,0.3,0.3c0.4,2.2,0.9,4.5,1.2,6.7
		C160.4,365.7,160,364.5,159.7,363.3z"/>
</g>
<g id="Laag_2_6_" class="st0">
	<path class="st1" d="M216.8,397.9c3.1-3.2,8.4-1.9,8.8-6.5c3.2-0.3,7.1-9.6,7.2-13.8c0.3-14.7-2.1-25-5.6-39.2c0-0.3-0.2-2-0.2-2.3
		c-0.6-6.5-1.4-11.3-2.2-17.8c-0.3-2.7-0.6-5.6-0.8-8.3c-0.1-0.8,0-1.2-0.2-1.8c-0.4-2.7-0.8-5.4-1.2-8.1c0-0.3,0.5-1.3-0.9-1.6
		c1.3-1.5,1.1-3.4,0.1-5.7c-6.4-16-9.2-32.6-13.8-49.2c-2.2-8-4.7-16.3-6.3-24.5c-1.5-7.6-3.1-14.9-3.6-22.6
		c-0.4-6.8-1.3-13.8-4.9-19.7c-2-3.3-4.9-5.3-7.9-5.5c-0.7-1.8-2.2-3.3-4.5-3.8c-6.3-1.4-13.2-2.2-19.2-4.4c-3.4-1.3-6-3.8-7.9-6.8
		c0.7-10.6,0.1-21-1.6-31.5c-0.1-0.7-0.4-1.3-0.7-1.9c12.5-14,22.9-31.3,23.7-50.8c1.3-6.5-3.7-28.7-12.8-40.8
		c-24-7.9-30.4-8.5-44.7-8.3c-8.2,0.1-26.9,3.2-34.1,7.8c1.3,2.3-3.2,7-8.2,12.5c-2.6,1.3-4.7,3.6-5.1,6.6c-0.4,3.2,1.1,6.2,3.5,7.8
		c-2.5,15.3-0.6,29.6,2.8,44.7c0.4,1.9,0,4.2,1.4,5c-0.3,5.2-1.5,8.7,0.5,13.7c0.8,1.9,3.9,5,5.3,5.8c3.7,5.2,6,10,10.5,14.5
		c1.1,6.1,7,11.6,13.8,12.1c1.7,0.1,5-1.2,6.7-1.4c0,0.1,0,0.2,0,0.3c-0.4,2.9-0.5,5.7-0.5,8.5c-0.1,0.5-0.1,1.1-0.2,1.6
		c-9.3,2-18.7,3.9-28,5.9c-7.9,1.7-14.6,5-18.2,12.7c-1.5,3.3-2.4,6.8-4.1,10c-1.8,3.4-4.2,6.6-6.4,9.7c-4-3.6-9.9-6-14.4-5.7
		c-8.7,0.6-14.9,13-18.4,19.8c-1.6,3.2-0.9,6.1,0.9,8c-1.4,5.6-3.1,11.1-5.1,16.6c-2.9,7.7-7.6,14.9-10.1,22.6
		c-2.3,7-1.6,17.3,5.5,20.7c5.6,2.7,11.6-1.9,15.9-5.5c7.2-1.7,16.5-9.1,20.7-12.9c4.9-4.3,8-9.6,12-14.7c0.1,0,0.2,0,0.3,0.1
		c0.7,1.5-0.4,3.1,0.4,4.5c0.8,14,3.8,27.8,5.6,41.7c0.9,7.3,2,14.6,3.1,21.9c0.1,0.8,0.3,1.7,0.4,2.5c-1.3,7.4-2.6,14.8-3.9,22.2
		c-0.2,1.3-0.2,2.4,0.1,3.4c-1.2,3.4-1.9,6.9-2.2,10.6c-0.8,1-1.3,2.3-1.3,3.9c0,12.7-1.7,25.4-1.7,38.1c-0.6,8.7-0.6,16.9-0.6,25.6
		c-0.6,0.9-0.6,2.4-0.7,3.7c-1.3,17.4-1.1,34.9,2.9,51.5c0.2,2.3-1.3,4.4-1.1,6.7c-1.4,5,1.1,10.2,3.6,14.7c0.5,1-0.2,2.2,0.6,2.8
		c0.7,4.1,3.2,7.6,4.1,11.7c2,8.8,3.9,17.5,5.6,26.3c2.9,14.7,3,29.4,5.1,44.2c-0.1,0.3-1.5,3.6,0,2.8c-1.7,8.9-2.4,16.2-2.9,25.2
		c-0.5,2.7,1,5.3,0.9,8c-1.1,1.6-2.2,3.2-3.2,4.8c-1.2,1.8-3.9,0.3-3.5,1.8c-0.3,0.1-1.9,2.5-2.2,2.6c-7.1,3.9-11.3,9-19.1,12.8
		c-7.6,2.9-15,5.9-23.2,7.1c-2.7,0.4-4.2,2-4.8,4.1c-1.8,0.1-3.7,0.2-5.5,0.3c-7.5,0.4-10,12.1-1.9,13.7c18.5,3.9,36.8,1,55.1-2.2
		c8.6-1.5,18.1-2,26.9-2.6c7.8-0.6,14.6-3.5,15.4-12.7c0.5-6.6,1-18.1-4.9-22.2c1-4.4-1.2-8.9-1.4-13.5c-0.1-1.6-0.6-2.9-1.4-4
		c-0.1-1.8-0.1-3.7-0.2-5.5c0.9-1.1,1.6-2.5,1.8-4.2c0.4-4,0.6-8,0.5-12c0.9-0.9,1.7-2,2.2-3.3c3.3-7.7,4.5-16,5.1-24.3
		c0.5-8.1,0.9-16.6-0.1-24.7c-0.8-6-2.1-11.7-4.6-17.1c-2.3-9-5.8-17.5-8.8-26.3c0.8-13.8,3.9-27.9,6.1-41.5
		c2.4-14.3,6.8-25.8,9.8-40c1-4.7,0.7-12,0.9-16.7c5.8,20.6,9.9,41,16.6,61.3c0,0.1,0.7,0.9,0.8,1c0,0.1-0.1,1.2-0.1,1.3
		c2.7,11.6,6.5,22.4,13.6,32.3c-1.1,1.8-1.3,4.2,0.4,6.6c2.4,3.5,4.8,7,7.2,10.5c0.4,0.5,0.8,1,1.3,1.4c2.8,5,3.6,10.3,6.8,15.1
		c3.6,10.3,9.4,20.3,12.8,31.2c0.6,2.2,1.3,5,2,7.3c0.2,0.5,0.3,1.3,0.5,1.8c2.2,10.8,6.3,20.9,8.5,31.7c0,0.1,0,0.1,0.1,0.2
		c0.9,8.9-0.9,15,0.6,23.9c-1.3,1.3,0.7,5.8,0.6,7.7c-0.1,1.7-0.2,3.4-0.3,5.1c-1.1,0.8-2,2-2.5,3.4c-3.8,11.1-8.5,19.5-14.6,29.5
		c0-2-2,0.5-1.1,1.4c-2.1,0.2-3.7,2.3-5.3,4.1c-4.3,5-2,12.3,3.1,15.6c5.4,3.5,11.4,2.5,17.4,1.6c7.6-1.1,15.3-2.2,22.9-3.3
		c6-0.9,12.5-2,14.5-8.8c1.7-5.9-1.7-12.7-3.6-18.3c-0.6-1.7-0.4-2.9-1-4.6c-0.3-0.9-0.2-1.8-0.6-2.7c0.8-1.4-0.1-3.4-0.5-5.3
		c-1.7-8.6-2.1-17.1-4.3-25.6c-0.1-0.5-1.9-0.9-2.1-1.3c0.5-1.2,0.7-2.6,0.4-4.1c-1-5.9-0.4-11.4-1.4-17.2
		c5.2-51.3-1.9-58.5-13-86.5c-0.8-2.6-2-6.5-2.9-9.2c0-0.6-5-14.1-5.2-14.8c-7.2-29.3-7.9-45.7-11.2-75.7c-0.2-1.7-0.1-4.6-1.1-5.9
		c-1.3-18.4-2.8-35.1-6.7-53.1c0.1-0.8-0.8-1.5-0.7-2.3c1.7-1.1,1.8-3.4,1.5-6c-0.2-2.8-0.6-5.3-1.6-8c-0.4-1.1-1-2-1.7-2.8
		c-1.9-5.3-4-10.5-6.2-15.6c-3.3-7.5-7.6-14.6-11.1-22c-7.4-15.7,0.8-30.9,8.7-44.5c0.3-0.2,0.6-0.5,0.8-0.8
		c5.1-6.5,8.9-13.6,10.8-21.5c0.1,0.2,0.1,0.4,0.2,0.6c3.1,8.7,5,16.8,8.9,25.1c1,3.6,1.9,7.5,3.1,11c-1.1,2.7-0.8,5.3-0.3,8.8
		c0.8,4.9,4.1,10,6.6,14.2c2.8,4.6,5.1,8.6,7.9,13.2c0.2,0.3,0.3,0.5,0.4,0.8c-0.4,1.2,0.8,2.5,1.1,4c1.8,6.8,3.6,13.7,5.5,20.5
		c0.1,0.2,0.1,0.5,0.2,0.7c0.1,2.6,0.2,5.3,0.3,7.9c0,0.4,0.1,0.8,0.1,1.2c-6.3,11.5-10.2,20-9.2,33.2c0.1,1.1,1.1,6.4,1.5,7.2
		c-2.1,4.1-1,7.5,5,7.5c0.6,0,9-7.9,3.9,2.2c-0.5,0.9-1.1,3.6-1.6,4.5C204.6,399.6,211,404,216.8,397.9z M81.4,391.4
		C81.5,391.5,81.5,391.5,81.4,391.4c-0.1,4.4-0.4,8.7-0.6,13c0-0.7,0-1.4,0-2.1c0-1.2,1.4-2.1,1.4-3.3
		C82.4,396.6,81.2,393.9,81.4,391.4z M110.1,303.8c0,0.2,0,0.5,0.1,0.7c-0.1-0.4,1-0.7,0.8-1c0.1-0.6-1.1-1.2-1-1.8
		C110,302.4,110,303.1,110.1,303.8z M80.8,415c0.1,0.3-0.7,0.5-0.5,0.8c-0.1,0.3,0.7,0.5,0.5,0.8C80.8,416,80.8,415.5,80.8,415z
		 M170,216.4c0,0.2,0.1,0.3,0.1,0.5c-0.1,0,0.7-0.4,0.6-0.5C170.8,216.3,170,216.5,170,216.4z M160.6,363.8c-0.2-1.1-2-1.9-2.2-3
		c0.1,0.1,0.2,0.2,0.3,0.3c0.4,2.2,0.9,4.5,1.2,6.7C159.7,366.6,160.9,365,160.6,363.8z"/>
</g>
<g id="Laag_2_2_">
	<path class="st2" d="M217,397.7c3.1-3.2,8.4-1.9,8.8-6.5c3.2-0.3,7.1-9.6,7.2-13.8c0.3-14.7-2.1-25-5.6-39.2c0-0.3-0.2-2-0.2-2.3
		c-0.6-6.5-1.4-11.3-2.2-17.8c-0.3-2.7-0.6-5.6-0.8-8.3c-0.1-0.8,0-1.2-0.2-1.8c-0.4-2.7-0.8-5.4-1.2-8.1c0-0.3,0.5-1.3-0.9-1.6
		c1.3-1.5,1.1-3.4,0.1-5.7c-6.4-16-9.2-32.6-13.8-49.2c-2.2-8-4.7-16.3-6.3-24.5c-1.5-7.6-3.1-14.9-3.6-22.6
		c-0.4-6.8-1.3-13.8-4.9-19.7c-2-3.3-4.9-5.3-7.9-5.5c-0.7-1.8-2.2-3.3-4.5-3.8c-6.3-1.4-13.2-2.2-19.2-4.4c-3.4-1.3-6-3.8-7.9-6.8
		c0.7-10.6,0.1-21-1.6-31.5c-0.1-0.7-0.4-1.3-0.7-1.9c12.5-14,22.9-31.3,23.7-50.8c1.3-6.5-3.7-28.7-12.8-40.8
		c-24-7.9-30.4-8.5-44.7-8.3c-8.2,0.1-26.9,3.2-34.1,7.8c1.3,2.3-3.2,7-8.2,12.5c-2.6,1.3-4.7,3.6-5.1,6.6c-0.4,3.2,1.1,6.2,3.5,7.8
		c-2.5,15.3-0.6,29.6,2.8,44.7c0.4,1.9,0,4.2,1.4,5c-0.3,5.2-1.5,8.7,0.5,13.7c0.8,1.9,3.9,5,5.3,5.8c3.7,5.2,6,10,10.5,14.5
		c1.1,6.1,7,11.6,13.8,12.1c1.7,0.1,5-1.2,6.7-1.4c0,0.1,0,0.2,0,0.3c-0.4,2.9-0.5,5.7-0.5,8.5c-0.1,0.5-0.1,1.1-0.2,1.6
		c-9.3,2-18.7,3.9-28,5.9c-7.9,1.7-14.6,5-18.2,12.7c-1.5,3.3-2.4,6.8-4.1,10c-1.8,3.4-4.2,6.6-6.4,9.7c-4-3.6-9.9-6-14.4-5.7
		c-8.7,0.6-14.9,13-18.4,19.8c-1.6,3.2-0.9,6.1,0.9,8c-1.4,5.6-3.1,11.1-5.1,16.6c-2.9,7.7-7.6,14.9-10.1,22.6
		c-2.3,7-1.6,17.3,5.5,20.7c5.6,2.7,11.6-1.9,15.9-5.5c7.2-1.7,16.5-9.1,20.7-12.9c4.9-4.3,8-9.6,12-14.7c0.1,0,0.2,0,0.3,0.1
		c0.7,1.5-0.4,3.1,0.4,4.5c0.8,14,3.8,27.8,5.6,41.7c0.9,7.3,2,14.6,3.1,21.9c0.1,0.8,0.3,1.7,0.4,2.5c-1.3,7.4-2.6,14.8-3.9,22.2
		c-0.2,1.3-0.2,2.4,0.1,3.4c-1.2,3.4-1.9,6.9-2.2,10.6c-0.8,1-1.3,2.3-1.3,3.9c0,12.7-1.7,25.4-1.7,38.1c-0.6,8.7-0.6,16.9-0.6,25.6
		c-0.6,0.9-0.6,2.4-0.7,3.7c-1.3,17.4-1.1,34.9,2.9,51.5c0.2,2.3-1.3,4.4-1.1,6.7c-1.4,5,1.1,10.2,3.6,14.7c0.5,1-0.2,2.2,0.6,2.8
		c0.7,4.1,3.2,7.6,4.1,11.7c2,8.8,3.9,17.5,5.6,26.3c2.9,14.7,3,29.4,5.1,44.2c-0.1,0.3-1.5,3.6,0,2.8c-1.7,8.9-2.4,16.2-2.9,25.2
		c-0.5,2.7,1,5.3,0.9,8c-1.1,1.6-2.2,3.2-3.2,4.8c-1.2,1.8-3.9,0.3-3.5,1.8c-0.3,0.1-1.9,2.5-2.2,2.6c-7.1,3.9-11.3,9-19.1,12.8
		c-7.6,2.9-15,5.9-23.2,7.1c-2.7,0.4-4.2,2-4.8,4.1c-1.8,0.1-3.7,0.2-5.5,0.3c-7.5,0.4-10,12.1-1.9,13.7c18.5,3.9,36.8,1,55.1-2.2
		c8.6-1.5,18.1-2,26.9-2.6c7.8-0.6,14.6-3.5,15.4-12.7c0.5-6.6,1-18.1-4.9-22.2c1-4.4-1.2-8.9-1.4-13.5c-0.1-1.6-0.6-2.9-1.4-4
		c-0.1-1.8-0.1-3.7-0.2-5.5c0.9-1.1,1.6-2.5,1.8-4.2c0.4-4,0.6-8,0.5-12c0.9-0.9,1.7-2,2.2-3.3c3.3-7.7,4.5-16,5.1-24.3
		c0.5-8.1,0.9-16.6-0.1-24.7c-0.8-6-2.1-11.7-4.6-17.1c-2.3-9-5.8-17.5-8.8-26.3c0.8-13.8,3.9-27.9,6.1-41.5
		c2.4-14.3,6.8-25.8,9.8-40c1-4.7,0.7-12,0.9-16.7c5.8,20.6,9.9,41,16.6,61.3c0,0.1,0.7,0.9,0.8,1c0,0.1-0.1,1.2-0.1,1.3
		c2.7,11.6,6.5,22.4,13.6,32.3c-1.1,1.8-1.3,4.2,0.4,6.6c2.4,3.5,4.8,7,7.2,10.5c0.4,0.5,0.8,1,1.3,1.4c2.8,5,3.6,10.3,6.8,15.1
		c3.6,10.3,9.4,20.3,12.8,31.2c0.6,2.2,1.3,5,2,7.3c0.2,0.5,0.3,1.3,0.5,1.8c2.2,10.8,6.3,20.9,8.5,31.7c0,0.1,0,0.1,0.1,0.2
		c0.9,8.9-0.9,15,0.6,23.9c-1.3,1.3,0.7,5.8,0.6,7.7c-0.1,1.7-0.2,3.4-0.3,5.1c-1.1,0.8-2,2-2.5,3.4c-3.8,11.1-8.5,19.5-14.6,29.5
		c0-2-2,0.5-1.1,1.4c-2.1,0.2-3.7,2.3-5.3,4.1c-4.3,5-2,12.3,3.1,15.6c5.4,3.5,11.4,2.5,17.4,1.6c7.6-1.1,15.3-2.2,22.9-3.3
		c6-0.9,12.5-2,14.5-8.8c1.7-5.9-1.7-12.7-3.6-18.3c-0.6-1.7-0.4-2.9-1-4.6c-0.3-0.9-0.2-1.8-0.6-2.7c0.8-1.4-0.1-3.4-0.5-5.3
		c-1.7-8.6-2.1-17.1-4.3-25.6c-0.1-0.5-1.9-0.9-2.1-1.3c0.5-1.2,0.7-2.6,0.4-4.1c-1-5.9-0.4-11.4-1.4-17.2
		c5.2-51.3-1.9-58.5-13-86.5c-0.8-2.6-2-6.5-2.9-9.2c0-0.6-5-14.1-5.2-14.8c-7.2-29.3-7.9-45.7-11.2-75.7c-0.2-1.7-0.1-4.6-1.1-5.9
		c-1.3-18.4-2.8-35.1-6.7-53.1c0.1-0.8-0.8-1.5-0.7-2.3c1.7-1.1,1.8-3.4,1.5-6c-0.2-2.8-0.6-5.3-1.6-8c-0.4-1.1-1-2-1.7-2.8
		c-1.9-5.3-4-10.5-6.2-15.6c-3.3-7.5-7.6-14.6-11.1-22c-7.4-15.7,0.8-30.9,8.7-44.5c0.3-0.2,0.6-0.5,0.8-0.8
		c5.1-6.5,8.9-13.6,10.8-21.5c0.1,0.2,0.1,0.4,0.2,0.6c3.1,8.7,5,16.8,8.9,25.1c1,3.6,1.9,7.5,3.1,11c-1.1,2.7-0.8,5.3-0.3,8.8
		c0.8,4.9,4.1,10,6.6,14.2c2.8,4.6,5.1,8.6,7.9,13.2c0.2,0.3,0.3,0.5,0.4,0.8c-0.4,1.2,0.8,2.5,1.1,4c1.8,6.8,3.6,13.7,5.5,20.5
		c0.1,0.2,0.1,0.5,0.2,0.7c0.1,2.6,0.2,5.3,0.3,7.9c0,0.4,0.1,0.8,0.1,1.2c-6.3,11.5-10.2,20-9.2,33.2c0.1,1.1,1.1,6.4,1.5,7.2
		c-2.1,4.1-1,7.5,5,7.5c0.6,0,9-7.9,3.9,2.2c-0.5,0.9-1.1,3.6-1.6,4.5C204.9,399.4,211.2,403.8,217,397.7z M81.7,391.2
		C81.8,391.3,81.8,391.3,81.7,391.2c-0.1,4.4-0.4,8.7-0.6,13c0-0.7,0-1.4,0-2.1c0-1.2,1.4-2.1,1.4-3.3
		C82.7,396.4,81.5,393.7,81.7,391.2z M110.4,303.6c0,0.2,0,0.5,0.1,0.7c-0.1-0.4,1-0.7,0.8-1c0.1-0.6-1.1-1.2-1-1.8
		C110.3,302.2,110.3,302.9,110.4,303.6z M81.1,414.8c0.1,0.3-0.7,0.5-0.5,0.8c-0.1,0.3,0.7,0.5,0.5,0.8
		C81.1,415.8,81.1,415.3,81.1,414.8z M170.3,216.2c0,0.2,0.1,0.3,0.1,0.5c-0.1,0,0.7-0.4,0.6-0.5
		C171.1,216.1,170.3,216.3,170.3,216.2z M160.9,363.6c-0.2-1.1-2-1.9-2.2-3c0.1,0.1,0.2,0.2,0.3,0.3c0.4,2.2,0.9,4.5,1.2,6.7
		C160,366.4,161.2,364.8,160.9,363.6z"/>
</g>
<g id="Laag_2_3_" class="st0">
	<path class="st3" d="M216.8,397c3.1-3.2,8.4-1.9,8.8-6.5c3.2-0.3,7.1-9.6,7.2-13.8c0.3-14.7-2.1-25-5.6-39.2c0-0.3-0.2-2-0.2-2.3
		c-0.6-6.5-1.4-11.3-2.2-17.8c-0.3-2.7-0.6-5.6-0.8-8.3c-0.1-0.8,0-1.2-0.2-1.8c-0.4-2.7-0.8-5.4-1.2-8.1c0-0.3,0.5-1.3-0.9-1.6
		c1.3-1.5,1.1-3.4,0.1-5.7c-6.4-16-9.2-32.6-13.8-49.2c-2.2-8-4.7-16.3-6.3-24.5c-1.5-7.6-3.1-14.9-3.6-22.6
		c-0.4-6.8-1.3-13.8-4.9-19.7c-2-3.3-4.9-5.3-7.9-5.5c-0.7-1.8-2.2-3.3-4.5-3.8c-6.3-1.4-13.2-2.2-19.2-4.4c-3.4-1.3-6-3.8-7.9-6.8
		c0.7-10.6,0.1-21-1.6-31.5c-0.1-0.7-0.4-1.3-0.7-1.9c12.5-14,22.9-31.3,23.7-50.8c1.3-6.5-3.7-28.7-12.8-40.8
		c-24-7.9-30.4-8.5-44.7-8.3c-8.2,0.1-26.9,3.2-34.1,7.8c1.3,2.3-3.2,7-8.2,12.5c-2.6,1.3-4.7,3.6-5.1,6.6c-0.4,3.2,1.1,6.2,3.5,7.8
		C71.1,72,73,86.3,76.4,101.4c0.4,1.9,0,4.2,1.4,5c-0.3,5.2-1.5,8.7,0.5,13.7c0.8,1.9,3.9,5,5.3,5.8c3.7,5.2,6,10,10.5,14.5
		c1.1,6.1,7,11.6,13.8,12.1c1.7,0.1,5-1.2,6.7-1.4c0,0.1,0,0.2,0,0.3c-0.4,2.9-0.5,5.7-0.5,8.5c-0.1,0.5-0.1,1.1-0.2,1.6
		c-9.3,2-18.7,3.9-28,5.9c-7.9,1.7-14.6,5-18.2,12.7c-1.5,3.3-2.4,6.8-4.1,10c-1.8,3.4-4.2,6.6-6.4,9.7c-4-3.6-9.9-6-14.4-5.7
		c-8.7,0.6-14.9,13-18.4,19.8c-1.6,3.2-0.9,6.1,0.9,8c-1.4,5.6-3.1,11.1-5.1,16.6c-2.9,7.7-7.6,14.9-10.1,22.6
		c-2.3,7-1.6,17.3,5.5,20.7c5.6,2.7,11.6-1.9,15.9-5.5c7.2-1.7,16.5-9.1,20.7-12.9c4.9-4.3,8-9.6,12-14.7c0.1,0,0.2,0,0.3,0.1
		c0.7,1.5-0.4,3.1,0.4,4.5c0.8,14,3.8,27.8,5.6,41.7c0.9,7.3,2,14.6,3.1,21.9c0.1,0.8,0.3,1.7,0.4,2.5c-1.3,7.4-2.6,14.8-3.9,22.2
		c-0.2,1.3-0.2,2.4,0.1,3.4c-1.2,3.4-1.9,6.9-2.2,10.6c-0.8,1-1.3,2.3-1.3,3.9c0,12.7-1.7,25.4-1.7,38.1c-0.6,8.7-0.6,16.9-0.6,25.6
		c-0.6,0.9-0.6,2.4-0.7,3.7c-1.3,17.4-1.1,34.9,2.9,51.5c0.2,2.3-1.3,4.4-1.1,6.7c-1.4,5,1.1,10.2,3.6,14.7c0.5,1-0.2,2.2,0.6,2.8
		c0.7,4.1,3.2,7.6,4.1,11.7c2,8.8,3.9,17.5,5.6,26.3c2.9,14.7,3,29.4,5.1,44.2c-0.1,0.3-1.5,3.6,0,2.8c-1.7,8.9-2.4,16.2-2.9,25.2
		c-0.5,2.7,1,5.3,0.9,8c-1.1,1.6-2.2,3.2-3.2,4.8c-1.2,1.8-3.9,0.3-3.5,1.8c-0.3,0.1-1.9,2.5-2.2,2.6c-7.1,3.9-11.3,9-19.1,12.8
		c-7.6,2.9-15,5.9-23.2,7.1c-2.7,0.4-4.2,2-4.8,4.1c-1.8,0.1-3.7,0.2-5.5,0.3c-7.5,0.4-10,12.1-1.9,13.7c18.5,3.9,36.8,1,55.1-2.2
		c8.6-1.5,18.1-2,26.9-2.6c7.8-0.6,14.6-3.5,15.4-12.7c0.5-6.6,1-18.1-4.9-22.2c1-4.4-1.2-8.9-1.4-13.5c-0.1-1.6-0.6-2.9-1.4-4
		c-0.1-1.8-0.1-3.7-0.2-5.5c0.9-1.1,1.6-2.5,1.8-4.2c0.4-4,0.6-8,0.5-12c0.9-0.9,1.7-2,2.2-3.3c3.3-7.7,4.5-16,5.1-24.3
		c0.5-8.1,0.9-16.6-0.1-24.7c-0.8-6-2.1-11.7-4.6-17.1c-2.3-9-5.8-17.5-8.8-26.3c0.8-13.8,3.9-27.9,6.1-41.5
		c2.4-14.3,6.8-25.8,9.8-40c1-4.7,0.7-12,0.9-16.7c5.8,20.6,9.9,41,16.6,61.3c0,0.1,0.7,0.9,0.8,1c0,0.1-0.1,1.2-0.1,1.3
		c2.7,11.6,6.5,22.4,13.6,32.3c-1.1,1.8-1.3,4.2,0.4,6.6c2.4,3.5,4.8,7,7.2,10.5c0.4,0.5,0.8,1,1.3,1.4c2.8,5,3.6,10.3,6.8,15.1
		c3.6,10.3,9.4,20.3,12.8,31.2c0.6,2.2,1.3,5,2,7.3c0.2,0.5,0.3,1.3,0.5,1.8c2.2,10.8,6.3,20.9,8.5,31.7c0,0.1,0,0.1,0.1,0.2
		c0.9,8.9-0.9,15,0.6,23.9c-1.3,1.3,0.7,5.8,0.6,7.7c-0.1,1.7-0.2,3.4-0.3,5.1c-1.1,0.8-2,2-2.5,3.4c-3.8,11.1-8.5,19.5-14.6,29.5
		c0-2-2,0.5-1.1,1.4c-2.1,0.2-3.7,2.3-5.3,4.1c-4.3,5-2,12.3,3.1,15.6c5.4,3.5,11.4,2.5,17.4,1.6c7.6-1.1,15.3-2.2,22.9-3.3
		c6-0.9,12.5-2,14.5-8.8c1.7-5.9-1.7-12.7-3.6-18.3c-0.6-1.7-0.4-2.9-1-4.6c-0.3-0.9-0.2-1.8-0.6-2.7c0.8-1.4-0.1-3.4-0.5-5.3
		c-1.7-8.6-2.1-17.1-4.3-25.6c-0.1-0.5-1.9-0.9-2.1-1.3c0.5-1.2,0.7-2.6,0.4-4.1c-1-5.9-0.4-11.4-1.4-17.2
		c5.2-51.3-1.9-58.5-13-86.5c-0.8-2.6-2-6.5-2.9-9.2c0-0.6-5-14.1-5.2-14.8c-7.2-29.3-7.9-45.7-11.2-75.7c-0.2-1.7-0.1-4.6-1.1-5.9
		c-1.3-18.4-2.8-35.1-6.7-53.1c0.1-0.8-0.8-1.5-0.7-2.3c1.7-1.1,1.8-3.4,1.5-6c-0.2-2.8-0.6-5.3-1.6-8c-0.4-1.1-1-2-1.7-2.8
		c-1.9-5.3-4-10.5-6.2-15.6c-3.3-7.5-7.6-14.6-11.1-22c-7.4-15.7,0.8-30.9,8.7-44.5c0.3-0.2,0.6-0.5,0.8-0.8
		c5.1-6.5,8.9-13.6,10.8-21.5c0.1,0.2,0.1,0.4,0.2,0.6c3.1,8.7,5,16.8,8.9,25.1c1,3.6,1.9,7.5,3.1,11c-1.1,2.7-0.8,5.3-0.3,8.8
		c0.8,4.9,4.1,10,6.6,14.2c2.8,4.6,5.1,8.6,7.9,13.2c0.2,0.3,0.3,0.5,0.4,0.8c-0.4,1.2,0.8,2.5,1.1,4c1.8,6.8,3.6,13.7,5.5,20.5
		c0.1,0.2,0.1,0.5,0.2,0.7c0.1,2.6,0.2,5.3,0.3,7.9c0,0.4,0.1,0.8,0.1,1.2c-6.3,11.5-10.2,20-9.2,33.2c0.1,1.1,1.1,6.4,1.5,7.2
		c-2.1,4.1-1,7.5,5,7.5c0.6,0,9-7.9,3.9,2.2c-0.5,0.9-1.1,3.6-1.6,4.5C204.6,398.7,211,403.1,216.8,397z M81.4,390.5
		C81.5,390.6,81.5,390.6,81.4,390.5c-0.1,4.4-0.4,8.7-0.6,13c0-0.7,0-1.4,0-2.1c0-1.2,1.4-2.1,1.4-3.3
		C82.4,395.7,81.2,393,81.4,390.5z M110.1,302.9c0,0.2,0,0.5,0.1,0.7c-0.1-0.4,1-0.7,0.8-1c0.1-0.6-1.1-1.2-1-1.8
		C110,301.5,110,302.2,110.1,302.9z M80.8,414.1c0.1,0.3-0.7,0.5-0.5,0.8c-0.1,0.3,0.7,0.5,0.5,0.8
		C80.8,415.1,80.8,414.6,80.8,414.1z M170,215.5c0,0.2,0.1,0.3,0.1,0.5c-0.1,0,0.7-0.4,0.6-0.5C170.8,215.4,170,215.6,170,215.5z
		 M160.6,362.9c-0.2-1.1-2-1.9-2.2-3c0.1,0.1,0.2,0.2,0.3,0.3c0.4,2.2,0.9,4.5,1.2,6.7C159.7,365.7,160.9,364.1,160.6,362.9z"/>
</g>
<g id="Laag_2_4_" class="st0">
	<path class="st4" d="M216.8,397.7c3.1-3.2,8.4-1.9,8.8-6.5c3.2-0.3,7.1-9.6,7.2-13.8c0.3-14.7-2.1-25-5.6-39.2c0-0.3-0.2-2-0.2-2.3
		c-0.6-6.5-1.4-11.3-2.2-17.8c-0.3-2.7-0.6-5.6-0.8-8.3c-0.1-0.8,0-1.2-0.2-1.8c-0.4-2.7-0.8-5.4-1.2-8.1c0-0.3,0.5-1.3-0.9-1.6
		c1.3-1.5,1.1-3.4,0.1-5.7c-6.4-16-9.2-32.6-13.8-49.2c-2.2-8-4.7-16.3-6.3-24.5c-1.5-7.6-3.1-14.9-3.6-22.6
		c-0.4-6.8-1.3-13.8-4.9-19.7c-2-3.3-4.9-5.3-7.9-5.5c-0.7-1.8-2.2-3.3-4.5-3.8c-6.3-1.4-13.2-2.2-19.2-4.4c-3.4-1.3-6-3.8-7.9-6.8
		c0.7-10.6,0.1-21-1.6-31.5c-0.1-0.7-0.4-1.3-0.7-1.9c12.5-14,22.9-31.3,23.7-50.8c1.3-6.5-3.7-28.7-12.8-40.8
		c-24-7.9-30.4-8.5-44.7-8.3c-8.2,0.1-26.9,3.2-34.1,7.8c1.3,2.3-3.2,7-8.2,12.5c-2.6,1.3-4.7,3.6-5.1,6.6c-0.4,3.2,1.1,6.2,3.5,7.8
		c-2.5,15.3-0.6,29.6,2.8,44.7c0.4,1.9,0,4.2,1.4,5c-0.3,5.2-1.5,8.7,0.5,13.7c0.8,1.9,3.9,5,5.3,5.8c3.7,5.2,6,10,10.5,14.5
		c1.1,6.1,7,11.6,13.8,12.1c1.7,0.1,5-1.2,6.7-1.4c0,0.1,0,0.2,0,0.3c-0.4,2.9-0.5,5.7-0.5,8.5c-0.1,0.5-0.1,1.1-0.2,1.6
		c-9.3,2-18.7,3.9-28,5.9c-7.9,1.7-14.6,5-18.2,12.7c-1.5,3.3-2.4,6.8-4.1,10c-1.8,3.4-4.2,6.6-6.4,9.7c-4-3.6-9.9-6-14.4-5.7
		c-8.7,0.6-14.9,13-18.4,19.8c-1.6,3.2-0.9,6.1,0.9,8c-1.4,5.6-3.1,11.1-5.1,16.6c-2.9,7.7-7.6,14.9-10.1,22.6
		c-2.3,7-1.6,17.3,5.5,20.7c5.6,2.7,11.6-1.9,15.9-5.5c7.2-1.7,16.5-9.1,20.7-12.9c4.9-4.3,8-9.6,12-14.7c0.1,0,0.2,0,0.3,0.1
		c0.7,1.5-0.4,3.1,0.4,4.5c0.8,14,3.8,27.8,5.6,41.7c0.9,7.3,2,14.6,3.1,21.9c0.1,0.8,0.3,1.7,0.4,2.5c-1.3,7.4-2.6,14.8-3.9,22.2
		c-0.2,1.3-0.2,2.4,0.1,3.4c-1.2,3.4-1.9,6.9-2.2,10.6c-0.8,1-1.3,2.3-1.3,3.9c0,12.7-1.7,25.4-1.7,38.1c-0.6,8.7-0.6,16.9-0.6,25.6
		c-0.6,0.9-0.6,2.4-0.7,3.7c-1.3,17.4-1.1,34.9,2.9,51.5c0.2,2.3-1.3,4.4-1.1,6.7c-1.4,5,1.1,10.2,3.6,14.7c0.5,1-0.2,2.2,0.6,2.8
		c0.7,4.1,3.2,7.6,4.1,11.7c2,8.8,3.9,17.5,5.6,26.3c2.9,14.7,3,29.4,5.1,44.2c-0.1,0.3-1.5,3.6,0,2.8c-1.7,8.9-2.4,16.2-2.9,25.2
		c-0.5,2.7,1,5.3,0.9,8c-1.1,1.6-2.2,3.2-3.2,4.8c-1.2,1.8-3.9,0.3-3.5,1.8c-0.3,0.1-1.9,2.5-2.2,2.6c-7.1,3.9-11.3,9-19.1,12.8
		c-7.6,2.9-15,5.9-23.2,7.1c-2.7,0.4-4.2,2-4.8,4.1c-1.8,0.1-3.7,0.2-5.5,0.3c-7.5,0.4-10,12.1-1.9,13.7c18.5,3.9,36.8,1,55.1-2.2
		c8.6-1.5,18.1-2,26.9-2.6c7.8-0.6,14.6-3.5,15.4-12.7c0.5-6.6,1-18.1-4.9-22.2c1-4.4-1.2-8.9-1.4-13.5c-0.1-1.6-0.6-2.9-1.4-4
		c-0.1-1.8-0.1-3.7-0.2-5.5c0.9-1.1,1.6-2.5,1.8-4.2c0.4-4,0.6-8,0.5-12c0.9-0.9,1.7-2,2.2-3.3c3.3-7.7,4.5-16,5.1-24.3
		c0.5-8.1,0.9-16.6-0.1-24.7c-0.8-6-2.1-11.7-4.6-17.1c-2.3-9-5.8-17.5-8.8-26.3c0.8-13.8,3.9-27.9,6.1-41.5
		c2.4-14.3,6.8-25.8,9.8-40c1-4.7,0.7-12,0.9-16.7c5.8,20.6,9.9,41,16.6,61.3c0,0.1,0.7,0.9,0.8,1c0,0.1-0.1,1.2-0.1,1.3
		c2.7,11.6,6.5,22.4,13.6,32.3c-1.1,1.8-1.3,4.2,0.4,6.6c2.4,3.5,4.8,7,7.2,10.5c0.4,0.5,0.8,1,1.3,1.4c2.8,5,3.6,10.3,6.8,15.1
		c3.6,10.3,9.4,20.3,12.8,31.2c0.6,2.2,1.3,5,2,7.3c0.2,0.5,0.3,1.3,0.5,1.8c2.2,10.8,6.3,20.9,8.5,31.7c0,0.1,0,0.1,0.1,0.2
		c0.9,8.9-0.9,15,0.6,23.9c-1.3,1.3,0.7,5.8,0.6,7.7c-0.1,1.7-0.2,3.4-0.3,5.1c-1.1,0.8-2,2-2.5,3.4c-3.8,11.1-8.5,19.5-14.6,29.5
		c0-2-2,0.5-1.1,1.4c-2.1,0.2-3.7,2.3-5.3,4.1c-4.3,5-2,12.3,3.1,15.6c5.4,3.5,11.4,2.5,17.4,1.6c7.6-1.1,15.3-2.2,22.9-3.3
		c6-0.9,12.5-2,14.5-8.8c1.7-5.9-1.7-12.7-3.6-18.3c-0.6-1.7-0.4-2.9-1-4.6c-0.3-0.9-0.2-1.8-0.6-2.7c0.8-1.4-0.1-3.4-0.5-5.3
		c-1.7-8.6-2.1-17.1-4.3-25.6c-0.1-0.5-1.9-0.9-2.1-1.3c0.5-1.2,0.7-2.6,0.4-4.1c-1-5.9-0.4-11.4-1.4-17.2
		c5.2-51.3-1.9-58.5-13-86.5c-0.8-2.6-2-6.5-2.9-9.2c0-0.6-5-14.1-5.2-14.8c-7.2-29.3-7.9-45.7-11.2-75.7c-0.2-1.7-0.1-4.6-1.1-5.9
		c-1.3-18.4-2.8-35.1-6.7-53.1c0.1-0.8-0.8-1.5-0.7-2.3c1.7-1.1,1.8-3.4,1.5-6c-0.2-2.8-0.6-5.3-1.6-8c-0.4-1.1-1-2-1.7-2.8
		c-1.9-5.3-4-10.5-6.2-15.6c-3.3-7.5-7.6-14.6-11.1-22c-7.4-15.7,0.8-30.9,8.7-44.5c0.3-0.2,0.6-0.5,0.8-0.8
		c5.1-6.5,8.9-13.6,10.8-21.5c0.1,0.2,0.1,0.4,0.2,0.6c3.1,8.7,5,16.8,8.9,25.1c1,3.6,1.9,7.5,3.1,11c-1.1,2.7-0.8,5.3-0.3,8.8
		c0.8,4.9,4.1,10,6.6,14.2c2.8,4.6,5.1,8.6,7.9,13.2c0.2,0.3,0.3,0.5,0.4,0.8c-0.4,1.2,0.8,2.5,1.1,4c1.8,6.8,3.6,13.7,5.5,20.5
		c0.1,0.2,0.1,0.5,0.2,0.7c0.1,2.6,0.2,5.3,0.3,7.9c0,0.4,0.1,0.8,0.1,1.2c-6.3,11.5-10.2,20-9.2,33.2c0.1,1.1,1.1,6.4,1.5,7.2
		c-2.1,4.1-1,7.5,5,7.5c0.6,0,9-7.9,3.9,2.2c-0.5,0.9-1.1,3.6-1.6,4.5C204.6,399.4,211,403.8,216.8,397.7z M81.4,391.2
		C81.5,391.3,81.5,391.3,81.4,391.2c-0.1,4.4-0.4,8.7-0.6,13c0-0.7,0-1.4,0-2.1c0-1.2,1.4-2.1,1.4-3.3
		C82.4,396.4,81.2,393.7,81.4,391.2z M110.1,303.6c0,0.2,0,0.5,0.1,0.7c-0.1-0.4,1-0.7,0.8-1c0.1-0.6-1.1-1.2-1-1.8
		C110,302.2,110,302.9,110.1,303.6z M80.8,414.8c0.1,0.3-0.7,0.5-0.5,0.8c-0.1,0.3,0.7,0.5,0.5,0.8
		C80.8,415.8,80.8,415.3,80.8,414.8z M170,216.2c0,0.2,0.1,0.3,0.1,0.5c-0.1,0,0.7-0.4,0.6-0.5C170.8,216.1,170,216.3,170,216.2z
		 M160.6,363.6c-0.2-1.1-2-1.9-2.2-3c0.1,0.1,0.2,0.2,0.3,0.3c0.4,2.2,0.9,4.5,1.2,6.7C159.7,366.4,160.9,364.8,160.6,363.6z"/>
</g>
<g id="Laag_2_5_" class="st0">
	<path class="st5" d="M217.3,397.7c3.1-3.2,8.4-1.9,8.8-6.5c3.2-0.3,7.1-9.6,7.2-13.8c0.3-14.7-2.1-25-5.6-39.2c0-0.3-0.2-2-0.2-2.3
		c-0.6-6.5-1.4-11.3-2.2-17.8c-0.3-2.7-0.6-5.6-0.8-8.3c-0.1-0.8,0-1.2-0.2-1.8c-0.4-2.7-0.8-5.4-1.2-8.1c0-0.3,0.5-1.3-0.9-1.6
		c1.3-1.5,1.1-3.4,0.1-5.7c-6.4-16-9.2-32.6-13.8-49.2c-2.2-8-4.7-16.3-6.3-24.5c-1.5-7.6-3.1-14.9-3.6-22.6
		c-0.4-6.8-1.3-13.8-4.9-19.7c-2-3.3-4.9-5.3-7.9-5.5c-0.7-1.8-2.2-3.3-4.5-3.8c-6.3-1.4-13.2-2.2-19.2-4.4c-3.4-1.3-6-3.8-7.9-6.8
		c0.7-10.6,0.1-21-1.6-31.5c-0.1-0.7-0.4-1.3-0.7-1.9c12.5-14,22.9-31.3,23.7-50.8c1.3-6.5-3.7-28.7-12.8-40.8
		c-24-7.9-30.4-8.5-44.7-8.3c-8.2,0.1-26.9,3.2-34.1,7.8c1.3,2.3-3.2,7-8.2,12.5c-2.6,1.3-4.7,3.6-5.1,6.6c-0.4,3.2,1.1,6.2,3.5,7.8
		c-2.5,15.3-0.6,29.6,2.8,44.7c0.4,1.9,0,4.2,1.4,5c-0.3,5.2-1.5,8.7,0.5,13.7c0.8,1.9,3.9,5,5.3,5.8c3.7,5.2,6,10,10.5,14.5
		c1.1,6.1,7,11.6,13.8,12.1c1.7,0.1,5-1.2,6.7-1.4c0,0.1,0,0.2,0,0.3c-0.4,2.9-0.5,5.7-0.5,8.5c-0.1,0.5-0.1,1.1-0.2,1.6
		c-9.3,2-18.7,3.9-28,5.9c-7.9,1.7-14.6,5-18.2,12.7c-1.5,3.3-2.4,6.8-4.1,10c-1.8,3.4-4.2,6.6-6.4,9.7c-4-3.6-9.9-6-14.4-5.7
		c-8.7,0.6-14.9,13-18.4,19.8c-1.6,3.2-0.9,6.1,0.9,8c-1.4,5.6-3.1,11.1-5.1,16.6c-2.9,7.7-7.6,14.9-10.1,22.6
		c-2.3,7-1.6,17.3,5.5,20.7c5.6,2.7,11.6-1.9,15.9-5.5c7.2-1.7,16.5-9.1,20.7-12.9c4.9-4.3,8-9.6,12-14.7c0.1,0,0.2,0,0.3,0.1
		c0.7,1.5-0.4,3.1,0.4,4.5c0.8,14,3.8,27.8,5.6,41.7c0.9,7.3,2,14.6,3.1,21.9c0.1,0.8,0.3,1.7,0.4,2.5c-1.3,7.4-2.6,14.8-3.9,22.2
		c-0.2,1.3-0.2,2.4,0.1,3.4c-1.2,3.4-1.9,6.9-2.2,10.6c-0.8,1-1.3,2.3-1.3,3.9c0,12.7-1.7,25.4-1.7,38.1C65,407.1,65,415.3,65,424
		c-0.6,0.9-0.6,2.4-0.7,3.7C62.8,445,63,462.4,67,479c0.2,2.3-1.3,4.4-1.1,6.7c-1.4,5,1.1,10.2,3.6,14.7c0.5,1-0.2,2.2,0.6,2.8
		c0.7,4.1,3.2,7.6,4.1,11.7c2,8.8,3.9,17.5,5.6,26.3c2.9,14.7,3,29.4,5.1,44.2c-0.1,0.3-1.5,3.6,0,2.8c-1.7,8.9-2.4,16.2-2.9,25.2
		c-0.5,2.7,1,5.3,0.9,8c-1.1,1.6-2.2,3.2-3.2,4.8c-1.2,1.8-3.9,0.3-3.5,1.8c-0.3,0.1-1.9,2.5-2.2,2.6c-7.1,3.9-11.3,9-19.1,12.8
		c-7.6,2.9-15,5.9-23.2,7.1c-2.7,0.4-4.2,2-4.8,4.1c-1.8,0.1-3.7,0.2-5.5,0.3c-7.5,0.4-10,12.1-1.9,13.7c18.5,3.9,36.8,1,55.1-2.2
		c8.6-1.5,18.1-2,26.9-2.6c7.8-0.6,14.6-3.5,15.4-12.7c0.5-6.6,1-18.1-4.9-22.2c1-4.4-1.2-8.9-1.4-13.5c-0.1-1.6-0.6-2.9-1.4-4
		c-0.1-1.8-0.1-3.7-0.2-5.5c0.9-1.1,1.6-2.5,1.8-4.2c0.4-4,0.6-8,0.5-12c0.9-0.9,1.7-2,2.2-3.3c3.3-7.7,4.5-16,5.1-24.3
		c0.5-8.1,0.9-16.6-0.1-24.7c-0.8-6-2.1-11.7-4.6-17.1c-2.3-9-5.8-17.5-8.8-26.3c0.8-13.8,3.9-27.9,6.1-41.5
		c2.4-14.3,6.8-25.8,9.8-40c1-4.7,0.7-12,0.9-16.7c5.8,20.6,9.9,41,16.6,61.3c0,0.1,0.7,0.9,0.8,1c0,0.1-0.1,1.2-0.1,1.3
		c2.7,11.6,6.5,22.4,13.6,32.3c-1.1,1.8-1.3,4.2,0.4,6.6c2.4,3.5,4.8,7,7.2,10.5c0.4,0.5,0.8,1,1.3,1.4c2.8,5,3.6,10.3,6.8,15.1
		c3.6,10.3,9.4,20.3,12.8,31.2c0.6,2.2,1.3,5,2,7.3c0.2,0.5,0.3,1.3,0.5,1.8c2.2,10.8,6.3,20.9,8.5,31.7c0,0.1,0,0.1,0.1,0.2
		c0.9,8.9-0.9,15,0.6,23.9c-1.3,1.3,0.7,5.8,0.6,7.7c-0.1,1.7-0.2,3.4-0.3,5.1c-1.1,0.8-2,2-2.5,3.4c-3.8,11.1-8.5,19.5-14.6,29.5
		c0-2-2,0.5-1.1,1.4c-2.1,0.2-3.7,2.3-5.3,4.1c-4.3,5-2,12.3,3.1,15.6c5.4,3.5,11.4,2.5,17.4,1.6c7.6-1.1,15.3-2.2,22.9-3.3
		c6-0.9,12.5-2,14.5-8.8c1.7-5.9-1.7-12.7-3.6-18.3c-0.6-1.7-0.4-2.9-1-4.6c-0.3-0.9-0.2-1.8-0.6-2.7c0.8-1.4-0.1-3.4-0.5-5.3
		c-1.7-8.6-2.1-17.1-4.3-25.6c-0.1-0.5-1.9-0.9-2.1-1.3c0.5-1.2,0.7-2.6,0.4-4.1c-1-5.9-0.4-11.4-1.4-17.2
		c5.2-51.3-1.9-58.5-13-86.5c-0.8-2.6-2-6.5-2.9-9.2c0-0.6-5-14.1-5.2-14.8c-7.2-29.3-7.9-45.7-11.2-75.7c-0.2-1.7-0.1-4.6-1.1-5.9
		c-1.3-18.4-2.8-35.1-6.7-53.1c0.1-0.8-0.8-1.5-0.7-2.3c1.7-1.1,1.8-3.4,1.5-6c-0.2-2.8-0.6-5.3-1.6-8c-0.4-1.1-1-2-1.7-2.8
		c-1.9-5.3-4-10.5-6.2-15.6c-3.3-7.5-7.6-14.6-11.1-22c-7.4-15.7,0.8-30.9,8.7-44.5c0.3-0.2,0.6-0.5,0.8-0.8
		c5.1-6.5,8.9-13.6,10.8-21.5c0.1,0.2,0.1,0.4,0.2,0.6c3.1,8.7,5,16.8,8.9,25.1c1,3.6,1.9,7.5,3.1,11c-1.1,2.7-0.8,5.3-0.3,8.8
		c0.8,4.9,4.1,10,6.6,14.2c2.8,4.6,5.1,8.6,7.9,13.2c0.2,0.3,0.3,0.5,0.4,0.8c-0.4,1.2,0.8,2.5,1.1,4c1.8,6.8,3.6,13.7,5.5,20.5
		c0.1,0.2,0.1,0.5,0.2,0.7c0.1,2.6,0.2,5.3,0.3,7.9c0,0.4,0.1,0.8,0.1,1.2c-6.3,11.5-10.2,20-9.2,33.2c0.1,1.1,1.1,6.4,1.5,7.2
		c-2.1,4.1-1,7.5,5,7.5c0.6,0,9-7.9,3.9,2.2c-0.5,0.9-1.1,3.6-1.6,4.5C205.1,399.4,211.5,403.8,217.3,397.7z M81.9,391.2
		C82,391.3,82,391.3,81.9,391.2c-0.1,4.4-0.4,8.7-0.6,13c0-0.7,0-1.4,0-2.1c0-1.2,1.4-2.1,1.4-3.3C82.9,396.4,81.7,393.7,81.9,391.2
		z M110.6,303.6c0,0.2,0,0.5,0.1,0.7c-0.1-0.4,1-0.7,0.8-1c0.1-0.6-1.1-1.2-1-1.8C110.5,302.2,110.5,302.9,110.6,303.6z M81.3,414.8
		c0.1,0.3-0.7,0.5-0.5,0.8c-0.1,0.3,0.7,0.5,0.5,0.8C81.3,415.8,81.3,415.3,81.3,414.8z M170.5,216.2c0,0.2,0.1,0.3,0.1,0.5
		c-0.1,0,0.7-0.4,0.6-0.5C171.3,216.1,170.5,216.3,170.5,216.2z M161.1,363.6c-0.2-1.1-2-1.9-2.2-3c0.1,0.1,0.2,0.2,0.3,0.3
		c0.4,2.2,0.9,4.5,1.2,6.7C160.2,366.4,161.4,364.8,161.1,363.6z"/>
</g>
<g>
	<path d="M77.6,98.5c0.1,5.2-0.2,10.4,0.1,15.6c0.3,4.5,2.8,8.2,5.5,11.6c6.1,7.6,11,16.3,18.2,23c0.7,0.6,1.4,1.6,2.1,1.6
		c6.9,0.1,13.9,2.4,20-4.1c7.1-7.4,15.6-13.4,23.1-20.5c3.1-2.9,3.7-6.3,4.3-9.9c0.7-4.4,1.3-8.9,2.6-13.2c0,1.6,0,3.1,0,4.7
		c0,1.8,0,3.9,2.1,4.2c1.9,0.3,4.3-0.1,5.2-2.1c2.7-6.5,5.8-12.9,4.6-20.3l-0.1,0.1c0.9,0.9,1.9,1.8,2.9,2.7
		c1.6-1.9,0.9-4.3,1.4-6.3c1.4-6.3,2.7-12.6,5-18.7c0.6-1.7,0.8-3.3,0-5c-3.3-7.6-6.6-15.2-9.9-22.8c-0.5-1.1-1.4-2.4-1.1-3.3
		c1.6-4.6-1.8-5.1-4.6-6.1c-2.7-0.9-2-3.1-2.2-5c-0.1-1.2,0.5-2.1,1.8-2.2c2.3-0.3,3.1,1.4,4.2,3c6.4,9.6,7.7,21.1,11.5,31.7
		c1.4,4,2.4,8.2,3,12.4c0.7,4.6-1.2,8.9-2.4,13.2c-2.6,9.4-5.2,18.8-10.3,27.3c-1.7,2.8-4.2,3.3-6.8,4.3c-1,0.4-2.7,0.3-0.5,1.6
		c1.1,0.6,0.3,1.1-0.1,1.5c-2.3,1.9-2.1,4.3-2,6.9c0.1,5.9,0.3,11.7,0.1,17.6c-0.2,4.4,1.5,8.3,2.1,12.5c0.2,1.4,1,2.5,2.3,3.1
		c4.4,2.1,8.4,4.7,13.4,5.8c6.2,1.3,12.5,3.3,17.4,7.2c5.2,4.1,7.7,10.4,8.9,17.1c1.3,7,0.6,14.1,2.1,21.2
		c1.7,7.6,4.8,14.7,6.7,22.2c0.8,3,0.9,6.3,1.9,9.2c3.8,11,5.6,22.6,9.9,33.6c5.6,14.6,7.3,30.2,7.6,45.8c0.2,9.6,2.3,18.8,4.5,28
		c1.8,8,2.1,16.2,3.2,24.2c0.1,0.8,0,1.6,0.8,2.1c0,1.1,0,2.1,0,3.2c-2.7,0.2-2,3-3.2,4.4c-2.3,2.5-4.1,5.3-4.6,9.1
		c-0.5,4.2-3.7,5.7-8.1,4.7c-1.5-0.3-1.5,0.7-1.9,1.3c-0.8,1.1-1.4,2.3-2.7,2.8c-0.6,0.2-1.4,0.2-1.9-0.1c-0.8-0.5-0.2-1.2,0.1-1.7
		c1.3-2.4,1.9-5.4,4.4-6.9c1.7-1,1.2-2.5,1.3-3.9c0.1-5.4,0-10.8,0.3-16.2c0.1-1.5,0-4.3,1.9-4.1c1.6,0.1,1.7,2.8,1.4,4.4
		c-1.2,6.8-0.1,13.5-0.7,20.5c3.4-0.5,4.4-2.4,4.4-5.5c0-5.6-0.2-11.2,1.6-17.6c1.2,4.1-0.2,7.4,0.7,11c2.1-2.8,3.6-4.9,2.7-8.8
		c-1.6-7.1-1.1-14.6-2.9-21.6c-4.6-17.8-4.6-36.2-7.8-54.2c-1.8-10.5-6.2-20.1-8.9-30.3c-2.8-10.6-4.8-21.4-7.3-32.1
		c-1.4-6.1-4.2-11.9-5.6-18.1c-2-9.1-3-18.4-3.8-27.7c-0.5-5.9-4.4-9.6-7.7-13.7c-1.6-2-3.7-1.3-5.2,0.9
		c-4.9,7.1-10.3,13.8-14.6,21.2c-7.6,12.9-10.3,26.8-6.3,41.6c0.2,0.6,0.4,1.3,0.7,1.8c2.9,5.3,4,5.2,7.4,0.3
		c2.5-3.6,4.7-6.8,1.9-11.2c-0.7-1.1-0.2-2.9-0.4-5.6c3.2,4,4.8,7.5,6.2,11c4.5,11.1,6.5,23,10.5,34.3c0.1,0.2,0.2,0.5,0.1,0.8
		c-2.3,12.3,4.5,21.1,10.9,30.4c4.3,6.2,6.4,13.6,7.8,21.1c0.4,2.4,0.5,4.8,1.2,7.1c2.2,7.4-0.5,13.6-3.4,20.2
		c-3,6.9-6.1,14.1-3.3,22.2c1.6,4.6,1.6,9.6,1.1,15c3.4-1.5,4.2-3.8,4.1-6.6c-0.1-3.4-1-6.8,1.9-10c1.2-1.3-0.4-3.8-0.8-5.7
		c-0.2-0.9-0.6-1.9,0.7-2.3c1-0.3,1.3,0.5,1.7,1.2c1.5,2.7,2.9,5.3,2.8,8.6c0,6.5,0,13,0.7,19.5c0.2,1.6,1.2,4-2.5,3.9
		c-1.9,0-2.3,4.8-0.5,7.6c-1.8,1-3.1,0-4-1.2c-1.3-1.8-0.8-3.6,0.1-5.5c1.6-3.3,4.7-6.3,2.8-10.6c-1.4,1.2-2.7,2.5-4.2,3.5
		c-3.1,1.9-6,0.6-5.8-2.9c0.3-6.5-1.4-12.6-2.6-18.8c-0.7-3.5-0.2-7.4,1.3-10.9c1.9-4.5,4.1-8.9,6.2-13.3c2-4.1,3.3-8.7,1.7-13.6
		c-1.3-3.8-2.2-7.7-3.1-11.5c-1.9-7.8-5.9-14.4-10.4-20.9c-3.5-5-5.6-10.8-8.2-16.3c-1.8-3.8-0.4-8.3-1.5-12.4
		c-1.2-4.1-2.3-8.3-3.1-12.5c-0.7-4.1-1.4-8.1-3-12c-0.4-0.9,0-2.3-1.4-2.4c-1.2-0.1-1.7,1.1-2.2,2.1c-5,10.8-12.5,20-16,31.8
		c-2.8,9.5-2.1,17.1,2.1,25.4c3.8,7.5,7.4,15.2,10.6,23c4.5,11,6.2,22.7,7.2,34.6c1.2,14.7,3,29.4,4.9,44.1
		c2.5,19.2,2.6,38.7,6.3,57.8c1.1,5.6,2,11.2,2,17c0.1,4.1,1.6,8.2,3.4,11.5c5.3,9.8,8,20.5,11.7,30.9c3.8,10.5,6.8,21.2,9.9,31.9
		c2,6.9,1.4,13.5,1.7,20.3c0.3,8.4-0.2,16.8,0.2,25.2c0.5,10.5,0.4,21.1,4.2,31.1c0.6,1.5,0.9,3.2,0.7,4.7c-1.3,9,3.1,16.9,4.8,25.3
		c1,4.9,2.3,9.8,3.4,14.8c0.4,1.6-0.4,3.1-1,5.5c-5.4-9.9-5.6-20.5-9-30.5c-1.3,1.9-0.7,3.3-0.4,4.7c0.2,1.4,1.2,2.7,0.6,4.7
		c-4.8-8.2,1.1-16.8-2.2-25.7c-1.9,9.2-7.2,14-15.1,16.4c-5.7,1.7-7.7,1.1-11.5-3.6c-2.8,5.8-2.4,13.5-10.1,16.1
		c1,1.1,2,0.5,2.8,0.3c6.5-1.5,12.4-0.6,18.5,2.6c8.6,4.5,12.7,12.8,19,19.3c-2.4,0.6-3.8-0.7-4.8-2.2c-5.2-7.6-12.7-11.7-21-15
		c-1.4-0.6-3.6-0.7-3.9-3.2c-0.1-0.8-1.7-0.9-2.8-0.9c-7.9-0.1-11.9,5.4-15.7,11c-1.2,1.7-2.2,3.7-2.9,5.7c-1.1,3.1-3.8,2.6-6,2.7
		c-1.6,0-1-1.4-0.7-2.4c2-5,4.9-9.8,8.8-13.1c6.3-5.3,8.2-12.5,11-19.4c2.2-5.2,2.3-11.2,6.1-15.8c0.9-1.1,1.1-2.4,1-3.8
		c0-1.3,0.3-2,1.8-1.9c1.4,0.2,1.2,1.1,1.1,2.1c-0.4,3.2-0.8,6.3-1.1,9.5c-0.1,1.3-0.4,2.7-0.2,4c0.7,5.9,4.1,7.8,9.8,5.7
		c6.1-2.2,9.9-6.1,12.7-12.2c1.6-3.5,0.6-5.7,0.2-8.6c-1-8.5-1.7-17-2.1-25.6c-0.7-13.8-0.1-27.6,0.7-41.3
		c0.4-6.5-2.4-12.5-4.2-18.6c-3.4-11.9-7.6-23.5-12.4-34.9c-2-4.8-5.6-8.7-7.5-13.6c-1.2-3.1-2.6-6-0.8-9.8c1.4-2.9,0.5-6.6-1.2-9.6
		c-0.8-1.4-1.7-2.8-1.5-4.4c0.9-12.9-2.9-25.3-3.7-38.1c-1.1-17.1-3.4-34.1-6.3-51c-2.3-13.2-2.3-26.8-5.4-39.8
		c-0.4-1.7-0.4-3.8-2.5-4.7c-0.4-0.1-0.3,0.1-0.3,0.1c0-0.1,0.1-0.3,0-0.4c-1.1-3.1-1.4-7.4-3.6-8.9c-2.4-1.6-5.5,2.1-8.7,2.9
		c-10.8,2.7-21.2,6.6-32.6,6.5c-5,0-9.9,1.8-14.8,3c-7.7,1.9-15.3-0.7-22.9-1.2c-3-0.2-6.1-0.5-8.9-2c-0.9-0.5-2.3-0.8-1.7-2.2
		c0.4-1.1,1.7-0.7,2.5-0.4c6.6,2.2,13.7,1.6,20.4,2.9c3.8,0.7,7.6,0.3,11.4-0.8c5.8-1.6,11.7-2.2,17.7-2.7c9.3-0.8,18.3-3.1,27-6.4
		c1.1-0.4,2.2-0.8,3.4-1.2c6.6-2.2,6.8-2.3,3.9-9c-2.4-5.4-4.9-10.8-7.6-16.1c-4.5-9-2.8-18-0.4-27c1.8-6.9,1.6-6.3-5-7.6
		c-12.3-2.3-24.3,0.4-36.4,0.8c-13.7,0.5-27.4,1.5-41.1,0.9c-3.6-0.1-3.9,1.2-3.4,4.1c2.9,17.3,4.4,34.8,6.6,52.1
		c0.1,0.8,0.4,1.7-0.6,2c-1.5,0.3-1.3-1.2-1.5-1.9c-1.2-6.2-2.9-12.4-3.7-18.7c-1.9-14.1-4-28.1-6-42.2c-0.1-0.5-0.3-1-0.5-1.7
		c-5.4,4.9-9,11.4-15.7,14.4c-6.5,3-12.3,6.9-18.4,10.8c0.7-2.6,1.5-5,4.5-5.8c0.3-0.1,0.6-0.1,0.7-0.3c6-7.2,15.6-9.3,22.3-15.4
		c3.4-3.1,7.4-6.5,5.2-12.4c-1.4-3.8-0.9-8.1-3.3-12.3c-3.4,6-9.1,8.5-14.6,11.2c-1.8,0.9-2.2,1.7-1.4,3.6c0.9,2.3,1.3,4.8,1.7,7.3
		c0.2,1.5,0.6,3.3-1.2,4.3c-3-2.8-2.1-6.9-3.5-10.3c-0.8-1.9-1.2-2.5-3.3-1.9c-2.8,0.8-5.5,0.3-7.9-2.4c2.5-0.9,4.7,0.6,6.7-0.2
		c3.6-1.5,7.4-2.4,9.7-6.2c0.8-1.3,2.1-5,4.7-1.2c0.1,0.1,0.9-0.1,1.4-0.3s1-0.5,1.3-0.9c3.9-5.3,9.4-9.5,10.9-16.4
		c0.1-0.5,0.1-1-0.5-1.4c-1.6-0.3-0.9,2.6-2.8,2c-1.1-0.9,0.2-1.2,0.5-1.8c2.9-4.7,3.7-9,1.7-14.9c-3.3-9.3-10.3-10.2-18-11.2
		c-1.6-0.2-2.7,0.2-3.7,1.6c-3.9,5.2-7.9,10.3-11.8,15.5c-2.7,3.6-0.5,8-1.5,11.9c-1.3,4.9-1.8,9.9-3.5,14.7
		c-3.2,9.3-10.5,16.8-11.7,27c-0.3,2.2-0.2,4.2,0.7,6.2c1.1,2.5,2.5,5,3.3,7.5c1,3,1.9,2.8,4.3,2.1c2.1-0.6,4.3-1.6,6.6-0.6
		c-2.2,3.8-7.8,6.1-11.4,4.2c-3.2-1.7-2.8-5.7-4.4-8.5c-4.7-8.1-1.8-16.2,0.3-24.2c0.5-1.8,1.2-3.2,3.2-4.5c3-1.9,4-5.8,5.4-9.1
		c2.6-6.1,3.3-12.7,5.1-19.1c0-0.1,0.1-0.3,0.1-0.4c-3.1-7.3,2.9-11.2,6.4-15.8c2.9-3.9,5.9-7.8,10.5-10c2.9-1.4,11.1-0.9,13,1.5
		c1.4,1.8,3.1,1.7,4.9,2.1c4.7,2.5,4.2,8,6.6,12.1c8.2-13.5,15.5-27.1,25.7-39.4c-4.9-0.8-8.6,1.4-12,3.2
		c-6.2,3.4-10.8,8.7-12.3,15.9c-0.9,4.1-4.2,8-8,8.2c2.6-5.5,4.9-11.2,8-16.4c5-8.4,12.2-14.1,22.4-14.2c7.6-0.1,14.5-2.5,21.3-5.5
		c1.2-0.5,3.1-1.1,2.7-3c-0.4-2.2-2.4-2.6-4.1-2c-6.5,2-9.5-3-11.9-6.9c-4.3-6.7-9.1-12.9-13.8-19.2c-5-6.6-8.2-13.2-8.1-21.7
		c0.2-7.9,0.4-16-1.4-23.9c-1.1-4.6-2.3-9.1-0.4-13.8c1-2.5-2.2-5.3,0.8-8.3c1.4,7.9-0.2,15.8,3.1,23.3L77.6,98.5z M100.2,166.5
		c-3.6,1-6.5,1.8-9.1,4.6c-2.5,2.7-2.5,6.3-4.9,8.9c-4.3,4.9-7.5,10.5-9.7,16.7c-0.9,2.5-1.8,5.2-3.4,7.1c-4,4.7-6.2,10.1-8,15.8
		c-0.8,2.5-1.3,5.3-2.7,7.4c-1.4,2-1.4,3.8-1.2,6c0.7,7.7,4.1,14.9,4.7,22.6c0.3,3.6,2.5,4.1,5,4c12.5-0.4,25-0.9,37.4-1.3
		c12.9-0.5,25.8-3.4,38.9-1c2.3,0.4,4.8,0.4,7.1,0.5c1.2,0.1,2.3,0,3.1-1.3c1.6-2.6,3.3-5.1,5.1-7.6c1.5-2,1.3-3.4-0.4-5.1
		c-2.7-2.6-4.7-5.7-5.4-9.6c-2-11.4-0.5-22.5,3.8-33.1c4.3-10.8,12-19.4,19.2-28.1c1.8-2.2,1.1-3-0.6-3.7c-2.6-1.1-5.1-0.9-7,1.5
		c-3,3.9-5.7,8-8.7,11.9c-6.2,8-12.8,15.6-18.6,23.8c-2.8,3.9-5.7,6.5-10.4,6.9c-11.7,0.9-23.3,1.5-35,0.7
		c-4.7-0.3-9.5-0.9-13.8-3.4c-4.3-2.6-6.3-5.8-4.9-10.6c3.1-10.6,8.7-20.1,15.9-28.4C98.3,170.1,99.2,168.6,100.2,166.5z
		 M151.9,127.5c-1.7,1.2-3,2-4.3,3c-9.1,7.3-17.8,14.9-26.7,22.4c-3.9,3.3-3.9,6.5-4.1,10.4c0,0.1,0,0.3,0,0.4
		c-0.1,0.6,0.2,1.4-0.6,1.7c-0.8,0.2-1.8,0.1-2.1-0.6c-1.1-2.9-2.9-2.1-4.7-0.9c-1.6,1.1-3.9,0.3-5.3,2.2c-3.5,4.6-6.3,9.7-9.3,14.6
		c-3,5.1-6.8,9.8-9.2,15.3c-3.3,7.4-1.3,12.2,6.5,14c1.9,0.5,3.9,0.9,5.9,0.9c11.4,0.4,22.8,0.5,34.2-0.3c4.1-0.3,7.4-1.8,9.9-5.6
		c7.6-11.4,17.2-21.3,24.8-32.7c3.3-4.9,3.7-4.6-1.3-7.3c-1.2-0.6-2.2-1.5-3.3-2.2c-0.9-0.6-1.7-1.2-2.9-0.7c-3,1.3-4.2-0.3-5-3.1
		c-2.2-7.6-2.2-15.4-2-23.1C152.3,133.2,152.9,130.6,151.9,127.5z"/>
	<path d="M167.9,330.9c-0.4,3.8-3.9,3.7-6.3,4.4c-2,0.6-4.1,1.1-5.8,2.4c-9.1,6.9-19.3,12.4-27.8,20.1c-3.8,3.5-7.3,7.3-11,10.9
		c-0.8,0.8-0.7,1.6-0.4,2.5c6.1,16.5,8.7,33.9,13.1,50.9c5.3,20.2,10.5,40.4,18.8,59.6c0.9,2,2.7,2.2,3.7,3.7
		c1.9,2.8,4.5,5.3,6.7,7.9c2.7,3.1,6,5,10.5,5.2c-4.6,2.7-5.1,2.4-16.5-9.4c-0.3,2.8,0.8,5.1,1.8,7.2c4.9,9.8,9.2,19.9,14.9,29.3
		c4.8,7.9,6.4,17.1,9.9,25.6c6.1,14.9,9.9,30.4,12.3,46.2c1,6.8,1.7,13.7,1.5,20.6c0,1.1,0.7,2.6-1.3,2.7c-1.6,0-2.3-1.2-2.5-2.6
		c-0.6-4.3-1-8.7-1.6-13c-1.9-12.3-3.1-24.7-6.1-36.7c-4.5-18.1-11-35.6-20.8-51.5c-10.9-17.8-17.4-37.5-24.3-56.9
		c-4.7-13.1-8.9-26.4-13.3-39.6c-1.7,0.3-2,1.6-2.4,2.6c-1.7,5.3-3.8,10.5-4.8,15.9c-3.1,16.1-6.4,32.1-7.2,48.7
		c-0.3,5.9,1.8,10.8,2.4,16.1c1.2,9.7,6.5,18,8,27.4c1.5,9.1,0.6,18.3,0.1,27.5c-0.4,6.7-0.7,13.4-2.9,19.8
		c-3.6,10.5-3.9,21.4-4.8,32.2c-0.3,4.2-0.7,8.3,0.1,12.5c0.3,1.4,0.5,3.1-2.1,2.3c-1.7-0.6-3.4,0.5-4.9,1.2
		c-6.4,3.1-12.8,6.4-19.2,9.7c-5.1,2.6-9.5,2-13.7-2.1c-1.3-1.3-1.9-0.6-3,0c-6.7,4.2-12.9,9.4-20.4,12.3
		c-6.9,2.7-14.1,4.6-21.2,6.9c-4.2,1.4-8.4,2.6-11.8,5.7c-0.7,0.6-1.7,1.2-2.5,0.7c-1-0.7,0.1-1.7,0-2.5c-0.3-6,4.6-6,8.2-7.3
		c7.3-2.5,14.8-4.2,22-7.1c11.2-4.5,20.6-12.1,30.7-18.4c2.4-1.5,6-2.2,5.4-6.4c-0.1-0.6,0.5-0.9,1.1-0.9c0.7,0,1.2,0,1.7,0.7
		c1.5,2.5,0,6.9-2.8,7.7s-3.8,3.2-5,5.3c-0.7,1.3,0,2.4,1.4,3.2c2.8,1.5,5.5,0.9,8-0.6c6.8-4.1,14.3-7,21.4-10.5
		c2-1,2.9-1.9,2.7-4.4c-0.6-9,1.3-17.9,2.5-26.8c2-14.5,5.1-28.9,6.5-43.5c1.1-10.6-1.3-20.1-4.4-29.7c-2.5-8-5.2-15.8-7.7-23.8
		c-1.2-4-0.1-8.3,0.5-12.2c1.3-8.4,0.4-16.9,2.3-25.3c2.1-9,3.9-18.1,6.5-27c1.7-5.8,3.1-11.7,5.3-17.5c1.6-4.1-1.1-8.5-2-12.8
		c-1.3-6.4-3.3-12.6-4.8-18.9c-0.4-1.6-1.2-2.3-2.5-2.8c-11.3-4.5-19.5-12.9-27.2-21.9c-3.7-4.3-7.7-8.1-12.7-11.3
		c-1.7,6.3-1.9,12.8-2.7,19.1c-3.8,31.5-3.3,63.2-3.2,94.8c0,7.4,1.6,14.7,2.5,22.1c0.1,0.6,0.5,1.4,0.3,1.9
		c-3.4,8.7,1.6,15.5,4.9,22.7c5.5,12.1,9.2,24.6,10.4,37.9c1.1,11.9,1.6,23.9,2.3,35.8c0.5,8.4,0.8,16.6,0.1,24.9
		c-0.3,3.8-3.2,6.7-2.8,10.6c0.1,0.8-0.7,1-1.4,0.9c-1-0.2-1.7-0.8-1.7-1.9c0.1-1.6,0-3.3,0.6-4.7c1.8-4.2,1.6-8.5,1.4-13
		c-0.7-17.4-0.7-34.9-2.2-52.2c-1.1-13.1-3.9-25.7-10.3-37.2c-4.7-8.5-6.5-17.2-6.3-27c0.3-12.4-1.6-24.9-1.1-37.3
		c1.3-28.8-0.6-57.8,3.8-86.5c1.5-9.9,3.2-19.7,5.9-29.3c0.4-1.3,0.1-2.9,2-4c0,4.8-1.3,9.1-2.1,13.5c-0.6,3.4,0.2,5.7,2.8,7.6
		c7.9,5.6,13.3,13.6,20.1,20.3c4.3,4.2,10.1,7,15.3,10.2c1.7,1.1,2.6-0.7,3.4-1.7c1.2-1.4,0-2.1-1-2.8c-0.9-0.6-2.7-0.5-2.4-2.2
		c0.4-2.1,2.2-0.5,3.3-0.9c0.8-0.3,1.7-0.2,2.4-1.1c8.5-11.1,20-18.4,31.4-26c2-1.3,4.1-2.6,5.7-4.3c4.3-4.3,10.2-3.1,15.4-4.6
		C168,331.1,167.9,330.9,167.9,330.9z"/>
	<path d="M116.9,662.6c-1.4,1.5-2.8,1.4-4,1.5c-11.6,0.8-22.8,3.9-34.5,4c-11.4,0.1-22.7,2.7-34.1,2.8c-9.1,0.1-17.9-1-26.8-3.1
		c-2.6-0.6-4.2-2.7-6.6-3.6c7.9,2,15.9,3,24,3.5c7.7,0.5,15.7,1.1,22.9-0.8c17.2-4.7,34.8-3.2,52.2-5.1
		C112.2,661.7,114.4,662.3,116.9,662.6z"/>
	<path d="M79,37c1.3-1.1,2.6-2.2,4-3.4c-1.1-1-3.1-1.5-2.8-3.4c0.3-2.2,2.7-1.8,4.2-2.5c1.3-0.5,2.9,0,4.5-1.5
		c-1.8-0.5-3.3-0.8-4.9-1.3c-0.6-0.2-1.2-0.7-1.1-1.5c0.1-0.9,1-0.8,1.6-0.8c2.5,0.3,5,1.1,7.4,1c5.2-0.2,10.3-0.9,15.4-1.4
		c7.2-0.6,14.4-1.9,21.6-1.7c9.1,0.3,17.5,4.3,26.1,7c-1.6,0.9-3.1,0.5-4.7,0.2c-7.9-1.9-15.6-5-23.8-5.7c-4-0.3-6.9,2.3-10.7,2.4
		c-6.6,0.1-13.2,1.2-19.7,1.6c-2,0.1-3.7,0.3-5.2,1.9c-1.9,2-5.2,1.4-7.6,2.9c1.4,1.2,3,0,4.5,1.1c-2.6,2.4-5.3,4.3-8.8,4.8
		C78.9,36.9,79,37,79,37z"/>
	<path d="M220,686.6c-15.9,3.5-31.7,9.6-48.4,3.6C188.1,693.4,203.8,686.9,220,686.6z"/>
	<path d="M99.9,101c-0.2,4-2.5,6.3-4.3,8.8c-1.8,2.6-3.9,5.1,0.2,7.6c1.1,0.7,2.6,2.5,1.3,3.6c-1.1,1-2.7-0.1-3.9-1.4
		c-5.7-5.8-6-3.6-0.5-10.9C94.7,106.2,96,102.7,99.9,101z"/>
	<path d="M78.9,36.9c0.6,0.9,1.3,2.4,0.3,2.8c-3,1-4,4.2-6.7,5.2c-2.9,1.1-1.8,2.6,0.1,3.4c2.4,0.9,2.2,1.8,0.7,3.3
		c-1.6,1.6-1.1,4.5-3.3,5.9c-3.3-2.8-0.4-4.8,0.8-7c-0.7-1.1-1.7,0.1-2.1-0.3c-1-1-2.3-2.1-2.5-3.3s1.5-1.8,2.5-2.1
		c4.5-1.3,6.7-5.5,10.4-7.8C79,37,78.9,36.9,78.9,36.9z"/>
	<path d="M105.3,42.4c-0.3,2-0.6,3.5-0.8,4.5c1.2-1,2.8-2.4,4.5-3.7c0.7-0.5,1.4-0.8,2.2-0.4c0.9,0.4,0.8,1.3,0.7,2.1
		c-0.2,1.3-0.5,2.6-0.8,3.9c-0.2,0.7-0.9,1.5-1.3,1.1c-3.5-3.2-4.1,0.9-5.8,2.2c-0.2,0.2-0.3,0.5-0.5,0.6c-1.1,0.6-1.7,2.9-3.5,1.5
		c-1.4-1.1-0.8-2.7,0-3.9C101.6,47.7,101.3,43.9,105.3,42.4z"/>
	<path d="M117.4,646c-0.3,2.5-0.5,4.8-0.8,7.2c-0.1,0.8-0.1,1.7-1.2,1.6c-0.7-0.1-1.1-0.9-1-1.5c0.8-4.5-1.5-9,0.3-13.5
		c0.6-1.6-1.4-3.6-1-5.6c0.2-1-0.5-2.7,1.4-2.7c1.4,0,1.5,1.4,1.4,2.4C116.4,637.9,116.9,642,117.4,646z"/>
	<path d="M165.4,89.3c-2.7-1.5-6.2-0.6-8.2,2.2c-0.7,0.9-1.1,2.1-1.6,3.1c-0.4,0.8-0.9,1.8-2.1,1.4c-1.2-0.4-1.4-1.5-1.4-2.6
		c0.2-3.5,5.3-8.9,8.8-9.2C164.6,84,165.2,86.5,165.4,89.3C165.4,89.4,165.4,89.3,165.4,89.3z"/>
	<path d="M38.7,230.4c0.5,1.1,0.5,1.7-0.9,1.8c-2,0.1-2.9,2-3.5,3.4c-0.5,1.3-0.5,2.2-2.1,1.5c-1.4-0.6-2.2-1.8-1.4-3.1
		c1.3-2.1,2.6-4.4,4.9-5.5C37.5,227.6,39.3,227.5,38.7,230.4z"/>
	<path d="M100.1,39.7c-1.8,3.2-3.3,5.9-4.8,8.7c-0.5,1-1,1.5-2.1,1.1c-0.9-0.3-1.1-1.1-1.1-1.9C92.1,44.4,96.2,40.1,100.1,39.7z"/>
	<path d="M124.8,43.1c-0.4,1.2-1,3.6-2.4,3.2c-1.5-0.4-4.5-1-4.3-2.5c0.1-1.8,2.7-2.7,4.6-3.2C124.1,40.4,124.8,41.4,124.8,43.1z"/>
	<path d="M74.2,59.2c-1-5.1,0.4-9.1,4.8-11.9C77.3,51.3,75.7,55.2,74.2,59.2z"/>
	<path d="M145.7,70.5c1-0.9,1.1-3.2,3-2.5c1.6,0.7,0.6,2.3,0.2,3.5c-0.6,1.9,0.3,5.6-2.4,5.1c-2.9-0.5-0.7-3.8-0.8-5.8
		c0-0.1,0.1-0.3,0.1-0.4L145.7,70.5z"/>
	<path d="M132,43.1c1.9,4.3-0.2,6.9-0.7,9.7c-0.1,0.6-0.6,0.9-1.1,0.7c-1-0.4-1.3-1.2-1.2-2.2C129.3,48.7,131.1,46.7,132,43.1z"/>
	<path d="M138.6,59.3c-2-3.4-1.5-6.5-1.4-9.5c0.1-0.9,0.4-1.7,1.3-1.6c1,0.1,1.1,1,1,1.8C139.3,52.8,139,55.7,138.6,59.3z"/>
	<path d="M55,208.9c-4.3-1.6-8.8-2.5-13.1-4.3C46.7,204.9,51.1,206,55,208.9z"/>
	<path d="M145.8,70.4c-0.6,0.4-1,1.3-2,1.1c-1.1-0.3-0.9-1.3-0.7-2c0.9-2.2-0.8-5.4,2.6-6.7C147.4,65.5,144.3,68,145.8,70.4
		C145.7,70.5,145.8,70.4,145.8,70.4z"/>
	<path d="M152.9,80.5c2,3.4-0.5,5.7-1.1,8.4c-0.4-0.1-0.8-0.2-1.2-0.3C151.3,85.9,152.1,83.2,152.9,80.5z"/>
	<path d="M31.5,223c3-0.8,4.6,0.2,5.9,1.8c0.4,0.5,0.1,1.2-0.4,1.2C34.9,225.9,33.7,224.2,31.5,223z"/>
	<path d="M103.6,307.4c0,1.4,0,2.8,0,4.2c0,0.9,0.2,2.2-1.1,2.1c-1.4,0-1.5-1.5-1.3-2.4c0.3-1.4,1.1-2.7,1.7-4.1
		C103.1,307.3,103.4,307.3,103.6,307.4z"/>
	<path d="M143.1,179.2c-2.6,1.9-5.8,2.8-8.4,4.6C136.9,181.2,139.9,179.9,143.1,179.2z"/>
</g>
</svg>
