<?xml version="1.0" encoding="utf-8"?>
<!-- Generator: Adobe Illustrator 25.0.0, SVG Export Plug-In . SVG Version: 6.00 Build 0)  -->
<svg version="1.1" id="Laag_1" xmlns="http://www.w3.org/2000/svg" xmlns:xlink="http://www.w3.org/1999/xlink" x="0px" y="0px"
	 viewBox="0 0 543 543" enable-background="new 0 0 543 543" xml:space="preserve">
<path fill="#FFFFFF" stroke="#000000" stroke-width="24" stroke-miterlimit="10" d="M514.8273,527.75h-489c-6.6,0-12-5.4-12-12v-489
	c0-6.6,5.4-12,12-12h489c6.6,0,12,5.4,12,12v489C526.8273,522.35,521.4274,527.75,514.8273,527.75z"/>
<path stroke="#000000" stroke-miterlimit="10" d="M292.4561,121.9831l-141.5523,88.4758H79.7929
	c-7.9845,0-14.5173,6.5327-14.5173,14.5173v92.5477c0,7.9845,6.5328,14.5173,14.5173,14.5173h71.111l141.5522,88.4757
	c6.2043,0,11.2806-5.3557,11.2806-11.9016V133.8848C303.7367,127.3389,298.6604,121.9831,292.4561,121.9831z"/>
<path stroke="#000000" stroke-miterlimit="10" d="M347.6665,367.3173h-8.7038c-6.6,0-12-5.4-12-12V187.1826c0-6.6,5.4-12,12-12
	h8.7038c6.6,0,12,5.4,12,12v168.1347C359.6665,361.9173,354.2665,367.3173,347.6665,367.3173z"/>
<path stroke="#000000" stroke-miterlimit="10" d="M405.4266,422.5963h-8.7038c-6.6,0-12-5.4-12-12V140.7609c0-6.6,5.4-12,12-12
	h8.7038c6.6,0,12,5.4,12,12v269.8354C417.4266,417.1962,412.0266,422.5963,405.4266,422.5963z"/>
<path stroke="#000000" stroke-miterlimit="10" d="M470,457.2527h-8.7038c-6.6,0-12-5.4-12-12V97.2473c0-6.6,5.4-12,12-12H470
	c6.6,0,12,5.4,12,12v348.0054C482,451.8527,476.6,457.2527,470,457.2527z"/>
</svg>
