<?xml version="1.0" encoding="utf-8"?>
<!-- Generator: Adobe Illustrator 25.0.0, SVG Export Plug-In . SVG Version: 6.00 Build 0)  -->
<svg version="1.1" id="Laag_1" xmlns="http://www.w3.org/2000/svg" xmlns:xlink="http://www.w3.org/1999/xlink" x="0px" y="0px"
	 viewBox="0 0 566.9 566.9" style="enable-background:new 0 0 566.9 566.9;" xml:space="preserve">
<style type="text/css">
	.st0{display:none;}
	.st1{display:inline;fill:#040404;}
	.st2{display:inline;fill:#FDFDFD;}
	.st3{display:inline;fill:#FB8989;}
	.st4{display:inline;fill:#030303;}
	.st5{display:inline;fill:#4C4B5D;}
	.st6{display:inline;fill:#060404;}
	.st7{display:inline;fill:#F45C74;}
	.st8{fill:#070605;}
	.st9{fill:#FDC074;}
	.st10{display:inline;fill:#050506;}
	.st11{display:inline;fill:#B6F0FD;}
</style>
<g class="st0">
	<path class="st1" d="M291.5,6.1c0.9,1.5,2.5,1,3.8,1c11.8,0.7,23.5,2.4,35.1,4.7c14.8,3,28.9,8.1,43.1,13.1
		c19.6,6.8,37.3,17.2,55.2,27.2c8.1,4.5,14.9,10.7,20.7,17.8c9.5,11.8,18.8,23.8,26.2,37c11.2,19.9,17.1,41.5,21.1,63.7
		c3.6,20.2,4.7,40.7,6.4,61.1c0.2,2.7,0.6,5.5,0.6,8.2c0,0.8,0,1.6,1.1,1.6c0,1.3,0,2.7,0,4c-0.4,0.1-0.6,0.4-0.6,0.8
		c0,7.7,0.1,15.3,0.1,23c-0.1,3.4-0.2,6.7-0.2,10.1c-0.4,0.5-0.4,0.9-0.1,1.4c-0.1,2.2-0.2,4.5-0.3,6.7c-0.3,1.2-0.5,2.4-0.2,3.6
		c-0.2,2.2-0.3,4.4-0.5,6.6c-0.3,0.2-0.3,0.5-0.1,0.8c-1.6,13.1-3.5,26.2-4.9,39.3c-1.6,15.1-5.5,29.7-9.6,44.3
		c-0.1,0.5-0.3,0.9-0.4,1.4c-10.5,35.1-30.4,64.5-55.9,90.3c-5.2,5.3-11,10-17,14.4c-8.4,6.1-16.3,12.9-24.2,19.6
		c-15.6,13.1-32.1,24.8-49.9,34.6c-1.9,1.1-3.8,2.1-5.7,3.3c-7.7,4.8-15.9,8.4-24.6,10.9c-4.2,1.2-8.5,1.9-12.8,2.9
		c-1,0.2-2.3-0.3-3,1c-2.3,0-4.6,0-6.9,0c-3.2-2.3-6.5-1.6-9.7,0c-2.3,0-4.6,0-6.9,0c-3.3-1.8-7-1.9-10.5-2.7
		c-3.7-0.8-7.6-1.6-10.9-3.2c-6.1-2.9-12.4-5.5-18.4-8.7c-14.6-7.9-28-17.6-41.7-26.9c-8.6-5.9-16-13.2-24-19.8
		c-5.3-4.3-10.9-8.4-16.2-12.6c-22.3-17.7-40.3-39-53.7-64.2c-2.2-4.1-4.5-8.2-6.9-12.2c-7.2-12.1-9.8-25.7-13.7-38.9
		c-5-16.8-6.3-34.2-8.7-51.4c-2-14.7-3.3-29.5-3.8-44.3c0-11.2,0-22.3,0-33.5c1.5-16.8,2.8-33.6,4.5-50.3c3.2-31,9.7-61.2,25.9-88.3
		c8.8-14.8,18.8-28.9,31.2-41c4.2-4.1,8.8-7.8,14-10.7c9-5.1,17.9-10.4,27.2-15.1c18.9-9.5,38.8-16.5,59.2-22.2
		c15.7-4.4,31.8-6.6,48.1-7.4c1.1-0.1,2.3,0.1,2.9-1.2C281.2,6.1,286.3,6.1,291.5,6.1z M67.4,266.5c0,7.7-0.1,15.4,0,23.1
		c0.1,3.4-0.2,7,0.9,10.2c2.2,6.7,3,13.6,4,20.4c2.1,15.3,3.4,30.6,7.4,45.6c3.3,12,5.7,24.5,11.1,35.6c7.4,15,15.2,29.9,25.7,43.1
		c11.6,14.6,23.6,28.7,38.9,39.6c8,5.7,15.4,12.1,22.9,18.5c15.8,13.4,32.4,25.7,50.7,35.5c5.5,2.9,10.1,7.3,15.9,9.5
		c12.4,4.9,25.3,7.6,38.6,7.3c7.7-0.1,15.5-0.5,23.1-2.7c7.8-2.2,15.7-3.7,22.4-8.8c2.6-2,5.6-3.6,8.5-5.2
		c18.3-9.9,34.9-22.1,50.7-35.5c6.5-5.5,12.7-11.2,19.7-16.1c14.5-10.1,26.7-22.4,37.5-36.2c15.5-19.7,28.7-40.7,36.1-65
		c3.8-12.6,7.2-25.3,9.5-38.2c1.8-10.2,2.6-20.6,4-30.9c0.8-6.3,3.1-12.4,3.6-18.6c1.9-22,2.2-44.1,0.2-66.2
		c-1.5-17.4-2.5-34.8-5-52c-3.7-24.6-9.8-48.6-21.9-70.6c-7.9-14.3-18.2-27-28.5-39.6c-4.7-5.8-10.4-10.5-17-14.1
		c-18-9.8-35.8-19.9-55.3-26.5C354.6,23.2,338,17.3,320.4,15c-14.4-1.9-28.7-4.2-43.2-3.3c-21,1.4-41.8,4.3-62.1,10.6
		c-25.7,8-49.9,19-73.3,32.3c-7.9,4.5-14.6,10.3-20.4,17.2c-5,5.9-9.2,12.4-14,18.4c-12.1,15.3-20.3,32.6-25.9,51.2
		c-5.5,18.2-9.1,36.8-10.5,55.8C69.2,220.3,65.9,243.2,67.4,266.5z"/>
	<path class="st2" d="M67.4,266.5c-1.5-23.2,1.8-46.2,3.6-69.3c1.5-19,5.1-37.6,10.5-55.8c5.6-18.6,13.8-35.9,25.9-51.2
		c4.8-6,9-12.5,14-18.4c5.8-6.9,12.4-12.7,20.4-17.2c23.3-13.3,47.6-24.3,73.3-32.3c20.3-6.3,41-9.2,62.1-10.6
		c14.5-0.9,28.9,1.4,43.2,3.3c17.6,2.3,34.2,8.2,50.9,13.9c19.5,6.7,37.3,16.7,55.3,26.5c6.6,3.6,12.3,8.3,17,14.1
		c10.3,12.7,20.6,25.3,28.5,39.6c12.1,22,18.3,45.9,21.9,70.6c2.6,17.2,3.5,34.7,5,52c2,22.1,1.7,44.2-0.2,66.2
		c-0.5,6.2-2.8,12.3-3.6,18.6c-1.4,10.3-2.2,20.6-4,30.9c-2.3,12.9-5.7,25.6-9.5,38.2c-7.4,24.3-20.6,45.3-36.1,65
		c-10.8,13.8-23.1,26.1-37.5,36.2c-7,4.8-13.2,10.6-19.7,16.1c-15.8,13.4-32.4,25.6-50.7,35.5c-2.9,1.6-5.9,3.1-8.5,5.2
		c-6.7,5.1-14.6,6.6-22.4,8.8c-7.6,2.2-15.3,2.6-23.1,2.7c-13.3,0.2-26.2-2.5-38.6-7.3c-5.8-2.3-10.4-6.6-15.9-9.5
		c-18.3-9.8-34.9-22.1-50.7-35.5c-7.5-6.4-14.9-12.8-22.9-18.5c-15.3-10.9-27.4-25-38.9-39.6c-10.5-13.3-18.3-28.1-25.7-43.1
		c-5.5-11.1-7.9-23.6-11.1-35.6c-4.1-15-5.4-30.3-7.4-45.6c-0.9-6.8-1.8-13.7-4-20.4c-1-3.2-0.8-6.8-0.9-10.2
		C67.3,281.9,67.4,274.2,67.4,266.5z M350.9,287.9c0.3,2.2,0.2,5.1,2.8,5.6c2.8,0.5,3.4-2.6,4.1-4.7c0.8-2.6,1.4-5.3,1.8-8.1
		c0.4-2.8,1.2-3.5,4.2-2.8c10.7,2.5,21.6,1.5,32.4,0.4c2.3-0.2,4.8-2.6,6.6-1.2c1.6,1.3,1.9,4.3,2.7,6.5c1,2.6,2,5.2,4.3,6.9
		c1,0.7,2.2,1.8,3.6,1c1.3-0.7,0.7-2.1,0.7-3.1c0.1-1.8-0.5-3.6-1.2-5.2c-1-2.4-1.8-4.8-2.9-7.2c-0.6-1.3-0.3-1.9,1-2.3
		c2.7-1,5.3-2.2,7.9-3.2c7.6-3.1,14.5-7.2,19.7-13.6c1-1.2,1.3-0.4,2,0.1c2.2,1.9,4.5,3.4,7.1,4.8c2.4,1.3,4.9,1.3,7.5,0.5
		c1.6-0.5,2.3-1.3,1.2-2.9c-1.4-2-3-3.9-5.2-5.2c-2-1.2-3.7-2.7-5.7-3.9c-1.8-1.1-1.8-2.3-0.6-3.9c2-2.6,4.5-4.9,5.8-8.1
		c1.3-3.1-0.2-7.1-3.6-9.3c-2.3-1.5-5-0.7-7.4,2.2c-1.8,2.1-3.2,4.6-5.4,6.2c-10.9,8.3-23.3,13.3-36.6,16.1
		c-13.1,2.8-26.5,2-39.9,1.3c-5.6-0.3-10.8-2.1-15.7-4.9c-6.7-3.8-13-8.3-18.4-13.9c-2.1-2.1-4.3-4.1-6.4-6.1
		c-1-0.9-2.2-1.3-3.4-0.6c-1.2,0.7-1.8,1.8-1.5,3.1c0.3,1.2,0.1,2.2-0.5,3.2c-0.6,1.1-0.7,2.4-0.3,3.6c1.3,3.8,2.4,7.7,4.2,11.2
		c1.1,2.2,0.6,3.4-1,4.8c-2.4,2.2-4.6,4.6-6.8,6.9c-1.1,1.2-2.1,2.5-2.7,4c-0.4,1-0.5,2.1,0.3,2.9c0.8,0.8,1.7,0.7,2.7,0.4
		c1.8-0.5,3.2-1.7,4.5-3c2.4-2.5,4.7-5,7-7.5c0.8-0.9,1.2-1,2.3-0.1c8.7,6.9,18.4,12.2,29,15.7c2,0.7,2.2,1.4,1.6,3.2
		C351.9,281.2,351.2,284.5,350.9,287.9z M152.6,288.6c0.3,1-0.5,2.4,0.8,3.1c1.3,0.7,2.4-0.2,3.4-0.9c1.8-1.2,2.9-3,3.7-4.9
		c1-2.5,1.9-5,2.8-7.5c0.4-1.4,1-1.8,2.5-1.3c2,0.7,4,1.4,6.1,1.6c10.9,1,21.9,1.9,32.7-0.8c1.7-0.4,2.1,0.2,2.4,1.7
		c0.6,3.3,1.3,6.5,2.2,9.7c0.6,1.9,1.3,4.7,3.7,4.4c2.7-0.3,2.9-3.2,3-5.5c0.1-3.5-0.9-6.8-1.9-10.1c-0.6-1.9-0.3-2.5,1.7-3.2
		c10.6-3.5,20.2-8.7,29-15.7c1.1-0.9,1.5-0.6,2.3,0.2c2.7,2.9,5.3,5.8,8.1,8.4c1.6,1.5,3.9,3.5,6,1.4c2-2-0.1-4.1-1.5-5.7
		c-2.5-2.9-5.2-5.5-8-8.2c-1.3-1.3-1.4-2.4-0.9-4.4c1.6-5.5,6.4-10.5,3.3-16.9c-0.1-0.1,0-0.4,0.1-0.6c0.4-1.6,0.2-3.1-1.4-3.9
		c-1.8-0.9-3.1,0.2-4.3,1.4c-3.2,3-6.2,6.2-9.6,9c-9.9,8.5-20.6,15.4-34.4,15.4c-7.7,0-15.4,0.1-23.1-0.1
		c-13.4-0.4-25.6-4.8-37.4-10.4c-6.7-3.2-12.8-7.4-17.2-13.7c-1.9-2.8-4.7-3.4-6.9-2.1c-4.1,2.4-5.3,6.9-2.9,11
		c0.7,1.2,1.5,2.4,2.5,3.5c5.4,6.4,4.3,5-1.1,9.1c-2.7,2-5.8,3.6-7.7,6.7c-1.1,1.7-0.7,2.6,1.1,3.1c2.6,0.7,5.1,0.7,7.5-0.6
		c2.5-1.3,5-2.9,7.1-4.8c0.9-0.9,1.4-1,2.1,0.2c1.4,2.3,3.7,3.8,5.7,5.5c6.2,5,13.5,7.9,20.8,10.6c2.3,0.9,2.5,1.8,1.6,3.9
		C154.9,280.9,152.9,284.4,152.6,288.6z M222.3,436.7c-1.5,0.8-2.7,1.3-1.9,2.8c1.1,2.1,1.9,4.4,3.2,6.4c6.3,9.5,13.7,18,22.9,24.9
		c14,10.4,29.4,15.4,46.9,12.3c11.4-2,21.1-7.4,29.9-14.6c9.5-7.8,17.2-16.9,22.8-27.8c0.4-0.8,1.2-1.8,0.4-2.6
		c-1.4-1.6-0.1-1.9,0.9-2.3c4.4-1.6,8.4-4,13.2-4.5c0.9-0.1,1.6-0.4,2.4-0.9c2.5-1.6,5-3,8.2-2.8c2.1,0.1,3.6-1.2,4.3-3.1
		c1-2.7-0.8-6-3.7-7.1c-3.4-1.2-7.3,0-8,2.7c-0.5,1.9-1.5,2.4-3.1,2.8c-2.6,0.6-5.2,1.2-7.6,2.4c-3.6,1.8-7.1,3.5-11.4,1.9
		c-1.3-0.5-3-0.2-4.5-0.1c-3.8,0.1-7.6-0.5-11.4-0.8c-10.6-0.9-21-3.5-31.7-4.3c-3.9-0.3-6.9,1-9.3,3.9c-1,1.2-1.5,1.5-2.6,0.1
		c-2.4-3-5.6-4.2-9.6-3.9c-9,0.5-17.6,2.9-26.6,3.6c-12.5,1-25.1,4.5-37.2-2c-1.1-0.6-2.4-0.7-3.6-1c-0.9-0.2-1.5-0.6-1.8-1.6
		c-1.5-3.9-6-5.3-9.5-3.1c-2.3,1.5-3.4,4.1-2.6,6.4c0.9,2.5,2.8,3.5,5.4,3.3c2.5-0.2,4.6,1.2,6.6,2.4c1.2,0.7,2.4,1.2,3.7,1.4
		C212.3,431.9,216.7,434.9,222.3,436.7z M188.6,153.7c-11.9-0.7-23.6,0.8-35.3,1c-1.9,0-3.7,0.5-5.3,1.7c-9.5,7.1-19.6,13.1-30,18.7
		c-6.3,3.4-12.6,6.7-17.8,11.7c-0.5,0.5-1.5,0.9-1.1,1.8c0.5,0.9,1.4,0.3,2,0.1c9.3-3,18.9-5,27.7-9.7c4.5-2.4,9.4-4.1,13.9-6.7
		c6.1-3.5,12.5-3.8,19.1-2.8c8.8,1.3,17.5,2.4,26.3,3.5c16.3,2.1,32.4,4.7,48.2,8.9c3.2,0.9,6.6,1.5,9.3-1.3
		c2.3-2.4,4.7-4.7,6.7-7.4c1.3-1.8,1-3-0.1-4.6c-3.8-5.4-8.9-8.7-15.4-10C220.8,155.5,204.8,152.4,188.6,153.7z M466.5,189.1
		c0.6,0,1.2,0.3,1.5-0.5c0.2-0.7-0.4-1-0.8-1.4c-4-3.9-8.5-7-13.5-9.5c-9.6-4.8-18.9-10.1-27.5-16.3c-6.6-4.7-13.3-6.8-21.5-7.1
		c-23.4-1-46.6-1.7-69.6,3.4c-7.4,1.6-14.5,3.4-19.3,9.9c-2.5,3.4-2.9,3.9-0.2,7c7.8,8.7,7.5,9.3,18,6.8c8.4-2,16.7-4.5,25.4-5.6
		c14.8-1.9,29.6-4,44.4-6c5.8-0.8,11.8-1.6,17.4,1c6.1,2.8,12.1,5.5,18,8.6C447.6,184,457.3,185.8,466.5,189.1z"/>
	<path class="st1" d="M350.9,287.9c0.2-3.5,0.9-6.7,1.9-9.9c0.6-1.8,0.4-2.5-1.6-3.2c-10.6-3.5-20.2-8.7-29-15.7
		c-1-0.8-1.5-0.7-2.3,0.1c-2.3,2.5-4.7,5-7,7.5c-1.3,1.3-2.6,2.5-4.5,3c-0.9,0.2-1.9,0.3-2.7-0.4c-0.9-0.9-0.7-1.9-0.3-2.9
		c0.6-1.5,1.6-2.8,2.7-4c2.3-2.3,4.5-4.7,6.8-6.9c1.6-1.5,2-2.6,1-4.8c-1.7-3.6-2.8-7.5-4.2-11.2c-0.4-1.2-0.4-2.5,0.3-3.6
		c0.6-1.1,0.8-2.1,0.5-3.2c-0.3-1.3,0.3-2.4,1.5-3.1c1.3-0.7,2.4-0.3,3.4,0.6c2.2,2,4.4,4,6.4,6.1c5.5,5.5,11.7,10.1,18.4,13.9
		c4.9,2.8,10.1,4.6,15.7,4.9c13.3,0.7,26.7,1.5,39.9-1.3c13.2-2.8,25.7-7.8,36.6-16.1c2.2-1.7,3.6-4.1,5.4-6.2
		c2.4-2.9,5.1-3.7,7.4-2.2c3.4,2.2,4.9,6.2,3.6,9.3c-1.3,3.1-3.8,5.4-5.8,8.1c-1.3,1.6-1.2,2.8,0.6,3.9c1.9,1.2,3.7,2.7,5.7,3.9
		c2.2,1.3,3.8,3.2,5.2,5.2c1.1,1.6,0.4,2.5-1.2,2.9c-2.6,0.7-5,0.7-7.5-0.5c-2.5-1.3-4.9-2.9-7.1-4.8c-0.6-0.5-1-1.3-2-0.1
		c-5.2,6.5-12.2,10.5-19.7,13.6c-2.6,1.1-5.3,2.2-7.9,3.2c-1.3,0.5-1.6,1.1-1,2.3c1,2.4,1.9,4.8,2.9,7.2c0.7,1.7,1.3,3.4,1.2,5.2
		c-0.1,1.1,0.6,2.4-0.7,3.1c-1.4,0.8-2.6-0.3-3.6-1c-2.4-1.7-3.4-4.3-4.3-6.9c-0.8-2.2-1.1-5.2-2.7-6.5c-1.8-1.5-4.3,0.9-6.6,1.2
		c-10.8,1.1-21.7,2.1-32.4-0.4c-2.9-0.7-3.8,0-4.2,2.8c-0.4,2.7-1,5.4-1.8,8.1c-0.7,2.1-1.2,5.1-4.1,4.7
		C351.2,293.1,351.2,290.1,350.9,287.9z"/>
	<path class="st1" d="M152.6,288.6c0.2-4.2,2.3-7.7,3.8-11.4c0.8-2.1,0.6-3.1-1.6-3.9c-7.3-2.8-14.6-5.6-20.8-10.6
		c-2.1-1.7-4.3-3.2-5.7-5.5c-0.7-1.2-1.2-1-2.1-0.2c-2.1,2-4.5,3.5-7.1,4.8c-2.4,1.3-4.9,1.3-7.5,0.6c-1.8-0.5-2.2-1.4-1.1-3.1
		c1.9-3.1,4.9-4.6,7.7-6.7c5.4-4.1,6.5-2.7,1.1-9.1c-0.9-1.1-1.7-2.3-2.5-3.5c-2.4-4.1-1.2-8.6,2.9-11c2.2-1.3,5-0.7,6.9,2.1
		c4.4,6.3,10.5,10.5,17.2,13.7c11.8,5.6,24.1,10.1,37.4,10.4c7.7,0.2,15.4,0.1,23.1,0.1c13.8,0,24.5-6.9,34.4-15.4
		c3.3-2.8,6.4-6,9.6-9c1.2-1.1,2.5-2.3,4.3-1.4c1.6,0.8,1.8,2.3,1.4,3.9c0,0.2-0.2,0.4-0.1,0.6c3.1,6.4-1.8,11.4-3.3,16.9
		c-0.6,2-0.5,3.1,0.9,4.4c2.7,2.7,5.5,5.3,8,8.2c1.4,1.6,3.5,3.7,1.5,5.7c-2.1,2.1-4.3,0.1-6-1.4c-2.8-2.7-5.4-5.6-8.1-8.4
		c-0.7-0.8-1.2-1.1-2.3-0.2c-8.7,6.9-18.4,12.2-29,15.7c-1.9,0.6-2.3,1.3-1.7,3.2c1,3.3,1.9,6.6,1.9,10.1c-0.1,2.3-0.2,5.2-3,5.5
		c-2.4,0.3-3.2-2.4-3.7-4.4c-0.9-3.2-1.6-6.5-2.2-9.7c-0.3-1.5-0.7-2.1-2.4-1.7c-10.8,2.7-21.8,1.8-32.7,0.8
		c-2.1-0.2-4.1-0.9-6.1-1.6c-1.5-0.5-2-0.1-2.5,1.3c-0.8,2.5-1.8,5-2.8,7.5c-0.8,2-1.9,3.8-3.7,4.9c-1,0.6-2.1,1.6-3.4,0.9
		C152.2,291,153,289.6,152.6,288.6z"/>
	<path class="st1" d="M222.3,436.7c-5.6-1.8-10-4.8-15.3-5.4c-1.3-0.2-2.5-0.7-3.7-1.4c-2-1.2-4-2.6-6.6-2.4
		c-2.6,0.2-4.5-0.8-5.4-3.3c-0.8-2.3,0.3-4.9,2.6-6.4c3.5-2.3,8-0.9,9.5,3.1c0.4,1,1,1.3,1.8,1.6c1.2,0.3,2.5,0.4,3.6,1
		c12.1,6.5,24.7,3,37.2,2c8.9-0.7,17.6-3.1,26.6-3.6c4-0.2,7.2,0.9,9.6,3.9c1.1,1.4,1.6,1.2,2.6-0.1c2.4-2.9,5.4-4.1,9.3-3.9
		c10.7,0.7,21,3.3,31.7,4.3c3.8,0.3,7.6,0.9,11.4,0.8c1.5,0,3.2-0.4,4.5,0.1c4.2,1.6,7.8,0,11.4-1.9c2.4-1.2,5-1.8,7.6-2.4
		c1.5-0.4,2.6-0.9,3.1-2.8c0.7-2.8,4.7-3.9,8-2.7c3,1.1,4.7,4.3,3.7,7.1c-0.7,2-2.2,3.3-4.3,3.1c-3.2-0.2-5.7,1.2-8.2,2.8
		c-0.8,0.5-1.5,0.8-2.4,0.9c-4.8,0.4-8.8,2.8-13.2,4.5c-1,0.4-2.3,0.7-0.9,2.3c0.7,0.9,0,1.8-0.4,2.6c-5.6,10.9-13.3,20.1-22.8,27.8
		c-8.8,7.3-18.5,12.6-29.9,14.6c-17.6,3.1-32.9-1.9-46.9-12.3c-9.2-6.9-16.6-15.4-22.9-24.9c-1.3-2-2.1-4.2-3.2-6.4
		C219.6,437.9,220.8,437.5,222.3,436.7z M224.9,438c-0.2,0-0.6-0.1-0.7,0c-0.2,0.3,0.1,0.4,0.3,0.5c0.9,1.7,1.4,3.7,2.7,5.3
		c5.3,6.6,11,12.8,17.4,18.4c9.3,8.1,19.6,14.2,31.7,16.6c2.7,0.5,5.4,1.7,8.1,1.2c9.8-1.7,19.3-4.3,27.7-10
		c6.2-4.2,11.8-9.1,17.1-14.2c5.3-5,10.2-10.5,13.2-17.4c0.2-0.1,0.5-0.2,0.3-0.5c-0.1-0.1-0.5,0-0.7,0c-13.3,4.7-26.3,9.9-40,13.5
		c-5.7,1.5-11.6,2.4-17.3,2.5c-4.2,0.1-8.7-0.3-12.9-1.1c-10.1-2-20-4.8-29.6-8.5C236.5,442.2,230.7,440.2,224.9,438z M337.4,432.1
		c0-0.2,0-0.4-0.1-0.5c-2.4-0.1-4.7-0.2-7.1-0.4c-11.6-0.9-22.9-3.6-34.4-5c-4.5-0.6-7.4,0.7-9.6,4.3c-0.4,0.7-0.9,1.4-1.4,2.1
		c-0.9,1.3-1.7,1.4-2.6,0c-0.6-0.9-1.2-1.7-1.7-2.6c-2.1-3.3-4.8-4.3-8.9-3.9c-7.2,0.7-14.2,2.6-21.4,3.4
		c-6.8,0.7-13.6,2.2-20.7,2.1c0.6,1.1,1.4,1.1,2.1,1.4c12.3,4.9,24.7,9.5,37.2,13.7c8.4,2.8,16.9,3.7,25.5,1.1
		c11.7-3.5,23.1-7.8,34.4-12.2C331.6,434.4,334.5,433.3,337.4,432.1z"/>
	<path class="st1" d="M188.6,153.7c16.2-1.3,32.2,1.8,48.2,5c6.5,1.3,11.6,4.7,15.4,10c1.1,1.5,1.5,2.7,0.1,4.6
		c-2,2.7-4.4,5-6.7,7.4c-2.8,2.8-6.1,2.2-9.3,1.3c-15.9-4.2-32-6.8-48.2-8.9c-8.8-1.1-17.5-2.2-26.3-3.5c-6.6-1-13-0.7-19.1,2.8
		c-4.4,2.5-9.3,4.3-13.9,6.7c-8.8,4.6-18.4,6.7-27.7,9.7c-0.7,0.2-1.6,0.8-2-0.1c-0.5-0.9,0.6-1.3,1.1-1.8c5.2-5,11.5-8.3,17.8-11.7
		c10.4-5.6,20.6-11.6,30-18.7c1.6-1.2,3.4-1.7,5.3-1.7C165,154.6,176.6,153,188.6,153.7z"/>
	<path class="st1" d="M466.5,189.1c-9.2-3.3-18.9-5-27.7-9.6c-5.9-3.1-12-5.8-18-8.6c-5.6-2.6-11.6-1.8-17.4-1
		c-14.8,1.9-29.6,4-44.4,6c-8.6,1.1-16.9,3.6-25.4,5.6c-10.5,2.5-10.2,1.9-18-6.8c-2.8-3.1-2.3-3.7,0.2-7c4.9-6.5,12-8.3,19.3-9.9
		c23-5.1,46.3-4.4,69.6-3.4c8.2,0.4,14.9,2.4,21.5,7.1c8.6,6.2,18,11.5,27.5,16.3c4.9,2.5,9.5,5.6,13.5,9.5c0.4,0.4,1,0.7,0.8,1.4
		C467.7,189.3,467.1,189.1,466.5,189.1z"/>
	<path class="st3" d="M342.4,438.5c-3,6.8-7.9,12.3-13.2,17.4c-5.3,5.1-10.9,10-17.1,14.2c-8.4,5.7-17.9,8.2-27.7,10
		c-2.8,0.5-5.4-0.7-8.1-1.2c-12.2-2.4-22.4-8.5-31.7-16.6c-6.4-5.6-12.1-11.8-17.4-18.4c-1.3-1.6-1.8-3.6-2.7-5.3
		c0.1-0.2,0.3-0.3,0.4-0.5c5.8,2.1,11.6,4.2,17.4,6.4c9.6,3.6,19.5,6.4,29.6,8.5c4.2,0.9,8.7,1.2,12.9,1.1c5.7-0.1,11.6-1,17.3-2.5
		c13.7-3.5,26.7-8.8,40-13.5C342.2,438.2,342.3,438.3,342.4,438.5z"/>
	<path class="st3" d="M337.4,432.1c-2.9,1.1-5.8,2.3-8.7,3.4c-11.4,4.4-22.8,8.7-34.4,12.2c-8.6,2.6-17.1,1.7-25.5-1.1
		c-12.5-4.2-25-8.8-37.2-13.7c-0.7-0.3-1.5-0.3-2.1-1.4c7.1,0.1,13.8-1.3,20.7-2.1c7.2-0.8,14.2-2.7,21.4-3.4
		c4.1-0.4,6.8,0.6,8.9,3.9c0.6,0.9,1.2,1.7,1.7,2.6c0.9,1.3,1.8,1.3,2.6,0c0.5-0.7,1-1.4,1.4-2.1c2.2-3.6,5.1-4.9,9.6-4.3
		c11.5,1.4,22.8,4.1,34.4,5c2.4,0.2,4.7,0.3,7.1,0.4C337.3,431.8,337.3,431.9,337.4,432.1z"/>
	<path class="st3" d="M224.5,438.5c-0.2-0.1-0.5-0.2-0.3-0.5c0.1-0.1,0.5,0,0.7,0C224.7,438.2,224.6,438.3,224.5,438.5z"/>
	<path class="st3" d="M342.1,438c0.2,0,0.6-0.1,0.7,0c0.2,0.3-0.1,0.4-0.3,0.5C342.3,438.3,342.2,438.2,342.1,438z"/>
</g>
<g class="st0">
	<path class="st4" d="M109.2,51.1c20.1,0.1,38.2-2,56.3-1.4c21.5,0.7,43.1-0.5,64.6,0.5c10.6,0.5,21.1,1.3,31.7,1
		c10.1-0.3,20.2-1.1,30.2-0.4c22.7,1.5,45.3-1.6,68-1c23.5,0.5,47.1-1,70.6,0.5c13.1,0.9,26.3,0.7,39.4,0.8
		c7.4,0.1,14.6,1.6,21.9,2.3c1.9,0.2,2.9,1.1,3.4,3.1c10.6,46.6,20.9,93.2,27.3,140.6c4.2,31.7,9.1,63.4,12.8,95.2
		c5,42.7,13.6,84.8,21.2,127.1c2.2,12.5,4.6,24.9,6.2,37.5c0.6,4.5,0.7,9.1,1,13.7c0.1,1.9-0.5,3.2-2.4,3.9c-3.6,1.4-6.9,3.7-11.1,3
		c-0.1,0-0.2,0-0.3,0.1c-18.7,6.5-38.8,8-57.1,16.2c-11.2,5-22.8,9.1-34.7,12.3c-15.3,4.1-31,5.8-46.7,7.9
		c-18.8,2.5-37.6,3.2-56.5,3.2c-1.9,0-3.8,0-5.7-0.2c-6.1-0.6-7.6-2.1-8.9-7.9c-2.1-9.7-3.8-19.4-6.1-29.1
		c-1.5-6.5-1.5-13.2-2.8-19.8c-1.6-7.9-4.6-15.5-6.5-23.4c-5-21-7.6-42.4-11.8-63.5c-1.7-8.3-5.1-16.2-6.4-24.6
		c-2.6-17.7-5.9-35.3-9-52.9c-0.9-5-1-4.6-6-5.4c-6.7-1-13.3,0.2-19.9,0.1c-2,0-2.1,1.1-2.3,2.4c-2.9,16.3-6.2,32.5-8.4,49
		c-0.7,5.2-1.6,10.4-3.2,15.4c-4.9,15.4-7.2,31.4-9.8,47.2c-2.6,15.8-5.7,31.5-10.5,46.8c-2.1,6.6-3.4,13.3-4,20.1
		c-0.7,8.8-3.4,17.2-5,25.8c-1,5.6-1.8,11.3-4.1,16.6c-0.6,1.3-1.2,2-2.6,2.3c-2.3,0.5-4.7,1-7.1,1c-34.2,0.5-68.1-2.7-101.6-9.9
		c-14.8-3.2-28.7-9.1-42.7-14.6c-11.6-4.6-23.7-7.8-36-10.1c-5.7-1.1-11.4-2.2-16.8-4.6c-1.4-0.6-2.6,0-3.9-0.2
		c-3.5-0.5-6.6-2.3-9.8-3.8c-1.6-0.8-1.2-2.5-1.1-3.8c0.3-8.9,1.4-17.6,2.9-26.4c3.4-18.9,6.6-37.9,10.3-56.8
		c8.1-41.1,13.6-82.5,19-124c5.5-43,11.2-86,19.4-128.5C59,112,63.4,89.6,69.9,67.8c0.9-3.2,0.7-6.6,1.4-9.8c1-4.1,1.1-4.3,5.4-4.9
		C88.1,51.6,99.6,50.4,109.2,51.1z M218.8,60.5c-6.7,0-13.1,0-19.6,0c-1.9,0-2.7,0.5-2.8,2.5c-0.3,3.6-1.2,7.1-2.2,10.6
		c-3.5,13-6.6,26.2-12.4,38.5c-7.8,16.5-19.8,30.1-32.1,43.1c-15.5,16.4-35.1,26.9-55.4,36.1c-5.7,2.6-11.6,4.4-17.8,5.1
		c-5.2,0.5-10.4,0.8-15.6,1.3c-4.3,0.3-4.6,0.6-5,4.1c-2.3,17-4.7,34.1-7,51.1c-2.3,16.9-4.6,33.9-6.7,50.9c-2,16-4.3,32-7.1,47.9
		c-4,22.5-8.2,45-12.4,67.6c-2.8,15.1-4.7,30.5-10.1,45c-0.9,2.5,0,3.3,2.2,3.3c7.3,0.1,14.3,1.5,21.4,3c12.4,2.5,24.7,5.4,36.6,9.9
		c12.6,4.8,25.1,10.1,38.1,13.7c12.1,3.3,24.6,5.1,37,6.7c10.7,1.3,21.5,2.7,32.3,3.4c10.9,0.7,21.9,0.5,32.8,0.8
		c2.8,0.1,4-0.8,4.3-3.5c0.1-0.8,0.3-1.5,0.5-2.2c2-10.6,3.9-21.3,6.1-31.9c6-29,12.9-57.9,19.4-86.8c4.7-20.7,9.3-41.3,14-62
		c2.6-11.3,5.2-22.6,7.8-33.9c0.9-4.1,2.4-5.5,7.8-5c2.3,0.2,4.5,0.4,6.8,0.4c5.2,0,10.5,0,15.7-0.4c4.1-0.3,6,1.2,6.8,4.9
		c4.7,21.3,9.3,42.7,14,64c10.1,46.1,20.3,92.2,30.4,138.3c1.2,5.3,2.2,10.6,3.4,15.9c0.2,1.1,0.6,2.1,2.2,2.1
		c12.3,0,24.6,0,36.8-0.9c12.6-0.9,25.1-2.8,37.7-4.3c17.9-2.2,35.2-6.4,51.8-13.3c18.8-7.8,38.1-13.7,58.1-17.3
		c5.5-1,10.9-1.4,16.4-1.9c1.8-0.2,2.2-0.7,1.6-2.5c-5-13.4-7.1-27.6-9.6-41.6c-5.1-29.4-11.2-58.6-15.8-88.1
		c-2.3-14.7-4.2-29.5-6.1-44.3c-1.4-11.1-2.9-22.2-4.4-33.3c-1.4-10.5-2.8-21.1-4.2-31.6c-1.2-8.4-2.4-16.7-3.6-25.1
		c-0.2-1.7-0.9-2.6-2.8-2.7c-3.5-0.3-7-0.8-10.5-0.9c-6.8-0.3-13.5-1-19.8-3.6c-16.8-6.8-32.6-15.5-47.3-26.4
		c-9.7-7.2-17.4-16.2-25.1-25.3c-6.7-8-13.3-16.2-18.2-25.5c-8.4-16.3-12.7-33.9-16.3-51.8c-0.6-2.9-1.3-4-4.6-4.1
		c-18.9-0.3-37.7,0.5-56.6,0.6c-6.6,0-13.1-0.3-19.7-0.4c-11.5-0.1-23-0.5-34.6,0.2C243.2,61.6,230.9,59.9,218.8,60.5z M58.1,186.9
		c-0.3,1.9,0.4,2.4,2.3,2.1c1.5-0.3,3-0.3,4.5-0.4c7.2-0.5,14.5-0.8,21.3-3.5c15.5-6.1,29.9-14.1,43.5-23.7
		c10.5-7.4,18.8-17.2,27.4-26.6c7.6-8.3,14-17.3,18.8-27.5c6.6-14.1,10.9-29,15.1-43.9c0.6-2.1-0.1-2.5-2-2.4
		c-5.4,0.2-10.8,0.2-16.3,0.3c-14.9,0.4-29.9,0.1-44.8,1.3c-11,0.9-22.1,0.6-33.1,0.5c-5.9,0-11.7,1.3-17.5,2
		c-1.5,0.2-2.7,0.7-2.6,2.7c0.2,4.5-0.8,8.9-1.3,13.3c-1.5,12.8-3.4,25.6-4.9,38.4c-1.9,15.8-4.7,31.6-7.3,47.3
		C60.1,173.6,59.1,180.2,58.1,186.9z M383.8,61.1c-2.1,0-4.2,0.1-6.3,0c-1.7-0.1-2.1,0.4-1.7,2.2c1.7,6.7,3.8,13.3,5.9,20
		c3.3,10.2,6.8,20.2,12,29.6c4.5,8.1,10,15.3,16,22.1c6.6,7.5,13.3,15,20.9,21.5c13.1,11,28.1,18.8,43.5,26.1
		c5.4,2.6,11.1,4.5,17.1,5.1c4.9,0.5,9.9,0.6,14.7,1.4c2.7,0.4,3-0.6,2.6-2.7c-1.3-7.9-2.4-15.8-3.8-23.6c-2.1-12.7-4.4-25.5-6-38.3
		c-1.2-9.9-2.7-19.8-3.8-29.7c-1.1-9-2.7-17.8-3-26.9c-0.1-1.9-1-2.3-2.4-2.5c-5-0.7-10-1.8-15-1.9c-17.5-0.2-35-0.6-52.5-1.6
		C409.6,61,396.7,61.9,383.8,61.1z"/>
	<path class="st5" d="M218.8,60.5c12.1-0.6,24.4,1.1,36.7,0.3c11.5-0.7,23-0.4,34.6-0.2c6.6,0.1,13.1,0.4,19.7,0.4
		c18.9-0.1,37.7-0.8,56.6-0.6c3.2,0.1,4,1.2,4.6,4.1c3.5,17.8,7.9,35.5,16.3,51.8c4.8,9.4,11.4,17.5,18.2,25.5
		c7.7,9.1,15.4,18.1,25.1,25.3c14.6,10.8,30.4,19.5,47.3,26.4c6.3,2.6,13.1,3.3,19.8,3.6c3.5,0.2,7,0.7,10.5,0.9
		c1.9,0.1,2.6,1,2.8,2.7c1.2,8.4,2.5,16.7,3.6,25.1c1.5,10.5,2.8,21.1,4.2,31.6c1.5,11.1,2.9,22.2,4.4,33.3
		c1.9,14.8,3.7,29.6,6.1,44.3c4.7,29.5,10.7,58.7,15.8,88.1c2.4,14,4.5,28.2,9.6,41.6c0.7,1.8,0.2,2.4-1.6,2.5
		c-5.5,0.5-10.9,0.9-16.4,1.9c-20.1,3.5-39.3,9.5-58.1,17.3c-16.6,6.9-33.9,11.1-51.8,13.3c-12.5,1.5-25,3.4-37.7,4.3
		c-12.3,0.9-24.5,0.9-36.8,0.9c-1.6,0-1.9-1-2.2-2.1c-1.2-5.3-2.2-10.6-3.4-15.9c-10.1-46.1-20.3-92.2-30.4-138.3
		c-4.7-21.3-9.3-42.7-14-64c-0.8-3.7-2.6-5.3-6.8-4.9c-5.2,0.4-10.5,0.4-15.7,0.4c-2.3,0-4.5-0.2-6.8-0.4c-5.3-0.5-6.8,1-7.8,5
		c-2.6,11.3-5.2,22.6-7.8,33.9c-4.7,20.7-9.4,41.3-14,62c-6.5,28.9-13.4,57.8-19.4,86.8c-2.2,10.6-4.1,21.2-6.1,31.9
		c-0.1,0.7-0.4,1.5-0.5,2.2c-0.3,2.6-1.5,3.5-4.3,3.5c-10.9-0.2-21.9,0-32.8-0.8c-10.8-0.7-21.6-2.1-32.3-3.4
		c-12.5-1.6-24.9-3.4-37-6.7c-13.1-3.6-25.5-8.9-38.1-13.7c-11.9-4.6-24.1-7.5-36.6-9.9c-7.1-1.4-14.1-2.9-21.4-3
		c-2.1,0-3.1-0.7-2.2-3.3c5.4-14.5,7.3-29.9,10.1-45c4.2-22.5,8.4-45,12.4-67.6c2.8-15.9,5.2-31.9,7.1-47.9
		c2.1-17,4.4-33.9,6.7-50.9c2.3-17,4.7-34.1,7-51.1c0.5-3.5,0.7-3.7,5-4.1c5.2-0.4,10.4-0.7,15.6-1.3c6.2-0.6,12.1-2.5,17.8-5.1
		c20.3-9.2,39.9-19.7,55.4-36.1c12.3-13.1,24.3-26.6,32.1-43.1c5.8-12.3,8.9-25.5,12.4-38.5c0.9-3.5,1.9-7,2.2-10.6
		c0.1-2,1-2.6,2.8-2.5C205.7,60.6,212.2,60.5,218.8,60.5z"/>
	<path class="st5" d="M58.1,186.9c1-6.7,2-13.3,3.1-20c2.6-15.7,5.4-31.4,7.3-47.3c1.5-12.8,3.4-25.6,4.9-38.4
		c0.5-4.4,1.5-8.8,1.3-13.3c-0.1-2,1.1-2.5,2.6-2.7c5.8-0.7,11.6-2,17.5-2c11,0,22.1,0.3,33.1-0.5c14.9-1.2,29.9-0.9,44.8-1.3
		c5.4-0.1,10.8-0.1,16.3-0.3c1.8-0.1,2.6,0.2,2,2.4c-4.2,14.9-8.5,29.8-15.1,43.9c-4.8,10.1-11.2,19.2-18.8,27.5
		c-8.6,9.4-16.9,19.2-27.4,26.6c-13.6,9.5-28.1,17.6-43.5,23.7c-6.8,2.7-14.1,3-21.3,3.5c-1.5,0.1-3.1,0.1-4.5,0.4
		C58.5,189.3,57.8,188.8,58.1,186.9z"/>
	<path class="st5" d="M383.8,61.1c12.8,0.8,25.7,0,38.6,0.7c17.5,1,35,1.4,52.5,1.6c5,0.1,10,1.2,15,1.9c1.4,0.2,2.3,0.6,2.4,2.5
		c0.3,9,1.9,17.9,3,26.9c1.2,9.9,2.6,19.8,3.8,29.7c1.6,12.8,3.8,25.6,6,38.3c1.3,7.9,2.5,15.8,3.8,23.6c0.3,2.1,0.1,3.1-2.6,2.7
		c-4.9-0.7-9.8-0.9-14.7-1.4c-6-0.6-11.7-2.6-17.1-5.1c-15.4-7.2-30.4-15.1-43.5-26.1c-7.7-6.4-14.3-14-20.9-21.5
		c-6.1-6.8-11.6-14.1-16-22.1c-5.2-9.4-8.7-19.4-12-29.6c-2.1-6.6-4.2-13.2-5.9-20c-0.4-1.8,0-2.2,1.7-2.2
		C379.6,61.1,381.7,61.1,383.8,61.1z"/>
</g>
<g class="st0">
	<path class="st6" d="M353.8,49c0.2,0.2,0.4,0.6,0.5,0.5c8.5-0.6,16.3,2.4,24.4,4.1c13.8,2.8,27.7,4.1,41.6,5.3
		c8.5,0.8,17,2,25.5,3.1c0.5,0.1,1,0.2,1.3,0.4c6,3.9,11.9,7.6,16.2,13.6c7.6,10.6,15.6,20.9,22.5,32.1
		c9.9,16.1,22.7,29.8,35.3,43.7c13.1,14.5,26.1,29.1,39.1,43.6c2.5,2.8,4.8,5.9,5.7,9.5c0.9,3.8-0.4,7.5-3.1,10.6
		c-14,15.7-28.5,30.7-44,44.9c-4,3.6-6.6,8.5-10.7,12.1c-4,3.6-7.3,7.7-10.2,12.3c-2.4,3.8-5.9,4.7-10.3,4.5
		c-5.9-0.3-9.7-4.1-13.7-7.4c-13.9-11.6-27.8-23.2-40-36.7c-0.3-0.4-0.6-1-1.7-0.7c0.2,1.4,0.3,2.9,0.5,4.3
		c3.3,17.5,4.5,35.1,5.6,52.8c1.6,26,0.2,52,1.2,78c1.2,32.5,1.7,65,1.7,97.5c0,6.8-0.5,13.6,1.6,20.3c0.9,3.1,0.4,6.4-0.3,9.6
		c-1.1,5.4-4.2,7.5-9.7,7.7c-16.4,0.7-32.7-1.5-49.1-1c-11.4,0.3-22.6,1.4-33.9,2.4c-16.2,1.5-32.5,1.1-48.8,0.8
		c-15.9-0.3-31.8-0.3-47.7,0.2c-16.5,0.5-33-0.1-49.3-2.5c-4.5-0.6-9.1-1-13.7-0.9c-13.7,0.3-27.4-0.9-41.1,1
		c-5.8,0.8-11.8-0.6-17.7-0.3c-3.6,0.1-6.3-2.4-7.2-6.2c-1.4-5.8-1.6-11.7,0.9-17.3c0.3-0.7,0.3-1.5,0.3-2.2
		c-0.1-32.9-0.4-65.7,1.3-98.6c0.8-16.7,0.5-33.3,0.5-50c-0.1-27.6,1.3-55,5-82.4c0.6-4.4,1.5-8.8,2.2-13.1c-1.2-0.6-1.5,0.4-2,0.9
		c-12.2,13.6-26.4,25.1-40.2,36.9c-1.7,1.5-3.5,2.9-5.4,4.2c-5.8,3.9-15.3,4.9-19.4-3.3c-2.1-4.1-5.8-7-8.7-10.5
		c-9.6-11.4-20.5-21.4-31.2-31.6c-7.1-6.8-13.3-14.4-19.9-21.7c-1.3-1.4-2.8-2.6-3.9-4.1c-3.9-5-4.2-9.9-0.7-15
		c6.9-10,15.8-18.3,23.7-27.4c11.6-13.3,23.5-26.3,35.3-39.4c9.4-10.4,16.6-22.3,24.3-33.8c5.7-8.5,12-16.4,17.9-24.8
		c4-5.8,10.1-8.8,15.6-12.6c0.5-0.3,1.3-0.2,1.9-0.3c13.3-1.9,26.7-3.2,40-4.4c13.3-1.1,26.4-3.6,39.3-6.9c3.2-0.8,6.4-1.2,9.6-1
		c0.7,0,1.7,0.6,2.2-0.6c0.6,0,1.1,0,1.7,0c1.9,2.2,2.8,4.8,3,7.7c0.2,2.9,1.5,5.5,3.4,7.7c5.8,6.8,12.3,12.7,20,17.3
		c10.6,6.3,22.2,10.1,33.8,13.8c5.9,1.9,12.2,1.3,18.1-0.4c6.9-2,13.7-4.7,20.4-7.3c12.4-4.9,23-12.5,31.7-22.8
		c2.1-2.5,3.8-5.3,3.9-8.7c0.2-2.9,1.2-5.2,3-7.4C352.6,49,353.2,49,353.8,49z M426.4,366.2c0-38.3,0-76.6,0-114.9
		c0-3.7,0-7.6,1.2-11c1.7-5,3.6-6.1,7.8-3.1c17.1,12.6,32.8,27,48.9,40.9c3,2.6,3.3,2.7,5.5-0.6c3.8-5.6,8-10.9,12.4-16.1
		c6.7-7.9,14.6-14.5,22.1-21.6c10.7-10,20.3-21.2,31.4-30.8c1.2-1,0.6-1.7-0.3-2.5c-7.8-7.3-15.5-14.6-22.4-22.8
		c-9.1-11-19.1-21.3-28.5-32c-9.7-11-19.3-22.1-26.7-34.9c-5.6-9.6-11-19.4-17.1-28.7c-4.2-6.5-8.9-12.4-17.1-14.1
		c-1.5-0.3-2.8-1.1-4.2-1.7c-5.9-2.6-11.7-3.9-18.4-3.6c-16.8,0.5-33.2-1.9-49.2-7.5c-4.1-1.4-8.1-2.7-12.4-3.5
		c-1.5-0.3-2.2,0-2.5,1.7c-0.7,4.2-2.9,7.6-5.6,10.8c-13.9,16.3-31.9,25.6-52.4,30.6c-2.3,0.6-4.9,0.3-7,1.2
		c-3.1,1.3-6.1,1.6-9.2,0.9c-3.7-0.7-7.5-1.1-11.2-1.8c-20.8-3.8-38.9-12.9-53.4-28.6c-3.7-4-7-8.1-7.9-13.6
		c-0.2-1.6-1.2-1.4-2.3-1.2c-3.7,0.6-7.3,1.6-10.8,2.9c-8.4,3.1-17.1,5.3-26,6.4c-10.1,1.3-20.2,2.9-30.4,1.4
		c-1.2-0.2-2.2,0.1-3.4,0.4c-7,2.2-13.7,5.3-20.6,7.8c-1.2,0.4-2.2,1.1-3,2.1c-2.8,3.5-5.7,6.9-8.1,10.7c-7,10.9-12.8,22.5-20,33.3
		c-8.9,13.6-19.8,25.7-30.8,37.5c-14.4,15.4-27.1,32.5-43.2,46.3c-1.3,1.1-1,1.9,0.2,2.7c2.7,2,5.1,4.3,7.4,6.7
		c9.6,10.1,19.4,20,29.7,29.3c10.8,9.8,20.6,20.4,28.7,32.5c0.4,0.5,0.8,1,1.3,1.5c0.9,0.9,1.6,0.9,2.6-0.1
		c4.3-3.9,8.7-7.7,13.1-11.5c12.1-10.4,24.1-21.1,37-30.5c4.5-3.3,5.7-1.5,7.9,2.7c0.4,0.7,0.4,1.7,0.5,2.5
		c0.5,4.3,0.7,8.5,0.7,12.8c-0.7,51.8,0.4,103.7-1.8,155.5c-0.8,19.4-0.3,38.9-0.6,58.3c-0.1,10.7,0,21.6-4.3,31.8
		c-0.5,1.2-0.3,2,1.3,2c7.6,0.2,15.2,1.5,22.8,0.1c2.2-0.4,4.6-0.3,6.8-0.3c28.8-0.7,57.2,4.1,85.8,5.2c6.6,0.3,13.3,1.2,19.9,1
		c6.9-0.2,13.8,0,20.8-0.4c9.8-0.6,19.7-0.3,29.6-0.9c11.4-0.7,22.8-1.1,34.2-2.6c16.9-2.2,34-2.6,51.1-2.1
		c8.4,0.2,16.7,0.7,25.1,0.1c2-0.2,2.6-0.6,1.8-2.5c-0.9-2-1.6-4.1-2.1-6.2c-1.4-6.9-2-14-2-21c-0.2-17.8-0.1-35.6-0.4-53.4
		C428.2,401.8,426.8,384,426.4,366.2z"/>
	<path class="st7" d="M426.4,366.2c0.4,17.8,1.8,35.6,2,53.4c0.3,17.8,0.2,35.6,0.4,53.4c0.1,7.1,0.6,14.1,2,21
		c0.4,2.2,1.2,4.2,2.1,6.2c0.9,1.9,0.3,2.4-1.8,2.5c-8.4,0.6-16.7,0.2-25.1-0.1c-17-0.5-34.1-0.2-51.1,2.1
		c-11.4,1.5-22.8,1.9-34.2,2.6c-9.9,0.6-19.8,0.3-29.6,0.9c-6.9,0.4-13.9,0.2-20.8,0.4c-6.6,0.2-13.3-0.7-19.9-1
		c-28.6-1.1-57.1-6-85.8-5.2c-2.3,0.1-4.6-0.1-6.8,0.3c-7.6,1.4-15.2,0.1-22.8-0.1c-1.6,0-1.8-0.9-1.3-2c4.3-10.2,4.2-21,4.3-31.8
		c0.3-19.4-0.3-38.9,0.6-58.3c2.2-51.8,1.2-103.7,1.8-155.5c0.1-4.3-0.2-8.6-0.7-12.8c-0.1-0.8-0.1-1.8-0.5-2.5
		c-2.2-4.1-3.4-5.9-7.9-2.7c-13,9.5-24.9,20.1-37,30.5c-4.4,3.8-8.8,7.6-13.1,11.5c-1,0.9-1.8,1-2.6,0.1c-0.5-0.5-0.9-1-1.3-1.5
		c-8.1-12.1-17.9-22.7-28.7-32.5c-10.3-9.4-20.1-19.2-29.7-29.3c-2.3-2.4-4.7-4.8-7.4-6.7c-1.2-0.8-1.5-1.6-0.2-2.7
		c16.2-13.8,28.8-30.9,43.2-46.3c11-11.8,21.9-23.9,30.8-37.5c7.1-10.8,12.9-22.4,20-33.3c2.4-3.8,5.4-7.2,8.1-10.7
		c0.8-1,1.8-1.7,3-2.1c6.9-2.5,13.5-5.7,20.6-7.8c1.1-0.3,2.2-0.6,3.4-0.4c10.2,1.5,20.3-0.2,30.4-1.4c8.9-1.1,17.6-3.2,26-6.4
		c3.5-1.3,7.1-2.3,10.8-2.9c1.1-0.2,2-0.4,2.3,1.2c0.9,5.5,4.2,9.7,7.9,13.6c14.5,15.7,32.6,24.8,53.4,28.6c3.7,0.7,7.5,1,11.2,1.8
		c3.1,0.6,6.1,0.4,9.2-0.9c2.1-0.9,4.7-0.7,7-1.2c20.5-5,38.5-14.3,52.4-30.6c2.7-3.2,4.9-6.6,5.6-10.8c0.3-1.6,1-1.9,2.5-1.7
		c4.2,0.7,8.3,2.1,12.4,3.5c15.9,5.6,32.4,8,49.2,7.5c6.7-0.2,12.6,1.1,18.4,3.6c1.4,0.6,2.8,1.4,4.2,1.7
		c8.2,1.7,12.9,7.6,17.1,14.1c6.1,9.3,11.5,19.1,17.1,28.7c7.4,12.8,17.1,23.9,26.7,34.9c9.4,10.7,19.4,21,28.5,32
		c6.9,8.2,14.6,15.6,22.4,22.8c0.9,0.8,1.5,1.5,0.3,2.5c-11.1,9.6-20.7,20.8-31.4,30.8c-7.5,7-15.4,13.7-22.1,21.6
		c-4.4,5.1-8.6,10.4-12.4,16.1c-2.2,3.3-2.6,3.2-5.5,0.6c-16.1-13.9-31.7-28.2-48.9-40.9c-4.1-3-6.1-1.9-7.8,3.1
		c-1.2,3.5-1.2,7.3-1.2,11C426.4,289.6,426.4,327.9,426.4,366.2z"/>
</g>
<g>
	<path class="st8" d="M351.5,114c-1.6,7.5-3.6,14.4-6.1,21c-10.9,29.6-28.5,54.3-52.7,74.5c-32.2,26.9-68.6,44.7-110,52
		c-2.1,0.4-4.1,1.2-6.2,1.2c-8.9,0-11.5,6.3-13.4,13.2c-1.8,6.5-2.4,13.3-2.5,20.1c-0.2,11.5-0.4,23,0,34.5
		c0.4,12.4,3.4,24.4,5.3,36.6c2.6,17.5,9.3,33.5,17.3,49c5.2,10.2,12.4,19.1,19.6,28c6.6,8.2,13.5,16.3,17.1,26.4
		c2.7,7.6,3.5,15.6,3.2,23.6c-0.2,6.4-3,12.3-7.7,16.6c-13.8,12.8-28.9,23.6-48,27.4c-5.7,1.1-11.5,1.5-17.3,1
		c-5.2-0.5-6.5-3.3-3.5-7.7c2.4-3.6,5.4-6.7,8.6-9.7c2.3-2.2,4.2-4.7,5.5-7.9c-1.8-0.3-2.7,0.9-3.6,1.7c-10.9,8.8-22.6,16.2-36,20.7
		c-12.1,4-24.6,5.9-37.2,7.3c-17.6,2-35.2,1-52.8-0.1c-5.8-0.4-11.6-0.6-17.3-1.8c-1.3-0.3-2.6-0.7-3.9-1.1c-1.9-0.7-3.4-1.7-3.4-4
		c0-2.2,1.4-3.2,3.2-3.8c4.4-1.6,8.4-4,12.4-6.3c20.6-11.9,31.6-30.6,36.4-53.1c2.8-12.9,1.6-26.1,0.4-39.1
		c-3.1-35-12.2-68.9-18.9-103.2c-3.4-17.1-5.6-34.3-6.8-51.7c-1.1-16.9-1.3-33.8,0.2-50.6c2.1-23.6,7.8-46.5,16.4-68.7
		c9.8-25.2,24.4-47.4,41.8-67.9c13.8-16.2,28.3-31.7,45.7-44.1c25.1-17.7,53.2-28.2,83.3-33.5c28.1-4.9,56.3-4,84.2,2.4
		c9.9,2.3,18.6,7.2,26.9,13.1c1.4,1,2.4,1.3,4,0.1c4.5-3.4,9.7-4.8,15.4-5c12.3-0.4,24.1,1.9,35.6,6.4c10.9,4.2,21.9,8.5,32,14.3
		c17.7,10.2,30.2,25.4,39.8,43.2c10.9,20.4,17.1,42.4,20.3,65.2c5.3,38.3,5,76.8,3.9,115.3c-0.4,12.7-0.8,25.3-1.4,38
		c-0.9,21.5-1.9,43-3,64.5c-1.3,23.5-2.3,47.1-1.2,70.6c1.1,23.2,5.8,45.6,18.8,65.5c5.1,7.7,10.5,15.2,19.7,18.5
		c12.8,4.7,25.4,5.7,37.8-1.6c4-2.3,5.9-2.1,7.2,0c1.3,2.3,0,3.9-3.7,6.5c-11.9,8.2-24.7,14.3-38.5,18.6c-22.4,7-44.5,6.7-66-3.4
		c-9.4-4.4-17-11.3-24.3-18.5c-9.4-9.4-15.2-20.7-20-33c-3.5-9.2-6.9-18.3-9.5-27.8c-5.8-20.8-5-40.8,5.6-60.3
		c7.8-14.4,13-30,18.1-45.5c5.5-16.9,5.5-34.4,5.6-52c0.1-19.2-2.2-38.1-4-57.1c-1.1-11.1-3.5-21.8-7.3-32.2
		c-0.6-1.7-1.5-3.1-2.9-4.3c-9.9-8.3-19.2-17.2-28.1-26.5c-7.9-8.3-12.9-18.4-17.5-28.8c-6.4-14.6-11.9-29.5-15.6-45.1
		C352.2,115.3,352,115,351.5,114z M19.4,536.5c4.2,0.3,7.5,0.6,10.8,0.8c21.9,1.7,43.8,2.1,65.7-1.3c17.1-2.7,33.2-7.8,47.5-18
		c5.7-4.1,12-7.4,18.1-11.1c0.6-0.4,1.3-0.7,1.8-1.2c0.8-0.9,1.2-2.1,2.7-1.6c1.6,0.6,1.3,2,1.4,3.2c0.4,7.6-2.9,13.7-8,18.9
		c-2.2,2.2-4.7,4.1-6.4,7.2c5.3,0.5,10.2-0.1,15-1.1c15.3-3.2,27.4-12.2,39.3-21.5c4.8-3.7,6-9.3,8.3-14.3c0.3-0.6,0.1-1.5-0.1-2.2
		c-0.6-1.9-0.5-3.7-0.5-5.6c0.1-5.5-0.8-10.9-2.7-16.1c-3.3-8.9-9.3-16-15.1-23.3c-6.8-8.5-13.6-17-19.1-26.4
		c-14.1-24.1-19.7-50.7-23.2-78c-1.7-13.1-1.4-26.3-0.9-39.5c0.4-13.2,1.3-26.3,6.1-38.8c0.1-0.2-0.1-0.5-0.2-0.9
		c-0.5,0-0.9,0-1.3,0.1c-14.2,1.5-28.4,1.7-42.7,2c-2.7,0.1-5.2-0.6-5.9-3.7c-0.7-3.1,1.2-5,3.6-6.4c0.9-0.5,1.9-0.9,2.9-1.3
		c7.1-2.9,14-6.3,20.7-10.1c2.8-1.6,5.5-3.4,8.9-5.5c-4.1-0.7-7.1,0.6-10,1.3c-17.3,3.8-34.5,4.5-51.4-2.1c-5.6-2.2-10.7-5-14.6-9.7
		c-0.6-0.7-1.5-1.8-0.8-2.4c0.8-0.7,1.4,0.7,2,1.1c0.5,0.3,1.1,0.6,1.6,0.8c5.5,2.3,11.2,3.7,17,4.8c11.5,2.2,23,3.2,34.6,1.4
		c9.8-1.5,19.4-3.9,29.2-5.4c8.6-1.3,16.7-3.4,23.7-8.9c0.8-0.6,1.8-1.1,2.8-1.4c1.5-0.4,3-0.2,3.9,1.3c0.9,1.5,0.5,2.9-0.8,4
		c-1.6,1.4-3.2,2.8-5,3.9c-15.9,9.2-30.7,20.1-47.3,28.1c-0.2,0.1-0.4,0.4-0.7,0.8c1.1,0,1.9,0,2.8,0c15,0.2,29.6-2.4,44.2-5.2
		c24.3-4.6,47.7-11.2,69.6-23.2c45.1-24.6,78.4-59.4,96.3-108.1c1.6-4.3,3-8.5,4.6-12.8c0.7-1.9,1.8-3.9,4.1-3.8
		c2.3,0,2.9,2.3,3.5,4c6.2,17.4,13,34.5,21.1,51.2c4.9,10.1,11,19.2,19.1,27c7.3,7.1,14.6,14.1,22.4,20.6c6.7,5.7,14.1,10,23,11.2
		c3.5,0.5,6.8,1.6,10,2.9c0.7,0.3,1.6,0.4,1.5,1.3c-0.1,1-0.9,0.8-1.7,0.9c-9.2,0.6-18.5,1.6-27.8-2.4c1.1,3.1,2.1,5.6,3,8.1
		c6.4,18.8,7.4,38.5,9.4,57.9c1.3,13.3,0.7,26.8,0.4,40.2c-0.3,14.2-3.1,28.1-7.8,41.5c-6.2,17.9-13.6,35.2-21.3,52.5
		c-2.3,5-3.1,10.1-3.3,15.6c-0.3,14.8,3.2,28.8,7,42.9c3.9,14.5,10.8,27,20.7,38.3c15.3,17.5,34.3,26.8,57.5,27.7
		c14,0.5,27.1-3.3,40.2-7.5c0.6-0.2,1.2-0.5,1.3-1.4c-0.4,0-0.7-0.1-1.1-0.1c-17.7-1.8-30.9-10.5-40.2-25.7
		c-14.1-23-19.5-48.4-20.4-74.9c-1.2-36.6,2.2-73,3.9-109.5c1.2-25.2,2.6-50.4,3-75.6c0.4-28.2,0.6-56.4-2.5-84.5
		c-2.6-24.1-8-47.4-17.7-69.6c-8.4-19.1-21-35-38.9-46c-15.3-9.5-31.6-17.1-49.3-20.9c-11.2-2.4-22.7-3.9-32.2,5.4
		c-0.9,0.9-1.9,0.7-2.8-0.2c-0.5-0.5-0.6-1.3-1.4-1.6c-8.6-3.3-16.7-8.1-25.8-10.3c-11-2.7-22.2-3.7-33.5-4.6
		c-27.7-2.1-54.5,1.3-80.6,10.7C174.4,36.5,158,42.3,144,52.9C105.2,82.2,75,118.4,56.8,164c-8.9,22.2-14.4,45.2-16,69.1
		c-2.4,36.4,1.8,72.3,9.1,107.9c6.4,31.2,14.2,62.1,17.1,93.9c1.2,13.8,2,27.7-1,41.3c-4.7,21.2-14.6,39.3-33,51.9
		C28.9,530.9,24.5,533.4,19.4,536.5z"/>
	<path class="st9" d="M19.4,536.5c5.1-3.1,9.5-5.6,13.7-8.4c18.3-12.6,28.2-30.7,33-51.9c3-13.6,2.2-27.5,1-41.3
		C64.2,403.1,56.4,372.1,50,341c-7.3-35.6-11.5-71.5-9.1-107.9c1.6-23.8,7.1-46.8,16-69.1C75,118.4,105.2,82.2,144,52.9
		c13.9-10.5,30.4-16.3,46.7-22.2c26.1-9.4,53-12.8,80.6-10.7c11.3,0.9,22.5,1.9,33.5,4.6c9.1,2.2,17.1,7,25.8,10.3
		c0.8,0.3,0.9,1.1,1.4,1.6c0.9,0.9,1.9,1.1,2.8,0.2c9.5-9.3,21-7.8,32.2-5.4c17.7,3.8,34,11.4,49.3,20.9c17.8,11,30.5,26.9,38.9,46
		c9.8,22.2,15.1,45.5,17.7,69.6c3,28.1,2.9,56.3,2.5,84.5c-0.4,25.2-1.8,50.4-3,75.6c-1.7,36.5-5.1,72.9-3.9,109.5
		c0.8,26.5,6.2,51.8,20.4,74.9c9.4,15.2,22.5,23.9,40.2,25.7c0.4,0,0.7,0.1,1.1,0.1c-0.2,0.9-0.7,1.2-1.3,1.4
		c-13.1,4.2-26.2,8-40.2,7.5c-23.2-0.9-42.2-10.2-57.5-27.7c-9.8-11.3-16.8-23.8-20.7-38.3c-3.8-14.1-7.3-28.1-7-42.9
		c0.1-5.5,1-10.6,3.3-15.6c7.8-17.2,15.1-34.6,21.3-52.5c4.7-13.4,7.5-27.3,7.8-41.5c0.3-13.4,0.9-26.9-0.4-40.2
		c-1.9-19.5-3-39.2-9.4-57.9c-0.9-2.6-1.9-5.1-3-8.1c9.3,4,18.6,3,27.8,2.4c0.7,0,1.6,0.2,1.7-0.9c0.1-1-0.9-1-1.5-1.3
		c-3.2-1.4-6.5-2.5-10-2.9c-8.9-1.3-16.3-5.6-23-11.2c-7.8-6.5-15.1-13.6-22.4-20.6c-8.1-7.8-14.2-17-19.1-27
		c-8.1-16.6-14.9-33.8-21.1-51.2c-0.6-1.7-1.1-4-3.5-4c-2.4,0-3.4,1.9-4.1,3.8c-1.6,4.2-3,8.5-4.6,12.8
		c-17.9,48.7-51.2,83.5-96.3,108.1c-21.9,12-45.4,18.6-69.6,23.2c-14.6,2.8-29.3,5.4-44.2,5.2c-0.8,0-1.7,0-2.8,0
		c0.3-0.4,0.5-0.7,0.7-0.8c16.6-7.9,31.5-18.9,47.3-28.1c1.8-1,3.4-2.5,5-3.9c1.2-1.1,1.6-2.5,0.8-4c-0.9-1.5-2.4-1.7-3.9-1.3
		c-1,0.3-2,0.7-2.8,1.4c-7,5.5-15.1,7.5-23.7,8.9c-9.8,1.5-19.4,3.9-29.2,5.4c-11.6,1.8-23.1,0.7-34.6-1.4c-5.8-1.1-11.5-2.5-17-4.8
		c-0.6-0.2-1.1-0.5-1.6-0.8c-0.7-0.4-1.2-1.8-2-1.1c-0.7,0.7,0.1,1.7,0.8,2.4c3.9,4.7,9,7.5,14.6,9.7c16.9,6.6,34,5.9,51.4,2.1
		c3-0.7,5.9-2,10-1.3c-3.4,2.1-6.1,3.9-8.9,5.5c-6.7,3.8-13.6,7.2-20.7,10.1c-1,0.4-2,0.8-2.9,1.3c-2.5,1.4-4.3,3.3-3.6,6.4
		c0.7,3,3.2,3.7,5.9,3.7c14.2-0.3,28.5-0.6,42.7-2c0.4,0,0.8-0.1,1.3-0.1c0.1,0.4,0.3,0.7,0.2,0.9c-4.8,12.5-5.6,25.7-6.1,38.8
		c-0.4,13.2-0.8,26.4,0.9,39.5c3.5,27.2,9.1,53.9,23.2,78c5.5,9.4,12.3,17.9,19.1,26.4c5.8,7.3,11.8,14.4,15.1,23.3
		c1.9,5.2,2.8,10.6,2.7,16.1c0,1.9-0.1,3.8,0.5,5.6c0.2,0.7,0.4,1.6,0.1,2.2c-2.3,5-3.5,10.6-8.3,14.3c-12,9.3-24,18.3-39.3,21.5
		c-4.8,1-9.7,1.6-15,1.1c1.7-3.1,4.3-5,6.4-7.2c5.2-5.3,8.5-11.3,8-18.9c-0.1-1.2,0.2-2.7-1.4-3.2c-1.5-0.5-2,0.7-2.7,1.6
		c-0.5,0.5-1.2,0.9-1.8,1.2c-6,3.7-12.3,7-18.1,11.1c-14.3,10.2-30.4,15.2-47.5,18c-21.8,3.5-43.7,3.1-65.7,1.3
		C26.9,537.1,23.6,536.8,19.4,536.5z"/>
</g>
<g class="st0">
	<path class="st10" d="M516.7,126.9c0.6,0.1,1.1,0.3,1.7,0.4c19.9,2,31.9,14.9,41.1,31c3.7,6.5,4.3,14.1,5.5,21.5
		c1.6,10.4,2,20.9,1.4,31.3c-0.7,10.9-2,21.8-3.4,32.6c-3.8,29-11.4,57-22.8,83.8c-8.5,20-23,35.3-42.1,45.9
		c-4.7,2.6-10.1,3.9-15.3,5.6c-1,0.3-1.9,0.4-1.8,1.7c0.3,3.3-1.9,4.9-4.2,6.3c-7.5,4.5-15.1,9-23.7,11.1
		c-13.7,3.2-27.1,7.7-40.5,12.1c-13.9,4.6-28.5,6.8-42.7,10.7c-11.8,3.2-23.3,7.9-35.4,10.1c-12.3,2.2-24.5,4.5-36.8,6.7
		c-4.1,0.7-8.2,0.4-12.3,1.8c-3.2,1.1-6.6,0.2-10-0.9c-4-1.2-8.2-1.3-12.4-1.9c-23.5-3.5-46.4-9.4-69.1-16.5
		c-12.3-3.8-25.1-5.4-37.4-9.3c-14.5-4.6-28.9-9.6-43.7-13.1c-8.2-2-15.5-6.4-22.6-10.7c-2.3-1.4-4.5-3-4.2-6.2
		c0.1-1-0.5-1.4-1.5-1.7c-27.8-7.6-45.8-26.5-57.6-51.6c-7.3-15.6-12.1-32.2-16.2-49c-4.6-19-7.7-38.3-9.1-57.8
		c-0.2-2.4-1.5-4.5-1.1-6.9c0-7.6,0-15.1,0-22.7c-0.6-3.2,0.9-6.1,1.2-9.2c1.5-15.4,6.1-29.1,18-40.1c8.1-7.4,16.5-13.3,27.8-14.3
		c0.7-0.1,1.5-0.3,2.2-0.5c4.2,0,8.4,0,12.5,0.1c2.7,0.9,5.6,1.2,8.2,2.3c12.5,5.1,22.3,14.2,31.9,23.2c6.8,6.4,13.2,13.3,17.6,21.6
		c0.6,1.1,1.4,1,2.4,0.9c5.4-0.2,10.3-2.8,15.6-3.2c26.8-2.2,53.7-2.7,80.5-3c15-0.1,29.9,0.7,44.8,1.5c19.9,0.9,39.8,0.1,59.7-0.9
		c26.3-1.4,52.6-0.5,78.9,0.8c13.2,0.6,26.5,0.1,39.3,4.4c1.2,0.4,2.6,0.3,4,0.5c1,0.2,1.5-0.1,2-1c4.4-8.3,10.6-15.1,17.4-21.4
		c11.2-10.4,22.1-21.2,37.6-25.1c0.8-0.2,1.5-0.5,0.5-1.4c0.4,0,0.8,0,1.1,0c-0.4,0.2-0.6,0.6-0.3,0.8c0.5,0.4,1,0.2,1.5-0.1
		C508.8,126.9,512.7,126.9,516.7,126.9z M468.4,348.4c-0.2-10.8-1.4-20.4-2-30c-0.6-9.3-0.6-18.7-1.5-28
		c-1.5-14.9-4.5-29.6-7.6-44.2c-3.7-17.6-6.2-35.4-8.9-53.2c-0.6-4.1-1.8-5.8-5.7-6.8c-5.2-1.3-10.5-2.2-16-2.3
		c-11.4-0.1-22.8-1.5-34.2-2c-27.7-1.2-55.4-1.9-83.1-1.5c-7.3,0.1-14.7,0.7-22-0.6c-2-0.3-3.9-0.7-5.9-0.3c-4.5,0.9-9.1,1.1-13.6,1
		c-30.8-0.5-61.5-0.1-92.3,1.3c-12.3,0.6-24.5,2.1-36.8,2.1c-5.4,0-10.3,1.4-15.4,2.6c-2.6,0.6-4.3,2.3-4.6,5.2
		c-2.7,20.8-6.3,41.4-10.5,61.9c-3.2,15.6-6.5,31.2-6.8,47.2c-0.3,16.2-2.7,32.3-3,48.5c-0.1,5.1,0.3,10.3-0.3,15.4
		c-0.5,4.1,1.2,7.8,1.8,11.8c0.1,0.8,0.9,0.9,1.4,1.3c5,3.2,10.3,5.9,16.1,7.2c13.6,3.2,26.8,7.5,39.9,11.9
		c13.7,4.6,27.9,6.8,41.8,10.5c12.1,3.2,23.7,7.9,36,10.3c16,3.1,31.9,6.5,47.3,12.1c0.9,0.3,1.6,0.1,2.5-0.2
		c5.1-1.6,10.1-3.3,15.3-4.7c12.8-3.7,26-5.7,39-8.9c11.5-2.8,22.4-7.4,34-10c13.7-3.1,27.6-5.9,40.9-10.5c8.8-3,17.6-6.3,26.7-8.3
		c8.6-1.9,17-4.4,24.4-9.3c0.6-0.4,1.5-0.6,1.7-1.4c0.7-3.4,2.3-6.8,2-10.3C468.2,360,468.8,353.6,468.4,348.4z M54.8,135.7
		c-7,0.3-14.1,0.7-19.9,5c-6.1,4.5-11.8,9.6-16.5,15.8c-2.2,3-3.8,6.4-4.8,10c-2.4,9.1-3.7,18.5-4,27.9c-0.2,8.8,0.3,17.5,1,26.2
		c1.7,19.4,4.4,38.6,9.6,57.4c3.8,13.7,8.2,27.1,13,40.5c5.5,15.3,16,26.9,27.7,37.5c6.3,5.8,13.8,9.8,22.1,12.1
		c1.3,0.4,1.9,0.4,1.8-1.2c-0.1-2.2,0.1-4.4,0-6.5c-0.4-14.4,1.5-28.7,2.3-43.1c1-20,2.7-39.9,6.9-59.5c3.3-15.4,7.9-30.6,10.5-46.2
		c1.1-6.5,2.7-12.9,5.9-18.7c4.2-7.6,2.2-14.4-2.7-20.4c-9-11.3-19.5-21.1-31.2-29.6C70.2,138.1,62.9,135.4,54.8,135.7z
		 M481.8,351.6c0,6.3,0,10.8,0,15.3c0,1.2,0.1,1.9,1.5,1.3c4.9-1.8,9.9-3.3,14.4-6.2c9.3-5.9,16.3-13.9,23.4-22.1
		c3.9-4.5,6.9-9.5,9.5-14.9c5.7-12.3,9.5-25.3,13.5-38.2c6.4-20.9,10.1-42.3,12-64.2c1.3-15.7,1.3-31.3-0.6-47
		c-2-16.3-12-26.4-24.1-35.4c-1.5-1.1-3.3-1.9-5.1-2.4c-12.8-3.5-25.1-3-36.2,5.1c-11.6,8.5-22,18.2-31,29.4
		c-4.8,6-6.9,12.9-2.7,20.4c1.9,3.3,3.2,6.9,4,10.7c3.8,18.1,8.3,36,12.2,54c3.1,14.4,6,28.9,6.2,43.8c0.1,8.3,0.8,16.6,1.6,24.8
		C481.2,335.1,482.1,344.3,481.8,351.6z"/>
	<path class="st11" d="M468.4,348.4c0.4,5.2-0.2,11.6,0.5,17.9c0.4,3.5-1.2,6.9-2,10.3c-0.2,0.8-1.1,1-1.7,1.4
		c-7.5,4.9-15.8,7.4-24.4,9.3c-9.1,2-17.9,5.2-26.7,8.3c-13.4,4.6-27.2,7.4-40.9,10.5c-11.5,2.6-22.5,7.2-34,10
		c-13,3.1-26.2,5.2-39,8.9c-5.1,1.5-10.2,3.1-15.3,4.7c-0.8,0.3-1.6,0.5-2.5,0.2c-15.4-5.6-31.3-9-47.3-12.1
		c-12.3-2.4-23.9-7.1-36-10.3c-13.9-3.7-28.2-5.9-41.8-10.5c-13.2-4.4-26.4-8.8-39.9-11.9c-5.8-1.3-11.1-4-16.1-7.2
		c-0.6-0.3-1.3-0.5-1.4-1.3c-0.7-3.9-2.4-7.6-1.8-11.8c0.7-5.1,0.2-10.3,0.3-15.4c0.3-16.2,2.8-32.3,3-48.5
		c0.3-16,3.6-31.6,6.8-47.2c4.2-20.5,7.7-41.2,10.5-61.9c0.4-2.8,2-4.5,4.6-5.2c5-1.2,10-2.6,15.4-2.6c12.3,0,24.5-1.5,36.8-2.1
		c30.8-1.4,61.5-1.9,92.3-1.3c4.6,0.1,9.1-0.2,13.6-1c2-0.4,4,0,5.9,0.3c7.3,1.2,14.6,0.7,22,0.6c27.7-0.4,55.4,0.3,83.1,1.5
		c11.4,0.5,22.8,1.9,34.2,2c5.5,0.1,10.7,1,16,2.3c3.9,1,5.1,2.7,5.7,6.8c2.7,17.8,5.2,35.6,8.9,53.2c3.1,14.6,6.1,29.3,7.6,44.2
		c0.9,9.3,0.9,18.6,1.5,28C467,328,468.2,337.6,468.4,348.4z M161.1,227.6c-1.3,0-2.7,0-4.2,0c-0.9,0-1.8,0-1.7,1.3
		c0,0.8-0.2,1.8,1,2c0.6,0.1,1.1,0.3,1.7,0.4c18.5,4.6,37.4,5.8,56.2,7.7c10.1,1,20.3,2,30.4,2.9c10.8,0.9,21.6,2.9,32.4,1.6
		c4.3-0.5,8.5-0.7,12.8,0c8.9,1.4,17.7,0.1,26.5-0.9c22.4-2.5,44.9-4.1,67.3-6.6c8.9-1,17.6-2.9,26.4-4.8c1.4-0.3,1.9-0.9,1.8-2.3
		c-0.1-1.6-1.2-1.1-2.1-1.2c-0.7,0-1.3,0-2,0c-13.6,0.7-27.1,1.9-40.7,3.2c-13.7,1.3-27.5,2.4-41.2,4.2c-15,2-30.1,3.6-45.2,3.9
		c-4.5,0.1-8.9-0.4-13.4-0.8c-9.6-1-19.1-2.2-28.6-3.3c-13.3-1.5-26.7-2.6-40.1-4C186,229.4,173.6,228.6,161.1,227.6z M281.1,365.4
		c5.6,0.4,9.6-0.2,13.6-0.2c14.9-0.1,29.3-3.2,43.5-7.3c23.6-6.9,47.4-13,70.3-21.9c1.3-0.5,4.3-0.2,3.6-2.5c-0.6-2-3-0.5-4.5-0.2
		c-22.7,4.9-45,11.5-67.3,18c-20.3,5.9-40.8,9.7-61.9,10.1c-3.3,0.1-6.2-1.6-9.5-1.7c-11.7-0.4-23-3-34.2-6.1
		c-24.2-6.7-48.2-14.1-72.7-19.7c-1.9-0.4-3.9-0.8-5.9-1.2c-0.8-0.2-1.2,0.3-1.4,1c-0.2,0.7,0.2,1,0.8,1.2c0.5,0.2,1.1,0.4,1.6,0.6
		c22.9,8.8,46.6,14.8,70,21.9C245.2,362.9,263.7,365.7,281.1,365.4z"/>
	<path class="st10" d="M161.1,227.6c12.5,1,25,1.8,37.4,3.1c13.3,1.4,26.7,2.5,40.1,4c9.5,1.1,19.1,2.3,28.6,3.3
		c4.4,0.5,8.9,0.9,13.4,0.8c15.2-0.3,30.2-1.9,45.2-3.9c13.7-1.8,27.4-2.9,41.2-4.2c13.6-1.3,27.1-2.5,40.7-3.2c0.7,0,1.3-0.1,2,0
		c0.9,0,2-0.4,2.1,1.2c0.1,1.4-0.3,2-1.8,2.3c-8.7,1.9-17.5,3.8-26.4,4.8c-22.4,2.6-44.9,4.1-67.3,6.6c-8.8,1-17.6,2.3-26.5,0.9
		c-4.3-0.7-8.5-0.5-12.8,0c-10.9,1.4-21.7-0.6-32.4-1.6c-10.1-0.9-20.3-2-30.4-2.9c-18.8-1.8-37.8-3.1-56.2-7.7
		c-0.6-0.1-1.1-0.3-1.7-0.4c-1.2-0.2-1-1.2-1-2c-0.1-1.3,0.8-1.3,1.7-1.3C158.3,227.6,159.7,227.6,161.1,227.6z"/>
	<path class="st10" d="M281.1,365.4c-17.4,0.3-35.8-2.5-54.1-8c-23.4-7.1-47.1-13.1-70-21.9c-0.5-0.2-1.1-0.4-1.6-0.6
		c-0.6-0.2-1-0.5-0.8-1.2c0.2-0.7,0.6-1.2,1.4-1c2,0.4,3.9,0.7,5.9,1.2c24.5,5.6,48.5,13,72.7,19.7c11.2,3.1,22.5,5.8,34.2,6.1
		c3.3,0.1,6.2,1.8,9.5,1.7c21.1-0.4,41.7-4.2,61.9-10.1c22.3-6.5,44.6-13.1,67.3-18c1.5-0.3,3.9-1.8,4.5,0.2
		c0.7,2.3-2.3,1.9-3.6,2.5c-22.9,8.8-46.8,15-70.3,21.9c-14.2,4.2-28.6,7.2-43.5,7.3C290.7,365.1,286.7,365.8,281.1,365.4z"/>
</g>
</svg>
