<?xml version="1.0" encoding="utf-8"?>
<!-- Generator: Adobe Illustrator 25.0.0, SVG Export Plug-In . SVG Version: 6.00 Build 0)  -->
<svg version="1.1" id="Laag_1" xmlns="http://www.w3.org/2000/svg" xmlns:xlink="http://www.w3.org/1999/xlink" x="0px" y="0px"
	 viewBox="0 0 543 543" enable-background="new 0 0 543 543" xml:space="preserve">
<path fill="#FFFFFF" stroke="#000000" stroke-width="24" stroke-miterlimit="10" d="M514.8273,527.75h-489c-6.6,0-12-5.4-12-12v-489
	c0-6.6,5.4-12,12-12h489c6.6,0,12,5.4,12,12v489C526.8273,522.35,521.4274,527.75,514.8273,527.75z"/>
<path stroke="#000000" stroke-miterlimit="10" d="M292.4561,121.9831l-141.5523,88.4758H79.7929
	c-7.9845,0-14.5173,6.5327-14.5173,14.5173v92.5477c0,7.9845,6.5328,14.5173,14.5173,14.5173h71.111l141.5522,88.4757
	c6.2043,0,11.2806-5.3557,11.2806-11.9016V133.8848C303.7367,127.3389,298.6604,121.9831,292.4561,121.9831z"/>
<path stroke="#000000" stroke-miterlimit="10" d="M474.9062,334.8276l-6.1545,6.1545c-4.6669,4.6669-12.3036,4.6669-16.9706,0
	L332.892,222.0929c-4.6669-4.6669-4.6669-12.3037,0-16.9706l6.1545-6.1545c4.6669-4.6669,12.3037-4.6669,16.9706,0L474.9062,317.857
	C479.5732,322.5239,479.5732,330.1606,474.9062,334.8276z"/>
<path stroke="#000000" stroke-miterlimit="10" d="M341.5965,343.5321l-6.1545-6.1545c-4.6669-4.6669-4.6669-12.3037,0-16.9706
	l118.8891-118.8892c4.6669-4.6669,12.3036-4.6669,16.9706,0l6.1545,6.1545c4.6669,4.6669,4.6669,12.3037,0,16.9706
	L358.5671,343.5321C353.9002,348.199,346.2634,348.199,341.5965,343.5321z"/>
</svg>
