<?xml version="1.0" encoding="utf-8"?>
<!-- Generator: Adobe Illustrator 24.2.3, SVG Export Plug-In . SVG Version: 6.00 Build 0)  -->
<svg version="1.1" id="Laag_1" xmlns="http://www.w3.org/2000/svg" xmlns:xlink="http://www.w3.org/1999/xlink" x="0px" y="0px"
	 viewBox="0 0 359.23 376.09" style="enable-background:new 0 0 359.23 376.09;" xml:space="preserve">
<style type="text/css">
	.st0{fill:#FFFFFF;stroke:#000000;stroke-width:23;stroke-linecap:round;stroke-linejoin:round;stroke-miterlimit:10;}
	.st1{fill:#FFFFFF;stroke:#000000;stroke-width:23;stroke-miterlimit:10;}
</style>
<path class="st0" d="M349.87,184.51l-10-28.35c0-3.12-2.55-5.67-5.67-5.67h-104c3.12,0-4.33-2.55-4.33-5.67l10-32.33l5-69l-12-26.33
	c0-3.12-2.55-5.67-5.67-5.67h-39.66c-3.12,0-5.67,2.55-5.67,5.67v37.33l-10,57l-20,33.33c0,3.12-7.45,5.67-4.33,5.67h-11
	c-3.12,0-5.67,2.55-5.67,5.67v184.66c0,3.12,2.55,5.67,5.67,5.67H321.2c3.12,0,5.67-2.55,5.67-5.67l13-36.48l10-39.83l-10-39.83
	L349.87,184.51z"/>
<path class="st1" d="M131.2,365.49H18.98c-3.12,0-5.67-2.55-5.67-5.67V135.16c0-3.12,2.55-5.67,5.67-5.67H131.2
	c3.12,0,5.67,2.55,5.67,5.67v224.66C136.87,362.94,134.32,365.49,131.2,365.49z"/>
<path class="st1" d="M339.87,224.68"/>
</svg>
