<?xml version="1.0" encoding="utf-8"?>
<!-- Generator: Adobe Illustrator 25.0.0, SVG Export Plug-In . SVG Version: 6.00 Build 0)  -->
<svg version="1.1" xmlns="http://www.w3.org/2000/svg" xmlns:xlink="http://www.w3.org/1999/xlink" x="0px" y="0px"
	 viewBox="0 0 384.5 333" style="enable-background:new 0 0 384.5 333;" xml:space="preserve">
<style type="text/css">
	.st0{display:none;}
	.st1{display:inline;fill:#1D1D1B;}
	.st2{display:inline;fill:#FFFFFF;}
	.st3{display:inline;}
	.st4{fill:#FFFFFF;}
	.st5{fill:#1D1D1B;}
	.st6{fill:#FFFFFF;stroke:#1D1D1B;stroke-width:19;stroke-miterlimit:10;}
	.st7{fill:none;stroke:#1D1D1B;stroke-width:19;stroke-miterlimit:10;}
</style>
<g id="Laag_1" class="st0">
	<path class="st1" d="M371.2,283.1c-12-63.2-32.3-124.4-44.1-187.7c-3.7-20-12.9-39.1-20.2-58.4c-1.1-3-3-6.3-5.6-8
		c0-0.1-0.1-0.2-0.2-0.3c-3.3-5.2-7.4-10-12.1-14c-2.3-2-4.9-3.8-8-3.9c-1.4-0.1-2.7,0.2-3.9,0.8c-0.9-0.2-2-0.3-3.1-0.2
		c-4.4,0.1-8.9,0-13.3,0.5c-37.6,4.4-75.2,6.2-113.2,5c-21.8-0.7-44.1-2-65.6,3.4c-5.2,1.3-13.1-0.6-15.8,9.7
		C58.5,58.2,51,86.6,43.8,115c-12.7,50.1-23.2,100.7-31,151.7c-3.1,20-1.2,40.8-1.6,61.3h26.7c1.7-4.9,6.1-3.3,9.6-3.8
		c30.3-4.4,60.5,1.6,90.8,0c6.5-0.4,15.6,2.5,16.1-7.9c0.3-7.3-4.5-7.7-9.5-7.8c0-0.2-0.1-0.5-0.1-0.7c0-1,0-2.1,0-3.1
		c0-1.2,0.1-2.3,0.2-3.5c0.1-0.8,0.1-1.5,0.2-2.2c1.9-2.4,2.5-6.2,3.2-9.7c6.4-29.3,12.5-58.8,19.3-88c1.7-7.5-0.8-18.3,13.2-18.4
		c13.1-0.1,22.8,2,24.5,17.5c1,8.8,2.8,17.5,4.9,26c6.4,26.9,7.9,55.1,21.9,79.9c4.9,8.6,10.1,15.1,19.5,5.6
		c2.8-2.8,5.4-2.9,8.3-2.8c37.9,0.3,75.6-6,113.5-3.9V286C372.8,285,371.4,284.1,371.2,283.1z M343.2,286.8c-28,5-56.5,3.8-84.6,7
		c-12.1,1.4-17-4-19.3-14.9c-5.5-26.2-11.4-52.3-17.6-78.4c-5.5-23-16-31-38.9-32.9c-17.6-1.5-28.5,6.4-32.3,22.6
		c-7.5,31.8-13.9,63.9-20.4,96c-0.7,3.7-1.1,7.7,0.5,10.7c-0.7,1.5-1.1,3.2-1,4.9c-0.3,1.8-0.6,3.5-0.7,5.3
		c-30.8-2.6-61.6-3.1-92.5,0.6c-5.7,0.7-10.7,2-9.5-6.3c4-27.9,7.2-55.9,12.5-83.6c11-58.2,29.3-115,36.6-174
		c1.1-8.7,5.7-9.7,12.8-9.8c41.8-0.4,83.5-0.4,125.3-2.2c20.1-0.9,40.5-0.2,60.3-5.1c0.5-0.1,0.9-0.2,1.3-0.3
		c5.1,4.2,10.5,8,16.3,11.2c0.5,1.3,0.9,2.5,0.9,3.7c1,16.1,9.9,29.8,13.7,44.9c15.5,62.3,29.9,124.8,45.5,187.1
		C354.7,283.2,351.9,285.3,343.2,286.8z"/>
	<path class="st2" d="M343.2,286.8c-28,5-56.5,3.8-84.6,7c-12.1,1.4-17-4-19.3-14.9c-5.5-26.2-11.4-52.3-17.6-78.4
		c-5.5-23-16-31-38.9-32.9c-17.6-1.5-28.5,6.4-32.3,22.6c-7.5,31.8-13.9,63.9-20.4,96c-0.7,3.7-1.1,7.7,0.5,10.7
		c-0.7,1.5-1.1,3.2-1,4.9c-0.3,1.8-0.6,3.5-0.7,5.3c-30.8-2.6-61.6-3.1-92.5,0.6c-5.7,0.7-10.7,2-9.5-6.3c4-27.9,7.2-55.9,12.5-83.6
		c11-58.2,29.3-115,36.6-174c1.1-8.7,5.7-9.7,12.8-9.8c41.8-0.4,83.5-0.4,125.3-2.2c20.1-0.9,40.5-0.2,60.3-5.1
		c0.5-0.1,0.9-0.2,1.3-0.3c5.1,4.2,10.5,8,16.3,11.2c0.5,1.3,0.9,2.5,0.9,3.7c1,16.1,9.9,29.8,13.7,44.9
		c15.5,62.3,29.9,124.8,45.5,187.1C354.7,283.2,351.9,285.3,343.2,286.8z"/>
</g>
<g id="Laag_2" class="st0">
	<g class="st3">
		<path class="st4" d="M174.9,31.1c6.7,9.5,18.7,15,30.3,13.8c11.6-1.2,22.2-8.9,26.9-19.6c22.6-2.8,46,0.7,66.9,9.8
			c25.9,11.4,47.2,30.9,66.4,51.7c1.6,1.7,3.2,3.6,3.6,5.9c0.5,2.9-1.2,5.7-2.7,8.2c-8.4,13.3-16.9,26.7-25.3,40
			c-2.3,3.6-4.9,7.5-8.9,8.8c-4.8,1.6-9.9-0.9-14.4-3.4c-8.4-4.6-16.8-9.3-25.2-13.9c-1.7,53.8-3.3,107.6-5,161.4
			c-0.1,2-0.2,4.1-1.4,5.8c-1.7,2.3-4.9,2.7-7.7,3c-56.1,4.9-112.4,6.8-168.7,5.6c-2.7-0.1-5.7-0.3-7.4-2.3
			c-1.7-1.9-1.5-4.7-1.3-7.3c4.5-54.4,8.9-108.7,13.4-163.1c-16.6,4.9-27,20.8-40.4,31.7c-2,1.7-4.4,3.3-7,3
			c-2.2-0.2-4.1-1.8-5.7-3.4c-17.4-16.4-29.4-38.4-33.9-61.9c-0.6-2.9-1-5.9-0.1-8.7c1.4-4.5,5.8-7.3,9.8-9.7
			c24.4-15,47.5-32.2,68.7-51.4c23.5-1.3,46.9-2.6,70.4-3.8"/>
		<g>
			<path class="st5" d="M168.9,34.7c8.6,11.6,22.4,18.8,37,17.2c13.8-1.5,26.3-10.3,32.2-23c-2,1.2-4,2.3-6,3.5
				c33.3-3.8,64.9,5.8,91.7,25.5c12.5,9.2,23.7,20.2,34.3,31.5c1.9,2.1,4.5,3.4,3.2,6.1c-1.9,4.1-5,8.1-7.5,11.9
				c-4.7,7.5-9.5,15-14.2,22.5c-2.3,3.7-4.5,8.1-7.4,11.3c-2.9,3.1-6.1,1.6-9.5-0.1c-9-4.6-17.8-9.8-26.7-14.7
				c-4.7-2.6-10.4,0.7-10.5,6c-1,33.2-2.1,66.4-3.1,99.6c-0.5,16.6-1,33.2-1.5,49.8c-0.1,3.8-0.9,8.2-0.4,12c0.2,1.8,0.5,1.2-1,1.6
				c-1.9,0.5-4,0.4-6,0.6c-8.2,0.7-16.5,1.3-24.8,1.9c-33.4,2.3-66.8,3.5-100.2,3.6c-8.3,0-16.6,0-24.8-0.1c-4,0-7.9-0.1-11.9-0.2
				c-1.1,0-3.1,0.3-4.2-0.2c0.2,0.1,0.6,1.8,0.3-0.1c-0.1-1,0.1-2.3,0.2-3.3c1.3-16.6,2.7-33.2,4.1-49.7
				c3.1-37.5,6.1-74.9,9.2-112.4c0.4-4.5-4.8-8.1-8.9-6.7c-13.5,4.3-23.3,14.1-33.1,23.8c-2.3,2.3-4.6,4.6-7.1,6.8
				c-1.2,1.1-2.5,2.6-4,3.3c-1.2,0.6-0.7,0.6-2.3-0.7c-5.6-4.9-10.5-11-14.7-17.2C43,132.5,37,118.6,34.1,104
				c-0.7-3.4-0.9-6,1.9-8.3c2.7-2.4,6.1-4,9.1-5.9c7.2-4.5,14.3-9.3,21.3-14.2c15.4-10.9,30.2-22.8,44.2-35.4
				c-1.6,0.7-3.3,1.4-4.9,2.1c23.5-1.3,46.9-2.6,70.4-3.8c9-0.5,9-14.5,0-14c-13,0.7-26.1,1.4-39.1,2.1c-5.9,0.3-11.7,0.6-17.6,1
				c-5.8,0.3-13.8-0.7-18.6,2.8c-4.6,3.4-8.7,7.7-13.1,11.4c-4.9,4.1-9.9,8.2-15,12.1c-9.2,7-18.7,13.7-28.4,20
				C36,79,24,83.8,20.6,93.8c-3.3,9.7,1.7,22.7,5.2,31.9c3.8,10,8.7,19.5,14.9,28.2c3,4.2,6.3,8.3,9.8,12.2c3.3,3.6,7,7.9,11.6,10
				c11.4,5.1,21.7-8,28.8-15.1c7.4-7.4,15-15.3,25.3-18.6c-3-2.2-5.9-4.5-8.9-6.7c-3,36.5-6,72.9-9,109.4
				c-1.5,17.9-3.3,35.8-4.4,53.7c-0.5,7.9,2.9,14.6,11.2,16.1c8.1,1.5,17.2,0.7,25.4,0.7c36.4,0.3,72.9-0.7,109.2-3
				c8.9-0.6,17.8-1.2,26.8-1.9c7.3-0.6,17.8,0.3,23.6-5c5.9-5.4,4.5-15.4,4.7-22.7c0.3-9,0.6-17.9,0.8-26.9
				c1.3-41.2,2.6-82.4,3.8-123.6c-3.5,2-7,4-10.5,6c5.6,3.1,11.2,6.2,16.8,9.3c5.7,3.1,11.6,7.2,18,8.8c13.5,3.4,20.3-7.2,26.5-17.1
				c7.2-11.4,14.4-22.8,21.6-34.2c2.9-4.6,5.3-9.5,3.8-15.1c-1.5-5.3-6.2-9.4-9.9-13.2c-16.3-17.1-34.4-33.2-55.5-44.2
				c-21.7-11.2-46.4-16.7-70.9-15.1c-3.2,0.2-8,0-10.7,1.6c-2.8,1.7-3.5,5.1-5.3,7.6c-2.8,4-6.9,7.3-11.5,9.2
				c-10.7,4.6-23.9,0.8-30.8-8.6c-2.3-3.1-6-4.5-9.6-2.5C168.4,26.8,166.7,31.6,168.9,34.7L168.9,34.7z"/>
		</g>
	</g>
</g>
<g id="Laag_3" class="st0">
	<g class="st3">
		<path class="st4" d="M210.6,92.9c-8.7,23.7-30.9,41.8-55.8,45.7c4.9-5.9,8.8-12.6,11.7-19.7c1.2-3.1,2.1-7.1-0.4-9.3
			c-2.8-2.5-7.1-0.5-10.3,1.4c-21.6,13.2-45.7,22.3-70.6,26.6c5-1.9,9.5-5.4,12.6-9.8c-9.2-0.4-18.4-0.8-27.6-1.2
			c-2.5-0.1-5.1-0.3-7.1-1.7c-1.9-1.4-2.9-3.7-3.6-5.9C50,89.8,68.4,57.1,94.7,41s58.3-19.2,89.2-19.9c32.4-0.7,65.8,1.1,95,15.2
			c12.7,6.2,24.7,14.9,32,27c5.6,9.2,8.2,19.8,9.8,30.4c5.3,35.7-1.1,71.9-2.9,107.9c-0.5,9.9-0.6,20.3,3.7,29.2
			c4.2,9,14,16.1,23.7,14.1c-11.2,8.2-25.5,12-39.3,10.6c-3.7-0.4-8.4-0.6-9.9,2.8c-0.8,1.8-0.2,4,0.6,5.8c1.9,4.5,4.7,8.7,5.9,13.5
			c1.2,4.8,0.4,10.6-3.6,13.4c-8.3,5.9-18.7-5.6-28.8-5.4c-5,0.1-9.4,3.1-13.6,5.8c-11.7,7.4-24.4,13.3-37.6,17.4
			c-11.7,3.6-27.8,3.9-32.5-7.4c-1.7-4.2-2.4-10.2-6.9-10.8c-1.7-0.2-3.4,0.6-4.9,1.4c-14.5,7.5-28.8,16.5-45,19.1
			c-24.9,4-49.4-7.6-74.5-10.6c8.9-3.3,17.5-7.4,25.7-12.2c-7.4,0.1-14.8,0.3-22.2,0.4c7.1-11.8,14.4-23.8,17.9-37.1
			c2.4-9,3.1-18.3,3.4-27.6c1.2-31.6-1.1-63.4-6.9-94.5"/>
		<g>
			<path class="st5" d="M204.8,91.3c-8.4,22-28.6,37.6-51.6,41.5c1.9,3.3,3.9,6.7,5.8,10c3.7-4.5,7-9.3,9.7-14.5
				c2.4-4.5,5.1-9.7,4.9-15c-0.1-4.7-3-9.1-7.7-10.4c-5.3-1.5-10.3,1.2-14.7,3.9c-20.9,12.5-43.7,20.9-67.7,25.1
				c1.1,3.9,2.1,7.7,3.2,11.6c6.7-2.8,11.8-6.7,16.2-12.5c2.9-3.9-1.1-8.9-5.2-9c-5.3-0.2-10.5-0.4-15.8-0.7
				c-2.3-0.1-4.6-0.2-6.9-0.3c-2-0.1-5.8,0.4-7.8-0.5c-2.6-1.2-3.2-6.7-3.6-9.3c-0.7-3.9-0.8-7.9-0.6-11.9c1-15,8.6-29.2,18.7-40
				c24.7-26.5,63.5-31.1,97.8-32.1c35.9-1,75.4,0.1,106.6,20c15.3,9.8,24,23.7,27.5,41.4c4,19.9,3.4,40.7,2,60.9
				c-0.8,11.3-1.8,22.5-2.7,33.8c-0.9,10.7-2.1,21.7-1.3,32.4c0.8,9.8,3.5,19.6,10.6,26.8c6.5,6.7,15.2,9.7,24.4,8.3
				c-1.5-3.7-3.1-7.3-4.6-11c-10.5,7.4-22.6,10.9-35.4,9.9c-4.7-0.4-9.8-0.6-13.6,2.7c-4.8,4.2-3.8,10.4-1.4,15.6
				c2,4.5,6.2,9.8,5.3,15.1c-1,5.7-6.4,3.2-10,1.7c-4.2-1.8-8.3-3.9-12.8-4.7c-6.6-1.1-12.4,1-17.9,4.4
				c-11.4,6.9-22.8,13.2-35.5,17.5c-7.4,2.5-19.4,6-26.3,0.5c-3-2.4-3.3-6.7-4.9-10c-2.2-4.8-6.1-8.2-11.6-7.6
				c-5.7,0.5-11.4,4.9-16.3,7.5c-6,3.2-12,6.4-18.4,8.9c-29.6,11.5-58.4-2.8-88-6.6c0.5,3.9,1.1,7.9,1.6,11.8
				c9.4-3.5,18.5-7.8,27.2-12.8c5.1-2.9,3-11.3-3-11.2c-7.4,0.1-14.8,0.3-22.2,0.4c1.7,3,3.5,6,5.2,9c6.9-11.4,13.8-23.1,17.8-36
				c4.1-13.3,4.4-27.6,4.7-41.4c0.5-29-2.1-57.9-7.4-86.4c-1.4-7.6-13-4.4-11.6,3.2c4.9,26.8,7.3,54,7,81.3
				c-0.1,12.8-0.3,26-3.7,38.5c-3.5,12.5-10.4,23.8-17.1,34.8c-2.3,3.9,0.7,9.1,5.2,9c7.4-0.1,14.8-0.3,22.2-0.4
				c-1-3.7-2-7.5-3-11.2c-7.8,4.5-15.9,8.4-24.3,11.6c-6.6,2.5-5.1,10.9,1.6,11.8c26.6,3.4,52.2,15.7,79.5,9.7
				c13.1-2.8,25-9.5,36.8-15.8c0.4-0.2,7-4.1,6.6-4.3c1.1,0.3,1.8,4.8,2.2,5.7c1.6,4.4,4.2,8.2,8.1,10.8c8.2,5.5,19.3,5,28.5,2.8
				c12.1-2.8,24.1-8.3,34.9-14.4c5.1-2.9,10.8-8.1,16.7-9.3c5.2-1.1,10.6,2.4,15.2,4.3c9.2,3.8,20.3,3.1,24.3-7.7
				c2.3-6.3,0.8-12.7-1.8-18.5c-1-2.1-4.6-6.8-4.2-8.9c-0.2,0.1-0.5,0.2-0.7,0.3c0.7-0.1,1.5-0.2,2.2-0.1c1.4,0,2.8,0.2,4.2,0.3
				c14.4,1,28.9-3.3,40.7-11.6c5.7-4,2.1-12-4.6-11c-8.9,1.4-15.9-7.2-18.2-14.8c-3-9.8-1.8-20.5-1.1-30.5c1.4-21.6,4-43.1,4.4-64.7
				c0.4-20.1-0.5-42-8.5-60.7c-7-16.6-20.9-28.7-36.9-36.6c-35.4-17.7-77.1-18.4-115.8-16.1c-36.3,2.1-75.4,10.8-99,40.8
				c-11.4,14.4-18.9,32.8-17.3,51.4c0.7,8.2,2.4,19.7,10.8,23.5c4.8,2.1,10.8,1.6,16,1.8c6.6,0.3,13.1,0.6,19.7,0.8
				c-1.7-3-3.5-6-5.2-9c-2.3,3-5.5,5.5-9,7c-7.1,2.9-4.6,12.9,3.2,11.6c17.9-3.2,35.3-8.7,51.8-16.4c4.3-2,8.5-4.1,12.6-6.4
				c3.2-1.8,7.4-3.4,10.1-5.8c1.7-0.2,1.8-0.5,0.4-0.9c-0.1,0.7-0.3,1.5-0.5,2.2c-0.7,2.1-1.8,4.2-2.8,6.2c-2.2,4.3-4.8,8.3-7.8,12
				c-3.8,4.8-0.3,11,5.8,10c27.3-4.6,50.2-24.2,60-49.9C219.1,87.3,207.5,84.2,204.8,91.3L204.8,91.3z"/>
		</g>
	</g>
	<g class="st3">
		<path class="st4" d="M212.3,104.1c3,18.9,6,38,13.6,55.5s20.2,33.7,37.6,41.5"/>
		<g>
			<path class="st5" d="M206.5,105.7c6,37.8,15.4,82.8,54,100.6c7,3.2,13.1-7.1,6.1-10.4c-35.6-16.4-43-58.7-48.5-93.4
				C216.9,94.9,205.3,98.2,206.5,105.7L206.5,105.7z"/>
		</g>
	</g>
</g>
<g id="Laag_4" class="st0">
	<g class="st3">
		<path class="st4" d="M155.7,50.5c25.9-1.6,51.8-3.2,77.7-4.7c2.2-0.1,4.7-0.2,6.4,1.3c1.7,1.4,2.1,3.8,2.3,6
			c6.1,50.9,12.2,101.8,12.4,153.1c0.1,17.3-0.4,35.2,6,51.3c-19.6,6.1-40,9.6-60.6,10.2c-2.5,0.1-5.3,0-7.1-1.8
			c-2.7-2.8-1.1-7.4-1.9-11.2c-1.5-7-11.2-9.1-17.7-6.1c-6.5,2.9-11.1,8.9-16.8,13.2c-11.4,8.7-26.5,10.4-40.7,11.8
			c-20.3,2-40.7,4.1-61,6.1c-10.7,1.1-22.4,1.9-31.5-3.9c-12-7.7-14.8-24.4-11.9-38.3c5.4-26,28.1-47.6,54.4-51.3
			c18.9-2.7,38.3,3.3,57.2,0.8c7.1-0.9,14.4-3.2,19.3-8.5c5.8-6.4,6.8-15.7,7.6-24.3c2.9-34.1,5.9-68.2,8.8-102.2"/>
		<g>
			<path class="st5" d="M155.7,56.5c19.6-1.2,39.2-2.4,58.8-3.6c4.6-0.3,9.3-0.6,13.9-0.8c1.8-0.1,4.7-0.9,6.3-0.4
				c0.6,0.2,0.8-0.1,1.2,0.3c0.5,0.5,0.4,2.4,0.5,3c1.3,9.8,2.3,19.6,3.5,29.4c4.4,38.1,8.1,76.4,8.6,114.8c0.3,20-1,40.8,6.3,59.8
				c1.4-2.5,2.8-4.9,4.2-7.4c-10.1,3.1-20.4,5.6-30.8,7.3c-5.3,0.9-10.6,1.5-16,2c-2.8,0.2-5.6,0.4-8.4,0.5
				c-1.2,0.1-6.1,0.6-6.5,0.2c-0.7-0.8,0-7.6-0.7-9.7c-1.1-3.5-3.7-6.3-6.7-8.1c-6.8-4.1-15.6-3-22.2,1c-7.6,4.6-12.8,11.9-20.8,16
				c-8.1,4-17.4,5.4-26.3,6.4c-22.2,2.4-44.4,4.5-66.6,6.7c-8.8,0.8-19,2-27-2.7c-6.8-4.1-9.9-12-10.5-19.6
				c-1.4-15.9,6.3-31.8,17.5-42.8c12.7-12.5,28.9-17.7,46.5-17.2c19.2,0.6,41.8,6.6,59.4-3.7c9-5.2,13.3-14.5,14.8-24.4
				c1.8-11.5,2.3-23.3,3.3-34.8c2.2-25.6,4.4-51.1,6.6-76.7c0.7-7.7-11.3-7.6-12,0c-2,23.6-4.1,47.2-6.1,70.8
				c-1,11.3-1.8,22.5-2.9,33.8c-0.9,9.3-3,18.5-12.5,22.4c-9.4,3.8-20.4,3-30.3,2.2c-11.1-0.9-22.2-2.3-33.2-1.1
				c-17.1,1.9-33,10.2-44.6,22.8c-11.3,12.3-19,28.9-18.7,45.9c0.4,18.1,10.5,34.2,29.3,37.2c10,1.6,20.1,0,30-1
				c11.5-1.1,23-2.3,34.5-3.4c19.4-1.9,41.9-1.7,58.9-12.6c4.4-2.8,8-6.5,11.9-9.9c3.2-2.9,7-6.1,11.7-5.6c4.7,0.4,4.7,2.7,4.8,6.7
				c0.1,4.7,1.4,9.4,5.8,11.9c4.5,2.6,10.5,1.7,15.4,1.5c6.2-0.4,12.3-1,18.4-1.8c12.6-1.7,25-4.5,37.2-8.3c2.9-0.9,5.4-4.3,4.2-7.4
				c-6.9-18.1-5.6-37.6-5.8-56.6c-0.3-20.7-1.5-41.3-3.2-61.9c-1.7-20.3-3.9-40.5-6.3-60.8c-0.6-4.9-1.1-9.8-1.7-14.7
				c-0.5-4.6-0.5-9.9-2.1-14.3c-3.3-9.2-12.8-7.8-20.7-7.3c-23.6,1.4-47.2,2.9-70.7,4.3C148,44.9,148,56.9,155.7,56.5L155.7,56.5z"
				/>
		</g>
	</g>
	<g class="st3">
		<path class="st4" d="M269.5,57.4c25.9-1.6,51.8-3.2,77.7-4.7c2.2-0.1,4.7-0.2,6.4,1.3c1.7,1.4,2.1,3.8,2.3,6
			c6.1,50.9,12.2,101.8,12.4,153.1c0.1,17.3-0.4,35.2,6,51.3c-19.6,6.1-40,9.6-60.6,10.2c-2.5,0.1-5.3,0-7.1-1.8
			c-2.7-2.8-1.1-7.4-1.9-11.2c-1.5-7-11.2-9.1-17.7-6.1c-6.5,2.9-11.1,8.9-16.8,13.2c-11.4,8.7-26.5,10.4-40.7,11.8
			c-20.3,2-40.7,4.1-61,6.1c-10.7,1.1-22.4,1.9-31.5-3.9c-12-7.7-14.8-24.4-11.9-38.3c5.4-26,28.1-47.6,54.4-51.3
			c18.9-2.7,38.3,3.3,57.2,0.8c7.1-0.9,14.4-3.2,19.3-8.5c5.8-6.4,6.8-15.7,7.6-24.3c2.9-34.1,5.9-68.2,8.8-102.2"/>
		<g>
			<path class="st5" d="M269.5,63.4c19.6-1.2,39.2-2.4,58.8-3.6c4.6-0.3,9.3-0.6,13.9-0.8c1.8-0.1,4.7-0.9,6.3-0.4
				c0.6,0.2,0.8-0.1,1.2,0.3c0.5,0.5,0.4,2.4,0.5,3c1.3,9.8,2.3,19.6,3.5,29.4c4.4,38.1,8.1,76.4,8.6,114.8c0.3,20-1,40.8,6.3,59.8
				c1.4-2.5,2.8-4.9,4.2-7.4c-10.1,3.1-20.4,5.6-30.8,7.3c-5.3,0.9-10.6,1.5-16,2c-2.8,0.2-5.6,0.4-8.4,0.5
				c-1.2,0.1-6.1,0.6-6.5,0.2c-0.7-0.8,0-7.6-0.7-9.7c-1.1-3.5-3.7-6.3-6.7-8.1c-6.8-4.1-15.6-3-22.2,1c-7.6,4.6-12.8,11.9-20.8,16
				c-8.1,4-17.4,5.4-26.3,6.4c-22.2,2.4-44.4,4.5-66.6,6.7c-8.8,0.8-19,2-27-2.7c-6.8-4.1-9.9-12-10.5-19.6
				c-1.4-15.9,6.3-31.8,17.5-42.8c12.7-12.5,28.9-17.7,46.5-17.2c19.2,0.6,41.8,6.6,59.4-3.7c9-5.2,13.3-14.5,14.8-24.4
				c1.8-11.5,2.3-23.3,3.3-34.8c2.2-25.6,4.4-51.1,6.6-76.7c0.7-7.7-11.3-7.6-12,0c-2,23.6-4.1,47.2-6.1,70.8
				c-1,11.3-1.8,22.5-2.9,33.8c-0.9,9.3-3,18.5-12.5,22.4c-9.4,3.8-20.4,3-30.3,2.2c-11.1-0.9-22.2-2.3-33.2-1.1
				c-17.1,1.9-33,10.2-44.6,22.8c-11.3,12.3-19,28.9-18.7,45.9c0.4,18.1,10.5,34.2,29.3,37.2c10,1.6,20.1,0,30-1
				c11.5-1.1,23-2.3,34.5-3.4c19.4-1.9,41.9-1.7,58.9-12.6c4.4-2.8,8-6.5,11.9-9.9c3.2-2.9,7-6.1,11.7-5.6c4.7,0.4,4.7,2.7,4.8,6.7
				c0.1,4.7,1.4,9.4,5.8,11.9c4.5,2.6,10.5,1.7,15.4,1.5c6.2-0.4,12.3-1,18.4-1.8c12.6-1.7,25-4.5,37.2-8.3c2.9-0.9,5.4-4.3,4.2-7.4
				c-6.9-18.1-5.6-37.6-5.8-56.6c-0.3-20.7-1.5-41.3-3.2-61.9c-1.7-20.3-3.9-40.5-6.3-60.8c-0.6-4.9-1.1-9.8-1.7-14.7
				c-0.5-4.6-0.5-9.9-2.1-14.3c-3.3-9.2-12.8-7.8-20.7-7.3c-23.6,1.4-47.2,2.9-70.7,4.3C261.8,51.9,261.7,63.9,269.5,63.4
				L269.5,63.4z"/>
		</g>
	</g>
</g>
<g id="Laag_5">
	<circle class="st6" cx="195.8" cy="166.5" r="152.5"/>
	<line class="st7" x1="81.7" y1="267.7" x2="308.5" y2="63.8"/>
</g>
</svg>
