<?xml version="1.0" encoding="utf-8"?>
<!-- Generator: Adobe Illustrator 25.0.0, SVG Export Plug-In . SVG Version: 6.00 Build 0)  -->
<svg version="1.1" id="Laag_1" xmlns="http://www.w3.org/2000/svg" xmlns:xlink="http://www.w3.org/1999/xlink" x="0px" y="0px"
	 viewBox="0 0 566.9 566.9" style="enable-background:new 0 0 566.9 566.9;" xml:space="preserve">
<style type="text/css">
	.st0{display:none;fill:#FCE1D6;}
	.st1{fill:#D8A08F;}
	.st2{display:none;fill:#6D473D;}
	.st3{display:none;fill:#E5D09C;}
</style>
<path class="st0" d="M546.9,566.9H20c-11,0-20-9-20-20V20C0,9,9,0,20,0h526.9c11,0,20,9,20,20v526.9
	C566.9,557.9,557.9,566.9,546.9,566.9z"/>
<path class="st1" d="M546.7,567.1H19.8c-11,0-20-9-20-20V20.2c0-11,9-20,20-20h526.9c11,0,20,9,20,20v526.9
	C566.7,558.1,557.7,567.1,546.7,567.1z"/>
<path class="st2" d="M546.7,567.1H19.8c-11,0-20-9-20-20V20.2c0-11,9-20,20-20h526.9c11,0,20,9,20,20v526.9
	C566.7,558.1,557.7,567.1,546.7,567.1z"/>
<path class="st3" d="M546.7,567.1H19.8c-11,0-20-9-20-20V20.2c0-11,9-20,20-20h526.9c11,0,20,9,20,20v526.9
	C566.7,558.1,557.7,567.1,546.7,567.1z"/>
</svg>
