<?xml version="1.0" encoding="utf-8"?>
<!-- Generator: Adobe Illustrator 24.2.3, SVG Export Plug-In . SVG Version: 6.00 Build 0)  -->
<svg version="1.1" id="Laag_1" xmlns="http://www.w3.org/2000/svg" xmlns:xlink="http://www.w3.org/1999/xlink" x="0px" y="0px"
	 viewBox="0 0 179 179" enable-background="new 0 0 179 179" xml:space="preserve">
<g>
	<g>
		<path fill="#515BA5" d="M164.831,170.5H14.169c-3.118,0-5.669-2.551-5.669-5.669V14.169c0-3.118,2.551-5.669,5.669-5.669h150.661
			c3.118,0,5.669,2.551,5.669,5.669v150.661C170.5,167.949,167.949,170.5,164.831,170.5z"/>
		<path d="M164.831,179H14.169C6.356,179,0,172.644,0,164.831V14.169C0,6.356,6.356,0,14.169,0h150.661
			C172.644,0,179,6.356,179,14.169v150.661C179,172.644,172.644,179,164.831,179z M17,162h145V17H17V162z"/>
	</g>
	<g>
		<path fill="#FFFFFF" d="M125.461,49.443H78.615v30.029h39.158c3.63,0,6.339,0.814,8.128,2.442
			c1.788,1.629,2.683,3.804,2.683,6.526s-0.908,4.885-2.723,6.486c-1.815,1.602-4.512,2.402-8.088,2.402H78.615v38.678
			c0,4.912-1.108,8.556-3.323,10.931c-2.216,2.375-5.059,3.563-8.528,3.563c-3.523,0-6.394-1.201-8.608-3.604
			c-2.216-2.402-3.323-6.032-3.323-10.891V45.68c0-3.416,0.507-6.206,1.521-8.368c1.014-2.162,2.603-3.736,4.765-4.725
			c2.162-0.987,4.925-1.481,8.288-1.481h56.055c3.79,0,6.606,0.841,8.448,2.522s2.763,3.884,2.763,6.606
			c0,2.776-0.921,5.005-2.763,6.687S129.251,49.443,125.461,49.443z"/>
	</g>
</g>
<g display="none">
	<g display="inline">
		<g>
			<defs>
				<path id="SVGID_1_" d="M164.831,170.5H14.169c-3.118,0-5.669-2.551-5.669-5.669V14.169c0-3.118,2.551-5.669,5.669-5.669h150.661
					c3.118,0,5.669,2.551,5.669,5.669v150.661C170.5,167.949,167.949,170.5,164.831,170.5z"/>
			</defs>
			<clipPath id="SVGID_2_">
				<use xlink:href="#SVGID_1_"  overflow="visible"/>
			</clipPath>
			<g clip-path="url(#SVGID_2_)">
			</g>
		</g>
		<path fill="none" stroke="#000000" stroke-width="17" stroke-miterlimit="10" d="M164.831,170.5H14.169
			c-3.118,0-5.669-2.551-5.669-5.669V14.169c0-3.118,2.551-5.669,5.669-5.669h150.661c3.118,0,5.669,2.551,5.669,5.669v150.661
			C170.5,167.949,167.949,170.5,164.831,170.5z"/>
	</g>
	<circle display="inline" fill="none" stroke="#FFFFFF" stroke-width="17" stroke-miterlimit="10" cx="90.862" cy="93" r="46"/>
	
		<circle display="inline" fill="#FFFFFF" stroke="#FFFFFF" stroke-width="17" stroke-miterlimit="10" cx="140.362" cy="40.5" r="5.5"/>
</g>
<g display="none">
	<g display="inline">
		<path fill="#3F78BC" d="M164.831,171.804H14.169c-3.118,0-5.669-2.551-5.669-5.669V15.473c0-3.118,2.551-5.669,5.669-5.669
			h150.661c3.118,0,5.669,2.551,5.669,5.669v150.661C170.5,169.253,167.949,171.804,164.831,171.804z"/>
		<path d="M164.831,180.304H14.169C6.356,180.304,0,173.947,0,166.135V15.473C0,7.66,6.356,1.304,14.169,1.304h150.662
			C172.644,1.304,179,7.66,179,15.473v150.662C179,173.947,172.644,180.304,164.831,180.304z M17,163.304h145v-145H17V163.304z"/>
	</g>
	<g display="inline">
		<path fill="#FFFFFF" d="M45.89,57.071c-2.891,0-5.363-0.887-7.418-2.663c-2.054-1.774-3.081-4.285-3.081-7.532
			c0-2.941,1.052-5.364,3.157-7.266c2.104-1.902,4.552-2.853,7.342-2.853c2.688,0,5.071,0.863,7.151,2.586
			c2.079,1.725,3.119,4.236,3.119,7.532c0,3.195-1.015,5.694-3.043,7.494C51.088,56.171,48.679,57.071,45.89,57.071z M56.16,78.526
			v60.028c0,4.159-0.988,7.304-2.967,9.435c-1.979,2.13-4.488,3.195-7.532,3.195c-3.043,0-5.516-1.092-7.418-3.271
			c-1.901-2.181-2.853-5.3-2.853-9.358V79.135c0-4.108,0.951-7.202,2.853-9.282c1.902-2.08,4.375-3.12,7.418-3.12
			c3.044,0,5.554,1.04,7.532,3.12C55.172,71.933,56.16,74.824,56.16,78.526z"/>
		<path fill="#FFFFFF" d="M96.483,78.222v2.511c3.651-4.818,7.646-8.356,11.982-10.613c4.337-2.256,9.32-3.386,14.95-3.386
			c5.478,0,10.372,1.192,14.684,3.576c4.311,2.385,7.532,5.757,9.662,10.119c1.369,2.537,2.256,5.276,2.663,8.217
			c0.405,2.941,0.608,6.694,0.608,11.259v38.649c0,4.159-0.951,7.304-2.854,9.435c-1.901,2.13-4.374,3.195-7.417,3.195
			c-3.095,0-5.605-1.092-7.532-3.271c-1.929-2.181-2.892-5.3-2.892-9.358v-34.616c0-6.848-0.951-12.084-2.853-15.711
			c-1.902-3.626-5.694-5.44-11.374-5.44c-3.703,0-7.076,1.103-10.119,3.31c-3.043,2.205-5.275,5.237-6.695,9.091
			c-1.015,3.095-1.521,8.877-1.521,17.347v26.02c0,4.211-0.977,7.368-2.929,9.473c-1.953,2.104-4.478,3.157-7.57,3.157
			c-2.993,0-5.453-1.092-7.38-3.271c-1.928-2.181-2.891-5.3-2.891-9.358V78.526c0-3.956,0.861-6.91,2.586-8.863
			c1.725-1.952,4.083-2.929,7.076-2.929c1.826,0,3.474,0.432,4.945,1.293c1.471,0.863,2.649,2.156,3.537,3.88
			C96.038,73.632,96.483,75.737,96.483,78.222z"/>
	</g>
</g>
</svg>
